<svg width="40" height="40" viewBox="0 0 70 70" fill="none" xmlns="http://www.w3.org/2000/svg">
<path fill-rule="evenodd" clip-rule="evenodd" d="M5.83333 35C5.83333 51.1087 18.8912 64.1666 35 64.1666C51.1087 64.1666 64.1667 51.1087 64.1667 35C64.1667 18.8912 51.1087 5.83331 35 5.83331C18.8912 5.83331 5.83333 18.8912 5.83333 35ZM45.2958 36.3708C45.7055 36.781 45.9356 37.337 45.9356 37.9166C45.9356 38.4963 45.7055 39.0523 45.2958 39.4625L36.5458 48.2125C36.1357 48.6221 35.5797 48.8522 35 48.8522C34.4203 48.8522 33.8643 48.6221 33.4542 48.2125L24.7042 39.4625C24.4892 39.2622 24.3169 39.0207 24.1973 38.7524C24.0777 38.4841 24.0135 38.1944 24.0083 37.9007C24.0031 37.607 24.0571 37.3152 24.1671 37.0428C24.2772 36.7704 24.4409 36.523 24.6486 36.3153C24.8564 36.1076 25.1038 35.9438 25.3762 35.8338C25.6486 35.7238 25.9403 35.6697 26.234 35.6749C26.5277 35.6801 26.8174 35.7444 27.0857 35.864C27.3541 35.9835 27.5956 36.1559 27.7958 36.3708L32.8125 41.3875V23.3333C32.8125 22.7532 33.043 22.1968 33.4532 21.7865C33.8634 21.3763 34.4198 21.1458 35 21.1458C35.5802 21.1458 36.1366 21.3763 36.5468 21.7865C36.957 22.1968 37.1875 22.7532 37.1875 23.3333V41.3875L42.2042 36.3708C42.6143 35.9612 43.1703 35.7311 43.75 35.7311C44.3297 35.7311 44.8857 35.9612 45.2958 36.3708Z" fill="#CC5B0A"/>
</svg>
