<svg width="1462" height="197" viewBox="0 0 1462 197" fill="none" xmlns="http://www.w3.org/2000/svg">
<path d="M54.2 142C49.2667 142 47 141.2 47.4 139.6C47.9333 137.467 49.0667 134.533 50.8 130.8C52.5333 126.933 54.9333 122.267 58 116.8C60.6667 111.867 63.4 107.133 66.2 102.6C69.1333 97.9333 72.0667 93.4667 75 89.2C83.5333 76.8 90.2 67.0667 95 60C99.8 52.9333 102.733 48.5333 103.8 46.8C114.333 30.6667 119.6 20 119.6 14.8C119.6 13.0667 119 11.9333 117.8 11.4C114.2 9.79999 110.067 8.99999 105.4 8.99999C95 8.99999 79.4 13.4667 58.6 22.4C52.0667 25.2 46 28.4 40.4 32C34.8 35.6 29.6 39.5333 24.8 43.8C14.2667 53.5333 9 62.4667 9 70.6C9 73.9333 9.86667 77 11.6 79.8C13.4667 82.4667 17.4667 84.1333 23.6 84.8C28.6667 85.4667 30.9333 86.2667 30.4 87.2C29.0667 89.7333 25.6 91 20 91C15.2 91 10.4667 89.4 5.8 86.2C2.06667 83.6667 0.2 79.6 0.2 74C0.2 66.2667 3 58.8 8.6 51.6C13.1333 45.8667 20 39.8667 29.2 33.6C39.8667 26.1333 50.8667 20.5333 62.2 16.8C84.2 9.33333 99.8667 5.6 109.2 5.6C120.267 5.6 127.2 9.13333 130 16.2C131.2 19.2667 123.2 33.5333 106 59C94.9333 75.4 85.6 89.7333 78 102C70.5333 114.133 64.7333 124.267 60.6 132.4V132.8C60.6 133.467 61.0667 134.333 62 135.4C62.9333 136.467 63.4 137.333 63.4 138C63.1333 140.667 60.0667 142 54.2 142ZM176.8 162.4C175.067 162.4 173.267 161.867 171.4 160.8C163.8 156.267 150.533 143.067 131.6 121.2C111.6 97.7333 101.6 82.1333 101.6 74.4C101.6 72.9333 101.867 71.9333 102.4 71.4C103.867 69.6667 106.933 67.2 111.6 64C116.267 60.6667 122.533 56.6 130.4 51.8C136.933 47.6667 143.467 43.7333 150 40C156.533 36.1333 163.067 32.4667 169.6 29C187.867 19.1333 202.733 14 214.2 13.6H215C218.067 13.6 219.6 14.4667 219.6 16.2C219.6 17.5333 218.533 18.2667 216.4 18.4C191.2 22.2667 156.533 40.0667 112.4 71.8C112 71.9333 111.8 72.4 111.8 73.2C111.8 76.5333 115.467 83.5333 122.8 94.2C126.533 99.5333 130.4 104.867 134.4 110.2C138.533 115.4 142.867 120.533 147.4 125.6C163.667 143.6 175.467 152.6 182.8 152.6C184.4 152.6 186 152.133 187.6 151.2C189.2 150.267 190.133 149.8 190.4 149.8H191.2C192.4 149.8 193 150.2 193 151C193 153 191 155.133 187 157.4C185.267 158.467 183.467 159.533 181.6 160.6C179.867 161.8 178.267 162.4 176.8 162.4ZM180.175 137.2C170.442 137.2 165.575 131.2 165.575 119.2C165.575 107.2 170.375 95.7333 179.975 84.8C180.108 84.6667 180.042 84.2 179.775 83.4C179.508 82.4667 179.375 81.8 179.375 81.4C179.375 80.6 179.642 80 180.175 79.6C184.842 75.8667 190.308 74 196.575 74C198.308 74 199.708 74.3333 200.775 75C202.108 75.5333 203.375 76.0667 204.575 76.6C205.775 77.1333 206.908 77.7333 207.975 78.4C213.042 81.4667 216.575 84.6667 218.575 88C221.908 87.8667 224.708 87.7333 226.975 87.6C229.242 87.4667 230.975 87.3333 232.175 87.2H232.975C234.175 87.2 234.775 87.6667 234.775 88.6C234.775 88.8667 234.508 89.0667 233.975 89.2C232.508 89.4667 230.575 89.8 228.175 90.2C225.908 90.6 223.108 91 219.775 91.4C220.175 92.3333 220.375 93.4 220.375 94.6C220.375 95.5333 220.308 96.2 220.175 96.6C218.175 107.4 212.908 116.867 204.375 125C196.108 133.133 188.042 137.2 180.175 137.2ZM213.775 88C211.642 84.6667 207.442 83 201.175 83C196.375 83 193.242 83.5333 191.775 84.6C191.375 84.7333 190.975 85 190.575 85.4C190.175 85.8 189.708 86.2667 189.175 86.8C196.642 87.7333 204.842 88.1333 213.775 88ZM180.775 134C186.642 134 193.375 129.8 200.975 121.4C208.708 113 213.308 104.867 214.775 97C214.908 96.3333 214.975 95.8 214.975 95.4C215.108 94.8667 215.175 94.4 215.175 94C215.175 93.2 215.042 92.4 214.775 91.6C212.242 91.7333 209.642 91.8 206.975 91.8C204.308 91.8 201.642 91.8 198.975 91.8C196.308 91.8 193.842 91.8 191.575 91.8C189.442 91.8 187.508 91.7333 185.775 91.6C180.442 98.8 177.108 104.6 175.775 109C174.175 113.933 173.375 118.667 173.375 123.2C173.375 130.4 175.842 134 180.775 134ZM229.27 143.2C228.737 143.2 228.47 143 228.47 142.6C228.47 140.867 233.004 137.667 242.07 133C244.337 131.933 246.404 130.867 248.27 129.8C250.137 128.6 251.737 127.533 253.07 126.6C261.204 120.6 265.27 115.4 265.27 111C265.27 107.667 262.004 106 255.47 106C240.27 105.733 232.67 102.4 232.67 96C232.67 93.2 233.87 90.5333 236.27 88C239.07 84.8 243.737 81.7333 250.27 78.8C257.337 75.6 263.804 74 269.67 74C274.87 74 278.804 75.2667 281.47 77.8C282.67 79 283.27 80.4667 283.27 82.2C283.27 84.0667 282.67 85.7333 281.47 87.2C280.27 88.6667 278.937 89.4 277.47 89.4C274.804 89.4 273.337 87.6 273.07 84C273.07 81.4667 272.67 80 271.87 79.6C271.07 79.2 268.937 79 265.47 79C261.07 79 256.137 80.4667 250.67 83.4C244.137 86.7333 241.07 90.7333 241.47 95.4C241.737 98.0667 246.804 99.4 256.67 99.4C270.137 99.4 276.87 102.667 276.87 109.2C276.87 116.267 271.07 123.333 259.47 130.4C252.137 134.933 243.204 138.933 232.67 142.4C231.204 142.933 230.07 143.2 229.27 143.2ZM364.942 137C362.009 137.267 359.209 136.533 356.542 134.8C353.876 132.933 352.542 130.867 352.542 128.6C352.542 124.467 356.476 116.533 364.342 104.8C373.009 91.8667 377.342 84.4 377.342 82.4C377.342 81.2 376.742 80.5333 375.542 80.4C371.676 80.6667 366.476 83.7333 359.942 89.6C349.942 98.8 339.876 112.667 329.742 131.2C329.342 131.867 327.809 132.2 325.142 132.2C322.209 132.2 320.742 131 320.742 128.6C320.742 124.467 324.676 116.533 332.542 104.8C341.209 91.8667 345.542 84.4 345.542 82.4C345.542 81.2 344.942 80.5333 343.742 80.4C339.876 80.6667 333.876 84.5333 325.742 92C314.009 102.933 303.209 117.467 293.342 135.6C293.209 135.867 292.876 136.067 292.342 136.2C291.942 136.333 291.142 136.4 289.942 136.4C284.876 136.4 282.609 135.6 283.142 134C284.609 130.133 287.142 124.333 290.742 116.6C294.476 108.867 299.276 99.1333 305.142 87.4C309.142 79.5333 313.209 75.6 317.342 75.6C318.676 75.6 319.542 75.9333 319.942 76.6C320.209 77 317.409 82.7333 311.542 93.8C308.742 99.1333 306.542 103.4 304.942 106.6C303.342 109.667 302.209 111.667 301.542 112.6C303.809 110.333 306.476 107.533 309.542 104.2C312.742 100.867 316.409 97 320.542 92.6C327.076 85.2667 334.276 79.8 342.142 76.2C343.742 75.5333 345.409 75.2 347.142 75.2C352.876 75.2 355.742 77.6667 355.742 82.6C355.742 85.4 354.609 88.7333 352.342 92.6C358.476 85.4 365.676 79.9333 373.942 76.2C375.809 75.4 377.942 75 380.342 75C385.809 75 388.542 77 388.542 81C388.542 83.5333 387.276 86.5333 384.742 90C370.342 110.133 363.142 123.667 363.142 130.6C363.142 132.067 363.609 133 364.542 133.4C366.542 134.2 370.342 133 375.942 129.8C383.009 125.667 389.542 119.867 395.542 112.4C396.342 111.467 397.142 111 397.942 111C398.476 111 398.742 111.2 398.742 111.6C398.742 112.133 398.342 112.933 397.542 114C390.876 122.533 384.276 128.8 377.742 132.8C372.409 136.133 368.142 137.533 364.942 137ZM408.611 136.6C404.744 136.6 401.344 135.667 398.411 133.8C394.544 131.133 392.611 127.267 392.611 122.2C392.611 116.733 394.944 110.067 399.611 102.2C405.878 91.9333 415.078 82.9333 427.211 75.2C430.278 73.2 433.344 72.2 436.411 72.2C440.411 72.2 443.278 73.4667 445.011 76C446.078 77.4667 446.611 79.1333 446.611 81C446.611 86.6 442.078 92.7333 433.011 99.4C430.344 101.267 427.478 103 424.411 104.6C421.478 106.067 418.278 107.133 414.811 107.8L406.211 109.6C403.011 115.333 401.411 120.133 401.411 124C401.411 129.333 404.544 132 410.811 132C415.744 132 421.744 129.933 428.811 125.8C438.278 120.333 446.411 112.733 453.211 103C454.278 101.4 455.278 100.6 456.211 100.6C456.611 100.6 456.811 100.867 456.811 101.4C456.811 102.067 456.344 103.067 455.411 104.4C442.478 123.867 427.878 134.533 411.611 136.4C411.078 136.533 410.544 136.6 410.011 136.6C409.611 136.6 409.144 136.6 408.611 136.6ZM408.611 106.2C412.344 106.2 417.144 104.533 423.011 101.2C431.278 96.5333 437.078 90.5333 440.411 83.2C441.344 81.3333 441.811 79.8 441.811 78.6C441.811 77.4 441.344 76.8 440.411 76.8C438.678 76.8 435.144 78.9333 429.811 83.2C425.944 86.5333 422.144 90.1333 418.411 94C414.811 97.7333 411.344 101.733 408.011 106C407.878 106.133 408.078 106.2 408.611 106.2ZM463.202 138.4C452.935 136.133 447.802 131.467 447.802 124.4C447.802 122.4 448.135 120.067 448.802 117.4C449.468 114.6 450.535 111.533 452.002 108.2L469.002 70C467.002 70.2667 464.802 70.5333 462.402 70.8C460.002 71.0667 457.335 71.3333 454.402 71.6C453.868 71.6 453.602 71.1333 453.602 70.2C453.602 68.3333 453.935 67.2667 454.602 67L471.402 64.6L484.402 38.2C485.602 35.8 489.335 34.6 495.602 34.6C498.535 34.6 499.802 34.9333 499.402 35.6C496.468 40.2667 493.468 45 490.402 49.8C487.468 54.4667 484.535 59.1333 481.602 63.8C482.002 63.6667 482.868 63.5333 484.202 63.4C485.535 63.2667 487.268 63.1333 489.402 63C491.002 62.8667 492.535 62.8 494.002 62.8C495.468 62.6667 496.868 62.6 498.202 62.6C503.802 62.6 506.468 62.8667 506.202 63.4C505.268 64.3333 496.202 66.1333 479.002 68.8C464.468 96.2667 457.202 115.667 457.202 127C457.202 131.133 458.402 133.6 460.802 134.4C462.668 134.933 467.402 132.467 475.002 127C479.402 123.8 483.402 120.333 487.002 116.6C490.602 112.733 493.868 108.667 496.802 104.4C497.735 103.067 498.602 102.4 499.402 102.4C499.935 102.4 500.202 102.667 500.202 103.2C500.202 103.733 499.868 104.533 499.202 105.6C494.135 113.733 487.402 121.4 479.002 128.6C470.868 135.667 465.602 138.933 463.202 138.4ZM507.323 137.2C497.59 137.2 492.723 131.2 492.723 119.2C492.723 107.2 497.523 95.7333 507.123 84.8C507.257 84.6667 507.19 84.2 506.923 83.4C506.657 82.4667 506.523 81.8 506.523 81.4C506.523 80.6 506.79 80 507.323 79.6C511.99 75.8667 517.457 74 523.723 74C525.457 74 526.857 74.3333 527.923 75C529.257 75.5333 530.523 76.0667 531.723 76.6C532.923 77.1333 534.057 77.7333 535.123 78.4C540.19 81.4667 543.723 84.6667 545.723 88C549.057 87.8667 551.857 87.7333 554.123 87.6C556.39 87.4667 558.123 87.3333 559.323 87.2H560.123C561.323 87.2 561.923 87.6667 561.923 88.6C561.923 88.8667 561.657 89.0667 561.123 89.2C559.657 89.4667 557.723 89.8 555.323 90.2C553.057 90.6 550.257 91 546.923 91.4C547.323 92.3333 547.523 93.4 547.523 94.6C547.523 95.5333 547.457 96.2 547.323 96.6C545.323 107.4 540.057 116.867 531.523 125C523.257 133.133 515.19 137.2 507.323 137.2ZM540.923 88C538.79 84.6667 534.59 83 528.323 83C523.523 83 520.39 83.5333 518.923 84.6C518.523 84.7333 518.123 85 517.723 85.4C517.323 85.8 516.857 86.2667 516.323 86.8C523.79 87.7333 531.99 88.1333 540.923 88ZM507.923 134C513.79 134 520.523 129.8 528.123 121.4C535.857 113 540.457 104.867 541.923 97C542.057 96.3333 542.123 95.8 542.123 95.4C542.257 94.8667 542.323 94.4 542.323 94C542.323 93.2 542.19 92.4 541.923 91.6C539.39 91.7333 536.79 91.8 534.123 91.8C531.457 91.8 528.79 91.8 526.123 91.8C523.457 91.8 520.99 91.8 518.723 91.8C516.59 91.8 514.657 91.7333 512.923 91.6C507.59 98.8 504.257 104.6 502.923 109C501.323 113.933 500.523 118.667 500.523 123.2C500.523 130.4 502.99 134 507.923 134ZM569.419 138.8C559.952 136.8 555.219 132.4 555.219 125.6C555.219 121.6 556.485 115.8 559.019 108.2C560.885 102.467 563.419 95.9333 566.619 88.6C569.952 81.1333 574.085 72.8667 579.019 63.8C590.885 41.5333 599.885 29.9333 606.019 29C606.552 28.8667 607.419 28.8 608.619 28.8C615.152 28.8 618.419 31.8667 618.419 38C618.419 46.4 611.352 58.3333 597.219 73.8C589.352 82.6 580.685 90.4 571.219 97.2C565.619 110.533 562.819 120.333 562.819 126.6C562.819 130.733 564.085 133.2 566.619 134C568.619 134.533 573.285 132.133 580.619 126.8C589.019 120.667 596.219 113.2 602.219 104.4C603.152 103.067 604.019 102.4 604.819 102.4C605.352 102.4 605.619 102.667 605.619 103.2C605.619 103.733 605.285 104.533 604.619 105.6C599.552 113.733 592.952 121.467 584.819 128.8C576.952 136 571.819 139.333 569.419 138.8ZM573.419 91.8C578.219 88.2 582.219 84.6 585.419 81L597.219 67C608.152 54.0667 613.619 44.5333 613.619 38.4C613.619 37.2 612.952 36.6 611.619 36.6C609.352 36.6 605.752 39.8667 600.819 46.4C599.352 48.5333 597.819 50.6 596.219 52.6C594.619 54.6 593.019 56.6667 591.419 58.8C589.419 61.7333 587.552 64.6 585.819 67.4C584.219 70.2 582.685 73.0667 581.219 76C580.819 76.5333 579.952 78.1333 578.619 80.8C577.419 83.4667 575.685 87.1333 573.419 91.8ZM610.644 137.2C600.91 137.2 596.044 131.2 596.044 119.2C596.044 107.2 600.844 95.7333 610.444 84.8C610.577 84.6667 610.51 84.2 610.244 83.4C609.977 82.4667 609.844 81.8 609.844 81.4C609.844 80.6 610.11 80 610.644 79.6C615.31 75.8667 620.777 74 627.044 74C628.777 74 630.177 74.3333 631.244 75C632.577 75.5333 633.844 76.0667 635.044 76.6C636.244 77.1333 637.377 77.7333 638.444 78.4C643.51 81.4667 647.044 84.6667 649.044 88C652.377 87.8667 655.177 87.7333 657.444 87.6C659.71 87.4667 661.444 87.3333 662.644 87.2H663.444C664.644 87.2 665.244 87.6667 665.244 88.6C665.244 88.8667 664.977 89.0667 664.444 89.2C662.977 89.4667 661.044 89.8 658.644 90.2C656.377 90.6 653.577 91 650.244 91.4C650.644 92.3333 650.844 93.4 650.844 94.6C650.844 95.5333 650.777 96.2 650.644 96.6C648.644 107.4 643.377 116.867 634.844 125C626.577 133.133 618.51 137.2 610.644 137.2ZM644.244 88C642.11 84.6667 637.91 83 631.644 83C626.844 83 623.71 83.5333 622.244 84.6C621.844 84.7333 621.444 85 621.044 85.4C620.644 85.8 620.177 86.2667 619.644 86.8C627.11 87.7333 635.31 88.1333 644.244 88ZM611.244 134C617.11 134 623.844 129.8 631.444 121.4C639.177 113 643.777 104.867 645.244 97C645.377 96.3333 645.444 95.8 645.444 95.4C645.577 94.8667 645.644 94.4 645.644 94C645.644 93.2 645.51 92.4 645.244 91.6C642.71 91.7333 640.11 91.8 637.444 91.8C634.777 91.8 632.11 91.8 629.444 91.8C626.777 91.8 624.31 91.8 622.044 91.8C619.91 91.8 617.977 91.7333 616.244 91.6C610.91 98.8 607.577 104.6 606.244 109C604.644 113.933 603.844 118.667 603.844 123.2C603.844 130.4 606.31 134 611.244 134ZM646.939 196.6C641.872 196.6 639.339 194.067 639.339 189C639.339 184.867 641.139 179.933 644.739 174.2C647.006 170.6 649.872 166.733 653.339 162.6C656.939 158.6 661.206 154.333 666.139 149.8C674.939 141.267 684.272 133.867 694.139 127.6C695.339 124.667 696.672 121.067 698.139 116.8C699.606 112.533 701.272 107.467 703.139 101.6C702.739 102.533 701.272 104.467 698.739 107.4C696.339 110.2 692.806 114.133 688.139 119.2C676.939 131.6 669.006 137.2 664.339 136C657.139 134.133 653.539 130.133 653.539 124C653.539 118 657.072 110.133 664.139 100.4C666.139 97.7333 668.606 95.0667 671.539 92.4C674.472 89.7333 677.806 87.1333 681.539 84.6C691.006 78.0667 699.939 74.8 708.339 74.8C713.539 74.8 718.272 76.1333 722.539 78.8C723.739 79.6 724.339 80.6 724.339 81.8C724.339 83 724.072 83.6 723.539 83.6C723.406 83.6 723.272 83.5333 723.139 83.4C720.472 80.3333 716.806 78.8 712.139 78.8C706.672 78.8 700.539 80.8667 693.739 85C686.939 89.1333 680.672 94.6667 674.939 101.6C666.006 112.533 661.539 121.067 661.539 127.2C661.539 130 662.606 131.867 664.739 132.8C667.672 134 675.072 128.067 686.939 115C691.606 109.8 695.606 105.133 698.939 101C702.406 96.8667 705.139 93.3333 707.139 90.4C708.072 89.0667 709.406 88.4 711.139 88.4C714.339 88.4 715.939 89.6 715.939 92C715.939 92.5333 715.739 93.1333 715.339 93.8C714.406 96.4667 713.139 100.067 711.539 104.6C709.939 109 708.006 114.333 705.739 120.6C710.006 118.067 713.406 116.8 715.939 116.8C717.006 116.8 717.539 117.067 717.539 117.6C717.539 118.933 715.872 120.2 712.539 121.4C711.206 121.933 709.739 122.533 708.139 123.2C706.672 123.867 705.072 124.667 703.339 125.6C694.006 148.8 682.739 167.933 669.539 183C661.539 192.067 654.006 196.6 646.939 196.6ZM651.139 192.4C653.672 192.4 656.739 190.333 660.339 186.2C672.206 172.867 682.606 155.4 691.539 133.8C673.806 147 660.606 160.733 651.939 175C649.006 179.667 647.539 183.8 647.539 187.4C647.539 190.733 648.739 192.4 651.139 192.4ZM792.589 153.6C790.589 153.6 788.456 152.933 786.189 151.6C784.722 150.667 783.589 150 782.789 149.6C781.989 149.2 781.456 148.933 781.189 148.8C776.389 146.533 773.989 142.333 773.989 136.2C773.989 131.133 775.722 124.733 779.189 117C790.122 93.4 804.656 69.6 822.789 45.6C825.189 42.6667 826.922 39.8 827.989 37C828.656 35.2667 829.656 33.9333 830.989 33C832.589 31.5333 835.789 29.8667 840.589 28C845.389 26.1333 849.056 25.2 851.589 25.2C854.256 25.2 855.456 26.1333 855.189 28C855.056 28.5333 853.389 29.9333 850.189 32.2C848.056 33.8 845.922 35.5333 843.789 37.4C841.656 39.2667 839.522 41.3333 837.389 43.6C831.256 49.7333 823.256 60.3333 813.389 75.4C807.922 83.8 802.789 92.5333 797.989 101.6C793.189 110.667 788.789 120.133 784.789 130C783.189 133.733 782.389 137 782.389 139.8C782.389 144.333 784.522 147.333 788.789 148.8C815.056 149.867 841.789 142.333 868.989 126.2C895.522 110.467 913.722 91.9333 923.589 70.6C926.389 64.6 927.789 58.6 927.789 52.6C927.789 40.2 922.122 29.7333 910.789 21.2C899.322 12.5333 883.789 7.4 864.189 5.79999C860.456 5.53333 856.722 5.33333 852.989 5.19999C849.256 4.93333 845.589 4.8 841.989 4.8C813.056 4.8 789.722 9.53333 771.989 19C756.656 27.1333 748.989 36.6667 748.989 47.6C748.989 58 756.056 65.2667 770.189 69.4C774.056 70.0667 775.989 70.6667 775.989 71.2C775.989 72 774.322 72.6667 770.989 73.2C770.056 73.3333 769.122 73.4667 768.189 73.6C767.389 73.6 766.589 73.6 765.789 73.6C765.122 73.6 764.456 73.6 763.789 73.6C763.122 73.6 762.456 73.5333 761.789 73.4C744.056 69 735.189 61.1333 735.189 49.8C735.189 37.6667 744.456 26.7333 762.989 17C783.656 6.2 809.589 0.799999 840.789 0.799999C848.789 0.799999 856.989 1.2 865.389 2C888.189 4.26666 906.189 10 919.389 19.2C932.722 28.4 939.389 39.8 939.389 53.4C939.389 59.5333 937.989 65.8 935.189 72.2C926.256 92.7333 907.789 111.133 879.789 127.4C851.256 143.933 822.189 152.667 792.589 153.6ZM922.866 137.4C920.999 137.4 920.066 136.8 920.066 135.6C920.066 135.467 920.199 135 920.466 134.2C926.732 122.2 934.132 105.067 942.666 82.8C943.599 80.4 945.199 78.3333 947.466 76.6C949.732 74.7333 951.666 73.8 953.266 73.8C954.999 73.8 955.732 74.7333 955.466 76.6C954.132 79.4 952.532 83 950.666 87.4C948.799 91.8 946.599 96.9333 944.066 102.8C947.799 97.8667 953.332 92.3333 960.666 86.2C964.399 83.1333 967.599 80.6 970.266 78.6C973.066 76.6 975.399 75.1333 977.266 74.2C979.132 73.2667 981.199 72.8 983.466 72.8C986.132 72.8 988.399 73.4667 990.266 74.8C992.132 76.1333 993.066 77.6667 993.066 79.4C993.066 80.4667 992.532 81.6667 991.466 83C990.532 84.2 989.532 84.8 988.466 84.8C987.932 84.8 986.799 84.2667 985.066 83.2C983.466 82 981.732 81.4 979.866 81.4C977.866 81.4 975.532 82 972.866 83.2C955.932 90.8 941.332 107.933 929.066 134.6C928.266 136.467 926.199 137.4 922.866 137.4ZM994.377 133.6C992.377 133.867 990.11 133.667 987.577 133C985.177 132.2 983.977 131.2 983.977 130C983.977 129.2 984.243 128.4 984.777 127.6C985.31 126.667 985.977 125.733 986.777 124.8C989.043 122 990.377 120.267 990.777 119.6C991.31 118.8 992.11 118.4 993.177 118.4C995.71 118.4 998.043 119.867 1000.18 122.8C1000.31 122.933 1000.38 123.2 1000.38 123.6C1000.38 124.533 999.643 126.267 998.177 128.8C996.443 132 995.177 133.6 994.377 133.6ZM1055.35 151C1041.89 151 1032.55 147.933 1027.35 141.8C1024.55 138.6 1023.15 135 1023.15 131C1023.15 121.4 1030.35 110.933 1044.75 99.6C1049.42 95.8667 1053.89 94 1058.15 94C1059.22 94 1059.75 94.2 1059.75 94.6C1059.75 95.5333 1058.09 96.6667 1054.75 98C1049.02 100.4 1044.09 104.8 1039.95 111.2C1035.69 117.733 1033.55 123.933 1033.55 129.8C1033.55 140.6 1042.09 146 1059.15 146C1069.69 146 1079.02 144.4 1087.15 141.2C1105.02 134.267 1119.29 125.267 1129.95 114.2C1139.29 104.733 1143.95 95.6667 1143.95 87C1143.95 76.4667 1137.55 71.2 1124.75 71.2C1104.49 71.2 1089.42 68.6667 1079.55 63.6C1071.42 59.4667 1067.35 54 1067.35 47.2C1067.35 35.4667 1076.22 25.7333 1093.95 18C1108.35 11.4667 1122.09 8.2 1135.15 8.2C1145.82 8.2 1154.22 10.4 1160.35 14.8C1161.95 15.7333 1162.75 17.0667 1162.75 18.8C1162.75 21.3333 1161.15 23.9333 1157.95 26.6C1154.89 29.2667 1152.62 30.4667 1151.15 30.2C1150.89 30.2 1151.35 29.3333 1152.55 27.6C1154.29 25.4667 1155.15 23.5333 1155.15 21.8C1155.15 20.2 1154.55 18.8 1153.35 17.6C1149.75 13.7333 1143.15 11.8 1133.55 11.8C1122.89 11.8 1111.95 14.1333 1100.75 18.8C1089.02 23.8667 1081.89 29.8 1079.35 36.6C1078.02 40.0667 1077.35 43.2 1077.35 46C1077.35 57.8667 1093.95 63.8 1127.15 63.8C1147.15 63.8 1157.15 69.8 1157.15 81.8C1157.15 91.9333 1150.69 103.467 1137.75 116.4C1124.55 129.333 1110.29 138.467 1094.95 143.8C1081.22 148.6 1068.02 151 1055.35 151ZM1146.16 190C1144.03 190 1142.03 189.267 1140.16 187.8C1138.03 185.933 1137.03 183.933 1137.16 181.8C1138.1 171.533 1140.23 160.8 1143.56 149.6C1146.9 138.533 1151.43 126.933 1157.16 114.8C1164.9 98.1333 1173.9 82.6667 1184.16 68.4C1186.16 65.6 1190.1 64.5333 1195.96 65.2C1197.56 65.3333 1198.36 66.0667 1198.36 67.4C1198.36 68.4667 1197.96 69.3333 1197.16 70C1189.16 75.4667 1180.76 87.1333 1171.96 105C1172.36 104.333 1173.63 102.867 1175.76 100.6C1177.9 98.3333 1180.83 95.1333 1184.56 91C1194.03 81 1201.03 76 1205.56 76C1206.5 76.2667 1207.76 76.5333 1209.36 76.8C1210.96 76.9333 1212.9 77.1333 1215.16 77.4C1217.83 77.4 1219.16 79.5333 1219.16 83.8C1219.16 92.8667 1215.1 102.933 1206.96 114C1202.7 119.867 1197.16 125.267 1190.36 130.2C1182.63 135.533 1175.9 138.2 1170.16 138.2C1164.83 138.2 1160.83 135.8 1158.16 131C1149.5 148.6 1144.9 166.067 1144.36 183.4C1144.36 184.867 1145.3 185.933 1147.16 186.6C1149.03 187.267 1149.76 187.933 1149.36 188.6C1148.83 189.533 1147.76 190 1146.16 190ZM1166.56 132C1170.43 132 1175.9 129.667 1182.96 125C1186.43 122.733 1189.5 120.267 1192.16 117.6C1194.83 114.933 1197.1 112.133 1198.96 109.2C1206.03 98.1333 1209.56 89.8667 1209.56 84.4C1209.56 81.8667 1208.56 80.6 1206.56 80.6C1201.23 80.6 1192.43 87.4667 1180.16 101.2C1168.56 113.733 1162.76 122.8 1162.76 128.4C1162.76 130.8 1164.03 132 1166.56 132ZM1259.08 64.8C1256.95 65.0667 1254.61 64.8 1252.08 64C1249.68 63.2 1248.48 62.2 1248.48 61C1248.48 60.2 1248.75 59.4 1249.28 58.6C1249.81 57.6667 1250.48 56.7333 1251.28 55.8C1253.55 53 1254.88 51.2667 1255.28 50.6C1255.68 49.8 1256.41 49.4 1257.48 49.4C1260.55 49.4 1262.95 50.8667 1264.68 53.8C1264.81 53.9333 1264.88 54.2 1264.88 54.6C1264.88 55.8 1264.21 57.5333 1262.88 59.8C1261.15 63 1259.88 64.6667 1259.08 64.8ZM1228.88 137C1221.15 135.267 1217.28 132.2 1217.28 127.8C1217.28 125.667 1219.88 118.133 1225.08 105.2C1226.55 102.667 1228.48 99 1230.88 94.2C1233.41 89.2667 1236.55 83.2667 1240.28 76.2C1240.95 75.1333 1242.41 74.6 1244.68 74.6C1246.68 74.6 1248.61 74.9333 1250.48 75.6C1252.48 76.1333 1253.28 76.6667 1252.88 77.2C1235.28 102.133 1226.48 119.4 1226.48 129C1226.48 131.8 1227.41 133.2 1229.28 133.2C1232.88 133.2 1238.55 130.667 1246.28 125.6C1255.48 119.333 1263.21 111.8 1269.48 103C1270.81 100.867 1272.15 99.8 1273.48 99.8C1273.88 99.8 1274.08 100 1274.08 100.4C1274.08 101.067 1273.48 102.333 1272.28 104.2C1266.41 113.4 1258.28 121.533 1247.88 128.6C1238.55 135 1232.21 137.8 1228.88 137ZM1278.99 138.8C1269.52 136.8 1264.79 132.4 1264.79 125.6C1264.79 121.6 1266.06 115.8 1268.59 108.2C1270.46 102.467 1272.99 95.9333 1276.19 88.6C1279.52 81.1333 1283.66 72.8667 1288.59 63.8C1300.46 41.5333 1309.46 29.9333 1315.59 29C1316.12 28.8667 1316.99 28.8 1318.19 28.8C1324.72 28.8 1327.99 31.8667 1327.99 38C1327.99 46.4 1320.92 58.3333 1306.79 73.8C1298.92 82.6 1290.26 90.4 1280.79 97.2C1275.19 110.533 1272.39 120.333 1272.39 126.6C1272.39 130.733 1273.66 133.2 1276.19 134C1278.19 134.533 1282.86 132.133 1290.19 126.8C1298.59 120.667 1305.79 113.2 1311.79 104.4C1312.72 103.067 1313.59 102.4 1314.39 102.4C1314.92 102.4 1315.19 102.667 1315.19 103.2C1315.19 103.733 1314.86 104.533 1314.19 105.6C1309.12 113.733 1302.52 121.467 1294.39 128.8C1286.52 136 1281.39 139.333 1278.99 138.8ZM1282.99 91.8C1287.79 88.2 1291.79 84.6 1294.99 81L1306.79 67C1317.72 54.0667 1323.19 44.5333 1323.19 38.4C1323.19 37.2 1322.52 36.6 1321.19 36.6C1318.92 36.6 1315.32 39.8667 1310.39 46.4C1308.92 48.5333 1307.39 50.6 1305.79 52.6C1304.19 54.6 1302.59 56.6667 1300.99 58.8C1298.99 61.7333 1297.12 64.6 1295.39 67.4C1293.79 70.2 1292.26 73.0667 1290.79 76C1290.39 76.5333 1289.52 78.1333 1288.19 80.8C1286.99 83.4667 1285.26 87.1333 1282.99 91.8ZM1319.61 138.8C1310.15 136.8 1305.41 132.4 1305.41 125.6C1305.41 121.6 1306.68 115.8 1309.21 108.2C1311.08 102.467 1313.61 95.9333 1316.81 88.6C1320.15 81.1333 1324.28 72.8667 1329.21 63.8C1341.08 41.5333 1350.08 29.9333 1356.21 29C1356.75 28.8667 1357.61 28.8 1358.81 28.8C1365.35 28.8 1368.61 31.8667 1368.61 38C1368.61 46.4 1361.55 58.3333 1347.41 73.8C1339.55 82.6 1330.88 90.4 1321.41 97.2C1315.81 110.533 1313.01 120.333 1313.01 126.6C1313.01 130.733 1314.28 133.2 1316.81 134C1318.81 134.533 1323.48 132.133 1330.81 126.8C1339.21 120.667 1346.41 113.2 1352.41 104.4C1353.35 103.067 1354.21 102.4 1355.01 102.4C1355.55 102.4 1355.81 102.667 1355.81 103.2C1355.81 103.733 1355.48 104.533 1354.81 105.6C1349.75 113.733 1343.15 121.467 1335.01 128.8C1327.15 136 1322.01 139.333 1319.61 138.8ZM1323.61 91.8C1328.41 88.2 1332.41 84.6 1335.61 81L1347.41 67C1358.35 54.0667 1363.81 44.5333 1363.81 38.4C1363.81 37.2 1363.15 36.6 1361.81 36.6C1359.55 36.6 1355.95 39.8667 1351.01 46.4C1349.55 48.5333 1348.01 50.6 1346.41 52.6C1344.81 54.6 1343.21 56.6667 1341.61 58.8C1339.61 61.7333 1337.75 64.6 1336.01 67.4C1334.41 70.2 1332.88 73.0667 1331.41 76C1331.01 76.5333 1330.15 78.1333 1328.81 80.8C1327.61 83.4667 1325.88 87.1333 1323.61 91.8ZM1357.44 136.6C1353.57 136.6 1350.17 135.667 1347.24 133.8C1343.37 131.133 1341.44 127.267 1341.44 122.2C1341.44 116.733 1343.77 110.067 1348.44 102.2C1354.71 91.9333 1363.91 82.9333 1376.04 75.2C1379.11 73.2 1382.17 72.2 1385.24 72.2C1389.24 72.2 1392.11 73.4667 1393.84 76C1394.91 77.4667 1395.44 79.1333 1395.44 81C1395.44 86.6 1390.91 92.7333 1381.84 99.4C1379.17 101.267 1376.31 103 1373.24 104.6C1370.31 106.067 1367.11 107.133 1363.64 107.8L1355.04 109.6C1351.84 115.333 1350.24 120.133 1350.24 124C1350.24 129.333 1353.37 132 1359.64 132C1364.57 132 1370.57 129.933 1377.64 125.8C1387.11 120.333 1395.24 112.733 1402.04 103C1403.11 101.4 1404.11 100.6 1405.04 100.6C1405.44 100.6 1405.64 100.867 1405.64 101.4C1405.64 102.067 1405.17 103.067 1404.24 104.4C1391.31 123.867 1376.71 134.533 1360.44 136.4C1359.91 136.533 1359.37 136.6 1358.84 136.6C1358.44 136.6 1357.97 136.6 1357.44 136.6ZM1357.44 106.2C1361.17 106.2 1365.97 104.533 1371.84 101.2C1380.11 96.5333 1385.91 90.5333 1389.24 83.2C1390.17 81.3333 1390.64 79.8 1390.64 78.6C1390.64 77.4 1390.17 76.8 1389.24 76.8C1387.51 76.8 1383.97 78.9333 1378.64 83.2C1374.77 86.5333 1370.97 90.1333 1367.24 94C1363.64 97.7333 1360.17 101.733 1356.84 106C1356.71 106.133 1356.91 106.2 1357.44 106.2ZM1391.03 137.4C1389.16 137.4 1388.23 136.8 1388.23 135.6C1388.23 135.467 1388.36 135 1388.63 134.2C1394.9 122.2 1402.3 105.067 1410.83 82.8C1411.76 80.4 1413.36 78.3333 1415.63 76.6C1417.9 74.7333 1419.83 73.8 1421.43 73.8C1423.16 73.8 1423.9 74.7333 1423.63 76.6C1422.3 79.4 1420.7 83 1418.83 87.4C1416.96 91.8 1414.76 96.9333 1412.23 102.8C1415.96 97.8667 1421.5 92.3333 1428.83 86.2C1432.56 83.1333 1435.76 80.6 1438.43 78.6C1441.23 76.6 1443.56 75.1333 1445.43 74.2C1447.3 73.2667 1449.36 72.8 1451.63 72.8C1454.3 72.8 1456.56 73.4667 1458.43 74.8C1460.3 76.1333 1461.23 77.6667 1461.23 79.4C1461.23 80.4667 1460.7 81.6667 1459.63 83C1458.7 84.2 1457.7 84.8 1456.63 84.8C1456.1 84.8 1454.96 84.2667 1453.23 83.2C1451.63 82 1449.9 81.4 1448.03 81.4C1446.03 81.4 1443.7 82 1441.03 83.2C1424.1 90.8 1409.5 107.933 1397.23 134.6C1396.43 136.467 1394.36 137.4 1391.03 137.4Z" fill="white"/>
</svg>
