<svg width="1291" height="239" viewBox="0 0 1291 239" fill="none" xmlns="http://www.w3.org/2000/svg">
<path d="M68 170.75C61.8333 170.75 59 169.75 59.5 167.75C60.1667 165.083 61.5833 161.417 63.75 156.75C65.9167 151.917 68.9167 146.083 72.75 139.25C76.0833 133.083 79.5 127.167 83 121.5C86.6667 115.667 90.3333 110.083 94 104.75C104.667 89.25 113 77.0833 119 68.25C125 59.4167 128.667 53.9167 130 51.75C143.167 31.5833 149.75 18.25 149.75 11.75C149.75 9.58333 149 8.16666 147.5 7.49999C143 5.49999 137.833 4.49999 132 4.49999C119 4.49999 99.5 10.0833 73.5 21.25C65.3333 24.75 57.75 28.75 50.75 33.25C43.75 37.75 37.25 42.6667 31.25 48C18.0833 60.1667 11.5 71.3333 11.5 81.5C11.5 85.6667 12.5833 89.5 14.75 93C17.0833 96.3333 22.0833 98.4167 29.75 99.25C36.0833 100.083 38.9167 101.083 38.25 102.25C36.5833 105.417 32.25 107 25.25 107C19.25 107 13.3333 105 7.5 101C2.83333 97.8333 0.5 92.75 0.5 85.75C0.5 76.0833 4 66.75 11 57.75C16.6667 50.5833 25.25 43.0833 36.75 35.25C50.0833 25.9167 63.8333 18.9167 78 14.25C105.5 4.91666 125.083 0.249996 136.75 0.249996C150.583 0.249996 159.25 4.66666 162.75 13.5C164.25 17.3333 154.25 35.1667 132.75 67C118.917 87.5 107.25 105.417 97.75 120.75C88.4167 135.917 81.1667 148.583 76 158.75V159.25C76 160.083 76.5833 161.167 77.75 162.5C78.9167 163.833 79.5 164.917 79.5 165.75C79.1667 169.083 75.3333 170.75 68 170.75ZM221.25 196.25C219.083 196.25 216.833 195.583 214.5 194.25C205 188.583 188.417 172.083 164.75 144.75C139.75 115.417 127.25 95.9167 127.25 86.25C127.25 84.4167 127.583 83.1667 128.25 82.5C130.083 80.3333 133.917 77.25 139.75 73.25C145.583 69.0833 153.417 64 163.25 58C171.417 52.8333 179.583 47.9167 187.75 43.25C195.917 38.4167 204.083 33.8333 212.25 29.5C235.083 17.1667 253.667 10.75 268 10.25H269C272.833 10.25 274.75 11.3333 274.75 13.5C274.75 15.1667 273.417 16.0833 270.75 16.25C239.25 21.0833 195.917 43.3333 140.75 83C140.25 83.1667 140 83.75 140 84.75C140 88.9167 144.583 97.6667 153.75 111C158.417 117.667 163.25 124.333 168.25 131C173.417 137.5 178.833 143.917 184.5 150.25C204.833 172.75 219.583 184 228.75 184C230.75 184 232.75 183.417 234.75 182.25C236.75 181.083 237.917 180.5 238.25 180.5H239.25C240.75 180.5 241.5 181 241.5 182C241.5 184.5 239 187.167 234 190C231.833 191.333 229.583 192.667 227.25 194C225.083 195.5 223.083 196.25 221.25 196.25ZM225.469 164.75C213.302 164.75 207.219 157.25 207.219 142.25C207.219 127.25 213.219 112.917 225.219 99.25C225.385 99.0833 225.302 98.5 224.969 97.5C224.635 96.3333 224.469 95.5 224.469 95C224.469 94 224.802 93.25 225.469 92.75C231.302 88.0833 238.135 85.75 245.969 85.75C248.135 85.75 249.885 86.1667 251.219 87C252.885 87.6667 254.469 88.3333 255.969 89C257.469 89.6667 258.885 90.4167 260.219 91.25C266.552 95.0833 270.969 99.0833 273.469 103.25C277.635 103.083 281.135 102.917 283.969 102.75C286.802 102.583 288.969 102.417 290.469 102.25H291.469C292.969 102.25 293.719 102.833 293.719 104C293.719 104.333 293.385 104.583 292.719 104.75C290.885 105.083 288.469 105.5 285.469 106C282.635 106.5 279.135 107 274.969 107.5C275.469 108.667 275.719 110 275.719 111.5C275.719 112.667 275.635 113.5 275.469 114C272.969 127.5 266.385 139.333 255.719 149.5C245.385 159.667 235.302 164.75 225.469 164.75ZM267.469 103.25C264.802 99.0833 259.552 97 251.719 97C245.719 97 241.802 97.6667 239.969 99C239.469 99.1667 238.969 99.5 238.469 100C237.969 100.5 237.385 101.083 236.719 101.75C246.052 102.917 256.302 103.417 267.469 103.25ZM226.219 160.75C233.552 160.75 241.969 155.5 251.469 145C261.135 134.5 266.885 124.333 268.719 114.5C268.885 113.667 268.969 113 268.969 112.5C269.135 111.833 269.219 111.25 269.219 110.75C269.219 109.75 269.052 108.75 268.719 107.75C265.552 107.917 262.302 108 258.969 108C255.635 108 252.302 108 248.969 108C245.635 108 242.552 108 239.719 108C237.052 108 234.635 107.917 232.469 107.75C225.802 116.75 221.635 124 219.969 129.5C217.969 135.667 216.969 141.583 216.969 147.25C216.969 156.25 220.052 160.75 226.219 160.75ZM286.838 172.25C286.171 172.25 285.838 172 285.838 171.5C285.838 169.333 291.505 165.333 302.838 159.5C305.671 158.167 308.255 156.833 310.588 155.5C312.921 154 314.921 152.667 316.588 151.5C326.755 144 331.838 137.5 331.838 132C331.838 127.833 327.755 125.75 319.588 125.75C300.588 125.417 291.088 121.25 291.088 113.25C291.088 109.75 292.588 106.417 295.588 103.25C299.088 99.25 304.921 95.4167 313.088 91.75C321.921 87.75 330.005 85.75 337.338 85.75C343.838 85.75 348.755 87.3333 352.088 90.5C353.588 92 354.338 93.8333 354.338 96C354.338 98.3333 353.588 100.417 352.088 102.25C350.588 104.083 348.921 105 347.088 105C343.755 105 341.921 102.75 341.588 98.25C341.588 95.0833 341.088 93.25 340.088 92.75C339.088 92.25 336.421 92 332.088 92C326.588 92 320.421 93.8333 313.588 97.5C305.421 101.667 301.588 106.667 302.088 112.5C302.421 115.833 308.755 117.5 321.088 117.5C337.921 117.5 346.338 121.583 346.338 129.75C346.338 138.583 339.088 147.417 324.588 156.25C315.421 161.917 304.255 166.917 291.088 171.25C289.255 171.917 287.838 172.25 286.838 172.25ZM456.428 164.5C452.761 164.833 449.261 163.917 445.928 161.75C442.594 159.417 440.928 156.833 440.928 154C440.928 148.833 445.844 138.917 455.678 124.25C466.511 108.083 471.928 98.75 471.928 96.25C471.928 94.75 471.178 93.9167 469.678 93.75C464.844 94.0833 458.344 97.9167 450.178 105.25C437.678 116.75 425.094 134.083 412.428 157.25C411.928 158.083 410.011 158.5 406.678 158.5C403.011 158.5 401.178 157 401.178 154C401.178 148.833 406.094 138.917 415.928 124.25C426.761 108.083 432.178 98.75 432.178 96.25C432.178 94.75 431.428 93.9167 429.928 93.75C425.094 94.0833 417.594 98.9167 407.428 108.25C392.761 121.917 379.261 140.083 366.928 162.75C366.761 163.083 366.344 163.333 365.678 163.5C365.178 163.667 364.178 163.75 362.678 163.75C356.344 163.75 353.511 162.75 354.178 160.75C356.011 155.917 359.178 148.667 363.678 139C368.344 129.333 374.344 117.167 381.678 102.5C386.678 92.6667 391.761 87.75 396.928 87.75C398.594 87.75 399.678 88.1667 400.178 89C400.511 89.5 397.011 96.6667 389.678 110.5C386.178 117.167 383.428 122.5 381.428 126.5C379.428 130.333 378.011 132.833 377.178 134C380.011 131.167 383.344 127.667 387.178 123.5C391.178 119.333 395.761 114.5 400.928 109C409.094 99.8333 418.094 93 427.928 88.5C429.928 87.6667 432.011 87.25 434.178 87.25C441.344 87.25 444.928 90.3333 444.928 96.5C444.928 100 443.511 104.167 440.678 109C448.344 100 457.344 93.1667 467.678 88.5C470.011 87.5 472.678 87 475.678 87C482.511 87 485.928 89.5 485.928 94.5C485.928 97.6667 484.344 101.417 481.178 105.75C463.178 130.917 454.178 147.833 454.178 156.5C454.178 158.333 454.761 159.5 455.928 160C458.428 161 463.178 159.5 470.178 155.5C479.011 150.333 487.178 143.083 494.678 133.75C495.678 132.583 496.678 132 497.678 132C498.344 132 498.678 132.25 498.678 132.75C498.678 133.417 498.178 134.417 497.178 135.75C488.844 146.417 480.594 154.25 472.428 159.25C465.761 163.417 460.428 165.167 456.428 164.5ZM511.014 164C506.18 164 501.93 162.833 498.264 160.5C493.43 157.167 491.014 152.333 491.014 146C491.014 139.167 493.93 130.833 499.764 121C507.597 108.167 519.097 96.9167 534.264 87.25C538.097 84.75 541.93 83.5 545.764 83.5C550.764 83.5 554.347 85.0833 556.514 88.25C557.847 90.0833 558.514 92.1667 558.514 94.5C558.514 101.5 552.847 109.167 541.514 117.5C538.18 119.833 534.597 122 530.764 124C527.097 125.833 523.097 127.167 518.764 128L508.014 130.25C504.014 137.417 502.014 143.417 502.014 148.25C502.014 154.917 505.93 158.25 513.764 158.25C519.93 158.25 527.43 155.667 536.264 150.5C548.097 143.667 558.264 134.167 566.764 122C568.097 120 569.347 119 570.514 119C571.014 119 571.264 119.333 571.264 120C571.264 120.833 570.68 122.083 569.514 123.75C553.347 148.083 535.097 161.417 514.764 163.75C514.097 163.917 513.43 164 512.764 164C512.264 164 511.68 164 511.014 164ZM511.014 126C515.68 126 521.68 123.917 529.014 119.75C539.347 113.917 546.597 106.417 550.764 97.25C551.93 94.9167 552.514 93 552.514 91.5C552.514 90 551.93 89.25 550.764 89.25C548.597 89.25 544.18 91.9167 537.514 97.25C532.68 101.417 527.93 105.917 523.264 110.75C518.764 115.417 514.43 120.417 510.264 125.75C510.097 125.917 510.347 126 511.014 126ZM579.252 166.25C566.419 163.417 560.002 157.583 560.002 148.75C560.002 146.25 560.419 143.333 561.252 140C562.085 136.5 563.419 132.667 565.252 128.5L586.502 80.75C584.002 81.0833 581.252 81.4167 578.252 81.75C575.252 82.0833 571.919 82.4167 568.252 82.75C567.585 82.75 567.252 82.1667 567.252 81C567.252 78.6667 567.669 77.3333 568.502 77L589.502 74L605.752 41C607.252 38 611.919 36.5 619.752 36.5C623.419 36.5 625.002 36.9167 624.502 37.75C620.835 43.5833 617.085 49.5 613.252 55.5C609.585 61.3333 605.919 67.1667 602.252 73C602.752 72.8333 603.835 72.6667 605.502 72.5C607.169 72.3333 609.335 72.1667 612.002 72C614.002 71.8333 615.919 71.75 617.752 71.75C619.585 71.5833 621.335 71.5 623.002 71.5C630.002 71.5 633.335 71.8333 633.002 72.5C631.835 73.6667 620.502 75.9167 599.002 79.25C580.835 113.583 571.752 137.833 571.752 152C571.752 157.167 573.252 160.25 576.252 161.25C578.585 161.917 584.502 158.833 594.002 152C599.502 148 604.502 143.667 609.002 139C613.502 134.167 617.585 129.083 621.252 123.75C622.419 122.083 623.502 121.25 624.502 121.25C625.169 121.25 625.502 121.583 625.502 122.25C625.502 122.917 625.085 123.917 624.252 125.25C617.919 135.417 609.502 145 599.002 154C588.835 162.833 582.252 166.917 579.252 166.25ZM634.404 164.75C622.238 164.75 616.154 157.25 616.154 142.25C616.154 127.25 622.154 112.917 634.154 99.25C634.321 99.0833 634.238 98.5 633.904 97.5C633.571 96.3333 633.404 95.5 633.404 95C633.404 94 633.738 93.25 634.404 92.75C640.238 88.0833 647.071 85.75 654.904 85.75C657.071 85.75 658.821 86.1667 660.154 87C661.821 87.6667 663.404 88.3333 664.904 89C666.404 89.6667 667.821 90.4167 669.154 91.25C675.488 95.0833 679.904 99.0833 682.404 103.25C686.571 103.083 690.071 102.917 692.904 102.75C695.738 102.583 697.904 102.417 699.404 102.25H700.404C701.904 102.25 702.654 102.833 702.654 104C702.654 104.333 702.321 104.583 701.654 104.75C699.821 105.083 697.404 105.5 694.404 106C691.571 106.5 688.071 107 683.904 107.5C684.404 108.667 684.654 110 684.654 111.5C684.654 112.667 684.571 113.5 684.404 114C681.904 127.5 675.321 139.333 664.654 149.5C654.321 159.667 644.238 164.75 634.404 164.75ZM676.404 103.25C673.738 99.0833 668.488 97 660.654 97C654.654 97 650.738 97.6667 648.904 99C648.404 99.1667 647.904 99.5 647.404 100C646.904 100.5 646.321 101.083 645.654 101.75C654.988 102.917 665.238 103.417 676.404 103.25ZM635.154 160.75C642.488 160.75 650.904 155.5 660.404 145C670.071 134.5 675.821 124.333 677.654 114.5C677.821 113.667 677.904 113 677.904 112.5C678.071 111.833 678.154 111.25 678.154 110.75C678.154 109.75 677.988 108.75 677.654 107.75C674.488 107.917 671.238 108 667.904 108C664.571 108 661.238 108 657.904 108C654.571 108 651.488 108 648.654 108C645.988 108 643.571 107.917 641.404 107.75C634.738 116.75 630.571 124 628.904 129.5C626.904 135.667 625.904 141.583 625.904 147.25C625.904 156.25 628.988 160.75 635.154 160.75ZM712.023 166.75C700.19 164.25 694.273 158.75 694.273 150.25C694.273 145.25 695.857 138 699.023 128.5C701.357 121.333 704.523 113.167 708.523 104C712.69 94.6667 717.857 84.3333 724.023 73C738.857 45.1667 750.107 30.6667 757.773 29.5C758.44 29.3333 759.523 29.25 761.023 29.25C769.19 29.25 773.273 33.0833 773.273 40.75C773.273 51.25 764.44 66.1667 746.773 85.5C736.94 96.5 726.107 106.25 714.273 114.75C707.273 131.417 703.773 143.667 703.773 151.5C703.773 156.667 705.357 159.75 708.523 160.75C711.023 161.417 716.857 158.417 726.023 151.75C736.523 144.083 745.523 134.75 753.023 123.75C754.19 122.083 755.273 121.25 756.273 121.25C756.94 121.25 757.273 121.583 757.273 122.25C757.273 122.917 756.857 123.917 756.023 125.25C749.69 135.417 741.44 145.083 731.273 154.25C721.44 163.25 715.023 167.417 712.023 166.75ZM717.023 108C723.023 103.5 728.023 99 732.023 94.5L746.773 77C760.44 60.8333 767.273 48.9167 767.273 41.25C767.273 39.75 766.44 39 764.773 39C761.94 39 757.44 43.0833 751.273 51.25C749.44 53.9167 747.523 56.5 745.523 59C743.523 61.5 741.523 64.0833 739.523 66.75C737.023 70.4167 734.69 74 732.523 77.5C730.523 81 728.607 84.5833 726.773 88.25C726.273 88.9167 725.19 90.9167 723.523 94.25C722.023 97.5833 719.857 102.167 717.023 108ZM763.555 164.75C751.388 164.75 745.305 157.25 745.305 142.25C745.305 127.25 751.305 112.917 763.305 99.25C763.471 99.0833 763.388 98.5 763.055 97.5C762.721 96.3333 762.555 95.5 762.555 95C762.555 94 762.888 93.25 763.555 92.75C769.388 88.0833 776.221 85.75 784.055 85.75C786.221 85.75 787.971 86.1667 789.305 87C790.971 87.6667 792.555 88.3333 794.055 89C795.555 89.6667 796.971 90.4167 798.305 91.25C804.638 95.0833 809.055 99.0833 811.555 103.25C815.721 103.083 819.221 102.917 822.055 102.75C824.888 102.583 827.055 102.417 828.555 102.25H829.555C831.055 102.25 831.805 102.833 831.805 104C831.805 104.333 831.471 104.583 830.805 104.75C828.971 105.083 826.555 105.5 823.555 106C820.721 106.5 817.221 107 813.055 107.5C813.555 108.667 813.805 110 813.805 111.5C813.805 112.667 813.721 113.5 813.555 114C811.055 127.5 804.471 139.333 793.805 149.5C783.471 159.667 773.388 164.75 763.555 164.75ZM805.555 103.25C802.888 99.0833 797.638 97 789.805 97C783.805 97 779.888 97.6667 778.055 99C777.555 99.1667 777.055 99.5 776.555 100C776.055 100.5 775.471 101.083 774.805 101.75C784.138 102.917 794.388 103.417 805.555 103.25ZM764.305 160.75C771.638 160.75 780.055 155.5 789.555 145C799.221 134.5 804.971 124.333 806.805 114.5C806.971 113.667 807.055 113 807.055 112.5C807.221 111.833 807.305 111.25 807.305 110.75C807.305 109.75 807.138 108.75 806.805 107.75C803.638 107.917 800.388 108 797.055 108C793.721 108 790.388 108 787.055 108C783.721 108 780.638 108 777.805 108C775.138 108 772.721 107.917 770.555 107.75C763.888 116.75 759.721 124 758.055 129.5C756.055 135.667 755.055 141.583 755.055 147.25C755.055 156.25 758.138 160.75 764.305 160.75ZM808.924 239C802.59 239 799.424 235.833 799.424 229.5C799.424 224.333 801.674 218.167 806.174 211C809.007 206.5 812.59 201.667 816.924 196.5C821.424 191.5 826.757 186.167 832.924 180.5C843.924 169.833 855.59 160.583 867.924 152.75C869.424 149.083 871.09 144.583 872.924 139.25C874.757 133.917 876.84 127.583 879.174 120.25C878.674 121.417 876.84 123.833 873.674 127.5C870.674 131 866.257 135.917 860.424 142.25C846.424 157.75 836.507 164.75 830.674 163.25C821.674 160.917 817.174 155.917 817.174 148.25C817.174 140.75 821.59 130.917 830.424 118.75C832.924 115.417 836.007 112.083 839.674 108.75C843.34 105.417 847.507 102.167 852.174 99C864.007 90.8333 875.174 86.75 885.674 86.75C892.174 86.75 898.091 88.4167 903.424 91.75C904.924 92.75 905.674 94 905.674 95.5C905.674 97 905.34 97.75 904.674 97.75C904.507 97.75 904.34 97.6667 904.174 97.5C900.84 93.6667 896.257 91.75 890.424 91.75C883.59 91.75 875.924 94.3333 867.424 99.5C858.924 104.667 851.09 111.583 843.924 120.25C832.757 133.917 827.174 144.583 827.174 152.25C827.174 155.75 828.507 158.083 831.174 159.25C834.84 160.75 844.09 153.333 858.924 137C864.757 130.5 869.757 124.667 873.924 119.5C878.257 114.333 881.674 109.917 884.174 106.25C885.34 104.583 887.007 103.75 889.174 103.75C893.174 103.75 895.174 105.25 895.174 108.25C895.174 108.917 894.924 109.667 894.424 110.5C893.257 113.833 891.674 118.333 889.674 124C887.674 129.5 885.257 136.167 882.424 144C887.757 140.833 892.007 139.25 895.174 139.25C896.507 139.25 897.174 139.583 897.174 140.25C897.174 141.917 895.091 143.5 890.924 145C889.257 145.667 887.424 146.417 885.424 147.25C883.59 148.083 881.591 149.083 879.424 150.25C867.757 179.25 853.674 203.167 837.174 222C827.174 233.333 817.757 239 808.924 239ZM814.174 233.75C817.34 233.75 821.174 231.167 825.674 226C840.507 209.333 853.507 187.5 864.674 160.5C842.507 177 826.007 194.167 815.174 212C811.507 217.833 809.674 223 809.674 227.5C809.674 231.667 811.174 233.75 814.174 233.75ZM1153.74 183C1150.57 183 1146.99 180.583 1142.99 175.75C1141.15 173.417 1140.24 169.833 1140.24 165C1140.24 149.167 1148.32 124.25 1164.49 90.25C1153.32 110.583 1140.74 127.333 1126.74 140.5C1108.57 157.5 1090.07 166 1071.24 166C1069.4 166 1067.49 165.917 1065.49 165.75C1063.49 165.583 1061.57 165.333 1059.74 165C1049.4 163 1044.24 155.25 1044.24 141.75C1044.24 134.75 1045.24 127.75 1047.24 120.75C1049.24 113.75 1052.32 106.833 1056.49 100L1083.24 56.75C1088.57 48.0833 1092.49 40.6667 1094.99 34.5C1097.49 28.3333 1098.74 23.4167 1098.74 19.75C1098.74 15.0833 1096.74 12.1667 1092.74 11C1084.74 8.49999 1076.99 7.25 1069.49 7.25C1055.49 7.25 1038.15 11.4167 1017.49 19.75C1003.99 25.25 991.57 33.4167 980.236 44.25C968.403 55.75 962.486 66.1667 962.486 75.5C962.486 80.8333 964.986 85.4167 969.986 89.25C973.986 92.25 980.736 93.75 990.236 93.75C992.07 93.75 995.486 93.5 1000.49 93C1005.49 92.5 1012.07 91.6667 1020.24 90.5L1011.49 93C1004.65 95 998.57 96.5 993.236 97.5C988.07 98.3333 983.57 98.75 979.736 98.75C974.07 98.75 968.82 98 963.986 96.5C955.82 93.8333 951.736 87.8333 951.736 78.5C951.736 71 954.07 63.9167 958.736 57.25C968.57 43.25 986.82 29.75 1013.49 16.75C1033.99 6.91666 1055.49 1.99999 1077.99 1.99999C1097.65 1.99999 1108.57 6.99999 1110.74 17C1111.74 21.3333 1106.57 33.6667 1095.24 54C1089.24 64.6667 1084.32 73.3333 1080.49 80C1076.82 86.6667 1073.9 91.9167 1071.74 95.75C1069.57 99.5833 1067.9 102.583 1066.74 104.75C1065.57 106.917 1064.65 108.833 1063.99 110.5C1063.32 112 1062.57 113.917 1061.74 116.25C1057.9 126.75 1055.99 135.417 1055.99 142.25C1055.99 154.25 1061.65 160.25 1072.99 160.25C1074.32 160.25 1075.82 160.167 1077.49 160C1079.15 159.667 1080.9 159.333 1082.74 159C1108.24 153.167 1130.4 136.25 1149.24 108.25C1163.07 87.75 1171.32 69.75 1173.99 54.25C1174.15 52.0833 1176.49 51 1180.99 51C1183.99 51 1186.82 51.5833 1189.49 52.75C1192.15 53.75 1193.49 55.1667 1193.49 57C1193.49 57.1667 1193.32 57.75 1192.99 58.75C1186.32 69.4167 1180.24 80.0833 1174.74 90.75C1169.4 101.417 1164.74 112.083 1160.74 122.75C1153.4 141.917 1149.74 156.667 1149.74 167C1149.74 170.667 1150.32 173.333 1151.49 175C1153.65 178.167 1154.74 180.5 1154.74 182C1154.74 182.667 1154.4 183 1153.74 183ZM1234.35 164.5C1230.68 164.833 1227.18 163.917 1223.85 161.75C1220.52 159.417 1218.85 156.833 1218.85 154C1218.85 148.833 1223.77 138.917 1233.6 124.25C1244.43 107.917 1249.85 98.5 1249.85 96C1249.85 94.5 1249.02 93.75 1247.35 93.75C1243.02 93.75 1234.68 100.167 1222.35 113C1215.02 120.333 1208.1 128.25 1201.6 136.75C1195.27 145.083 1189.27 153.917 1183.6 163.25C1183.27 163.583 1182.35 163.75 1180.85 163.75C1173.52 163.75 1170.18 162.75 1170.85 160.75C1173.68 153.083 1177.27 144.5 1181.6 135C1185.93 125.5 1191.1 114.917 1197.1 103.25C1216.93 64.9167 1230.43 43 1237.6 37.5C1239.6 36 1242.35 35.25 1245.85 35.25C1251.68 35.25 1254.6 36.4167 1254.6 38.75C1254.6 39.25 1254.1 39.9167 1253.1 40.75C1231.27 56.9167 1211.93 87.3333 1195.1 132C1195.27 131.833 1196.1 131.083 1197.6 129.75C1199.27 128.25 1201.6 126.083 1204.6 123.25C1207.77 120.417 1210.43 117.833 1212.6 115.5C1214.93 113 1216.93 110.833 1218.6 109C1226.77 99.8333 1235.77 93 1245.6 88.5C1247.93 87.5 1250.6 87 1253.6 87C1260.43 87 1263.85 89.5 1263.85 94.5C1263.85 97.6667 1262.27 101.417 1259.1 105.75C1241.1 130.917 1232.1 147.833 1232.1 156.5C1232.1 158.333 1232.68 159.5 1233.85 160C1236.52 161.167 1243.1 158.417 1253.6 151.75C1265.93 143.75 1276.43 133.833 1285.1 122C1286.93 119.5 1288.6 118.25 1290.1 118.25C1290.6 118.25 1290.85 118.417 1290.85 118.75C1290.85 119.583 1290.1 121.167 1288.6 123.5C1281.27 135 1271.1 145.167 1258.1 154C1246.43 161.667 1238.52 165.167 1234.35 164.5Z" fill="white"/>
</svg>
