<svg width="859" height="528" viewBox="0 0 859 528" fill="none" xmlns="http://www.w3.org/2000/svg">
<path d="M123.535 276.719C123.535 280.3 122.721 284.043 121.094 287.949C116.699 298.366 108.643 305.772 96.9238 310.166C103.923 311.468 110.107 313.666 115.479 316.758C127.035 323.92 132.812 334.011 132.812 347.031C132.812 355.332 130.29 362.982 125.244 369.981C115.479 383.327 100.098 390 79.1016 390H9.76562V383.653H29.2969V249.864H9.76562V243.516H78.3691C89.1113 243.516 98.3073 245.388 105.957 249.131C117.676 255.153 123.535 264.349 123.535 276.719ZM72.5098 249.864H50.293V307.237H72.0215C78.5319 307.237 84.2285 305.69 89.1113 302.598C97.4121 297.227 101.562 289.252 101.562 278.672C101.562 276.393 101.4 274.196 101.074 272.08C98.7956 257.269 89.2741 249.864 72.5098 249.864ZM76.6602 313.828H50.293V383.653H77.8809C85.3678 383.653 91.7969 381.374 97.168 376.817C105.306 369.818 109.375 360.052 109.375 347.52C109.375 342.149 108.398 337.184 106.445 332.627C101.4 320.095 91.4714 313.828 76.6602 313.828ZM267.334 287.461H262.451L259.033 275.987C258.87 275.336 258.626 274.522 258.301 273.545C253.255 257.757 244.873 249.864 233.154 249.864H194.092V310.899H244.385V317.979H194.092V383.653H233.154C235.921 383.653 238.525 383.246 240.967 382.432C248.942 379.665 254.964 371.364 259.033 357.53L262.451 346.055H267.334L266.113 390H153.564V383.653H173.096V249.864H153.564V243.516H266.113L267.334 287.461ZM429.199 390H376.465V383.653H392.334L374.023 336.289H322.998L304.688 383.653H316.65C317.464 383.653 318.278 383.734 319.092 383.897C321.696 384.385 322.998 386.42 322.998 390H279.541V383.653H294.922L349.609 243.516H358.643L414.551 383.653H422.852C423.665 383.653 424.479 383.734 425.293 383.897C427.897 384.385 429.199 386.42 429.199 390ZM371.338 329.209L348.389 270.127L325.684 329.209H371.338ZM431.641 249.864V243.516H491.455V249.864H472.168V333.604C472.168 344.183 473.307 353.135 475.586 360.459C480.794 377.224 493.327 385.606 513.184 385.606C515.137 385.606 517.09 385.524 519.043 385.362C542.48 382.92 554.199 365.912 554.199 334.336V249.864H534.668V243.516H582.275V249.864H562.744V332.871C562.744 341.986 561.849 350.124 560.059 357.285C554.036 380.723 536.702 392.442 508.057 392.442C470.459 392.279 451.497 373.155 451.172 335.069V249.864H431.641ZM686.523 390H619.385V383.653H642.578V249.864H629.395C616.862 250.84 607.992 259.304 602.783 275.254L598.877 291.612H592.041L593.262 243.516H713.867L715.088 291.612H708.252L704.346 275.254C704.183 274.929 704.102 274.44 704.102 273.789C699.707 257.839 690.918 249.864 677.734 249.864H663.574V383.653H680.176C680.99 383.653 681.803 383.734 682.617 383.897C685.221 384.385 686.523 386.42 686.523 390ZM822.021 390H762.207V383.653H781.738V331.651L735.84 249.864H722.412V243.516H777.588V249.864H759.033L797.852 320.908L834.961 249.864H815.43V243.516H858.887C858.887 244.33 858.805 245.143 858.643 245.957C858.154 248.561 856.12 249.864 852.539 249.864C847.493 250.026 843.099 252.305 839.355 256.699L802.49 329.209V383.653H815.674C816.488 383.653 817.301 383.734 818.115 383.897C820.719 384.385 822.021 386.42 822.021 390Z" fill="black" fill-opacity="0.7"/>
<path opacity="0.7" d="M222.072 412.491C216.959 414.774 213.577 413.135 211.927 407.575C211.187 405.082 210.756 402.235 210.633 399.033C210.692 395.749 210.746 392.794 210.794 390.167C211.742 374.544 213.615 357.857 216.413 340.106C219.154 322.163 222.466 304.4 226.348 286.816C230.173 269.041 234.156 252.497 238.299 237.186C237.479 235.815 236.898 234.554 236.556 233.404C236.272 232.445 236.135 231.637 236.147 230.981C236.468 229.969 236.988 227.891 237.71 224.746C238.431 221.601 239.181 218.553 239.959 215.6C240.863 212.373 241.441 210.487 241.692 209.94C242.264 208.382 243.743 206.745 246.129 205.028C248.698 203.23 250.713 202.005 252.174 201.353C253.087 200.945 254.514 200.526 256.454 200.094C258.519 199.389 259.752 199.708 260.15 201.05C260.321 201.625 260.315 201.953 260.132 202.035C258.519 207.749 256.842 213.6 255.103 219.588C253.49 225.302 251.877 231.016 250.263 236.73C244.621 258.14 239.732 279.647 235.596 301.253C231.585 322.585 228.025 344.042 224.916 365.624C224.24 369.617 223.637 374.554 223.107 380.436C222.761 386.236 223.128 390.958 224.209 394.601C225.29 398.244 227.2 399.454 229.94 398.231C232.314 397.171 234.706 395.127 237.116 392.097C239.526 389.067 241.696 385.926 243.627 382.676C245.684 379.152 247.369 376.12 248.684 373.579C250.18 370.957 251.203 369.523 251.751 369.279C252.116 369.116 252.412 369.418 252.64 370.185C252.868 370.951 252.815 372.169 252.483 373.837C252.277 375.232 252.013 376.436 251.693 377.447C249.6 382.941 246.081 388.854 241.136 395.188C236.19 401.521 231.514 406.323 227.107 409.593C226.433 410.11 225.64 410.573 224.727 410.981C223.87 411.58 222.986 412.084 222.072 412.491ZM322.662 261.41C322.114 261.655 321.55 261.147 320.969 259.886C320.513 258.352 320.229 257.394 320.115 257.01C319.944 256.435 319.666 255.148 319.28 253.149C318.893 251.15 319.128 249.851 319.984 249.252C322.427 247.727 324.842 246.106 327.228 244.39C329.614 242.673 331.972 240.861 334.301 238.953C334.609 238.598 335.129 238.257 335.859 237.931C336.773 237.524 337.371 237.799 337.656 238.758C338.282 240.867 337.658 243.643 335.784 247.085C334.035 250.254 331.837 253.298 329.187 256.218C326.663 258.864 324.488 260.595 322.662 261.41ZM328.126 364.499C319.177 368.493 313.28 365.697 310.435 356.111C309.24 352.084 308.565 347.717 308.409 343.01C308.435 338.221 308.639 333.679 309.019 329.384C309.411 324.432 310.013 319.495 310.827 314.571C311.641 309.648 312.455 304.725 313.269 299.802C313.671 297.669 313.98 295.576 314.199 293.524C314.543 291.199 314.915 288.97 315.316 286.837C315.831 285.087 317.225 283.162 319.497 281.062C321.77 278.962 323.636 277.586 325.097 276.934C325.28 276.853 325.308 276.948 325.183 277.222C325 277.303 324.909 277.344 324.909 277.344C325.091 277.262 325.211 277.318 325.268 277.509C325.519 276.963 325.919 276.567 326.467 276.323C327.197 275.997 327.768 276.176 328.178 276.862C328.531 277.355 328.793 277.89 328.964 278.465C329.362 279.807 329.412 282.065 329.113 285.238C328.996 288.33 328.577 291.449 327.856 294.593C327.26 297.465 326.409 299.473 325.301 300.619C324.852 305.38 323.969 310.768 322.653 316.784C321.518 322.719 320.595 328.668 319.883 334.631C319.114 340.403 319.412 345.589 320.778 350.191C322.371 355.56 325.907 357.021 331.386 354.575C333.943 353.434 336.426 351.348 338.836 348.318C341.429 345.207 343.845 341.848 346.084 338.243C348.266 334.446 350.106 331.237 351.603 328.614C353.282 325.91 354.396 324.436 354.944 324.192C355.126 324.11 355.246 324.165 355.303 324.357C355.531 325.124 355.513 326.109 355.249 327.312C354.929 328.324 354.643 329.103 354.392 329.649C353.111 333.695 351.127 338.163 348.442 343.053C345.7 347.751 342.542 352.093 338.967 356.077C335.575 359.979 331.961 362.787 328.126 364.499ZM433.642 423.577C426.52 426.756 420.786 426.601 416.441 423.112C411.971 419.897 408.712 414.837 406.663 407.935C404.672 401.224 403.595 392.368 403.432 381.367C403.144 370.639 403.472 359.201 404.418 347.054C405.18 334.988 406.176 323.361 407.406 312.173C408.636 300.984 409.71 291.711 410.629 284.352L405.85 288.114C405.189 287.975 404.659 287.234 404.26 285.892C403.748 284.166 403.727 282.005 404.197 279.406C404.61 276.616 405.285 274.361 406.222 272.64C405.926 272.338 405.39 271.926 404.614 271.403C404.021 270.799 403.668 270.306 403.554 269.922C403.383 269.347 403.544 268.841 404.035 268.405C404.469 267.777 404.868 267.381 405.234 267.218C406.329 266.729 407.385 266.801 408.4 267.433C409.358 267.874 410.253 268.452 411.086 269.166L412.918 268.022C415.877 248.028 419.259 228.062 423.063 208.124C426.81 187.995 431.367 168.156 436.734 148.606C435.914 147.236 435.333 145.975 434.991 144.825C434.707 143.866 434.57 143.058 434.582 142.402C434.903 141.39 435.423 139.312 436.145 136.167C436.866 133.022 437.616 129.973 438.394 127.02C439.115 123.876 439.602 122.03 439.853 121.484C440.608 119.844 442.178 118.166 444.564 116.449C447.133 114.651 449.148 113.426 450.609 112.774C451.522 112.366 452.949 111.947 454.889 111.515C456.954 110.81 458.187 111.128 458.585 112.471C458.756 113.046 458.75 113.374 458.567 113.456C456.885 119.635 455.083 125.759 453.161 131.828C451.365 137.624 449.626 143.612 447.944 149.791C443.08 168.247 438.575 186.869 434.43 205.656C430.285 224.443 426.772 243.273 423.894 262.146C425.48 261.22 427.096 260.391 428.739 259.657C430.383 258.923 432.027 258.19 433.67 257.456C438.236 255.418 443.526 253.382 449.541 251.348C455.682 249.042 461.137 247.909 465.906 247.952C466.146 248.062 466.688 248.146 467.532 248.203C468.376 248.26 468.856 248.481 468.969 248.864C469.14 249.439 468.615 250.108 467.393 250.871C466.297 251.36 465.567 251.686 465.202 251.849C463.923 252.42 462.616 252.894 461.281 253.273C459.946 253.652 458.547 254.168 457.086 254.82C450.877 257.592 444.81 260.843 438.885 264.573C432.96 268.304 427.183 272.185 421.555 276.218L421.537 277.203C427.9 282.614 434.153 289.051 440.297 296.513C446.385 303.784 451.89 311.532 456.813 319.757C461.736 327.982 465.477 336.408 468.038 345.036C469.005 348.296 469.79 351.637 470.392 355.06C471.051 358.674 471.407 362.315 471.462 365.982C471.456 372.932 469.511 380.315 465.625 388.129C461.979 396.054 457.198 403.291 451.282 409.84C445.549 416.307 439.669 420.886 433.642 423.577ZM437.603 414.969C441.621 413.175 445.218 409.615 448.394 404.289C451.57 398.963 454.21 393.224 456.315 387.074C458.476 381.115 459.775 376.084 460.212 371.98C460.706 368.069 460.657 364.073 460.067 359.994C459.66 355.833 458.916 351.931 457.834 348.288C454.534 337.168 449.208 326.191 441.857 315.359C434.689 304.445 427.525 294.941 420.365 286.846C418.714 298.005 417.312 310.356 416.16 323.899C415.191 337.359 414.918 350.726 415.341 364C415.764 377.273 417.541 389.183 420.67 399.728C421.353 402.029 422.424 404.591 423.882 407.414C425.214 410.511 427.044 412.842 429.371 414.41C431.754 416.168 434.498 416.355 437.603 414.969ZM542.037 271.291C538.019 273.085 535.172 273.596 533.495 272.824C531.819 272.053 530.354 269.558 529.103 265.34C527.737 260.738 527.177 255.017 527.422 248.177C527.849 241.254 528.379 235.373 529.01 230.531C528.953 230.339 528.834 230.284 528.651 230.366C528.594 230.174 528.537 229.982 528.48 229.79C528.196 228.832 528.242 227.942 528.619 227.123C529.179 226.221 529.556 225.402 529.751 224.663C530.209 222.722 530.575 220.821 530.851 218.961C531.126 217.101 531.43 215.337 531.762 213.669C533.33 207.106 535.595 200.45 538.555 193.7C541.699 186.868 545.845 181.326 550.994 177.073C552.833 175.601 554.665 174.458 556.491 173.642C556.857 173.479 557.25 173.412 557.672 173.441C558.22 173.196 558.551 173.266 558.665 173.649C558.836 174.224 558.487 175.14 557.619 176.396C556.933 177.571 556.465 178.431 556.213 178.978C554.031 182.775 551.973 188.036 550.039 194.762C548.288 201.406 546.892 206.806 545.85 210.963C549.823 208.321 553.762 205.911 557.666 203.734C561.752 201.476 565.862 199.641 569.993 198.231C571.092 194.267 571.808 189.713 572.143 184.569C572.604 179.152 572.265 174.527 571.127 170.692C570.501 168.583 569.858 167.459 569.196 167.32C568.717 167.099 567.656 167.356 566.012 168.09C565.647 168.253 565.07 168.402 564.283 168.536C563.495 168.67 563.016 168.45 562.846 167.875C562.618 167.108 563.241 166.07 564.714 164.761C566.187 163.452 567.808 162.294 569.577 161.287C571.29 160.088 572.42 159.367 572.968 159.122C577.899 156.921 581.076 158.217 582.498 163.01C583.295 165.695 583.44 169.321 582.935 173.889C582.555 178.185 581.661 182.492 580.254 186.811C578.973 190.857 577.436 194.04 575.643 196.361C576.191 196.116 577.372 195.915 579.186 195.756C581.126 195.324 582.912 195.07 584.544 194.993C586.358 194.835 587.379 195.139 587.607 195.906C587.778 196.481 587.344 197.109 586.305 197.79C585.209 198.279 584.478 198.605 584.113 198.768C582.469 199.502 580.797 200.14 579.097 200.682C577.339 201.032 575.639 201.574 573.995 202.308C568.881 204.59 563.79 207.297 558.722 210.428C553.836 213.478 549.006 216.719 544.234 220.152C543.432 224.419 542.641 229.766 541.86 236.195C541.261 242.542 541.588 247.824 542.84 252.042C544.831 258.753 549.114 260.641 555.689 257.706C560.438 255.586 564.605 252.206 568.191 247.565C571.961 242.843 575.222 237.804 577.976 232.449C580.73 227.094 582.896 222.545 584.474 218.801C586.051 215.057 587.023 213.103 587.388 212.94C587.936 212.695 588.324 212.957 588.551 213.723C589.234 216.024 588.781 219.375 587.191 223.776C585.545 227.985 584.099 231.128 582.854 233.203C577.998 241.234 572.036 248.672 564.967 255.519C558.082 262.284 550.438 267.541 542.037 271.291Z" fill="#D37E19"/>
</svg>
