<svg width="1308" height="340" viewBox="0 0 1308 340" fill="none" xmlns="http://www.w3.org/2000/svg">
<path d="M90.5 273C85.75 273 80.5833 272.667 75 272C69.4167 271.417 62.9167 270.25 55.5 268.5C57.1667 265.583 59.125 262.917 61.375 260.5C63.625 258 66.2083 256.125 69.125 254.875C72.125 253.625 75.5 253.333 79.25 254C81.25 254.25 83.0417 254.458 84.625 254.625C86.2917 254.708 88.25 254.75 90.5 254.75C96.3333 254.75 101.708 253.208 106.625 250.125C111.542 246.958 115.5 242.75 118.5 237.5C121.5 232.167 123 226.25 123 219.75C123 211.417 120.792 204.583 116.375 199.25C112.042 193.917 106.167 189.958 98.75 187.375C91.4167 184.792 83.25 183.5 74.25 183.5H45.5V270H21.75V90.5C28 89.25 34 88.25 39.75 87.5C45.5 86.6667 51.1667 86.0417 56.75 85.625C62.4167 85.2083 68.25 85 74.25 85C88.4167 85 100.167 87.1667 109.5 91.5C118.917 95.75 125.917 101.542 130.5 108.875C135.167 116.125 137.5 124.25 137.5 133.25C137.5 139.25 135.917 145.833 132.75 153C129.583 160.083 124.917 165.583 118.75 169.5L111.5 173L118.5 174.75C124.75 177.75 130.083 181.417 134.5 185.75C139 190 142.417 194.917 144.75 200.5C147.083 206 148.25 212.083 148.25 218.75C148.25 225.167 146.917 231.583 144.25 238C141.667 244.417 137.875 250.292 132.875 255.625C127.958 260.875 121.917 265.083 114.75 268.25C107.667 271.417 99.5833 273 90.5 273ZM45.5 166.25H74.25C82.5833 166.25 89.5833 164.792 95.25 161.875C101 158.958 105.333 155 108.25 150C111.25 145 112.75 139.417 112.75 133.25C112.75 127.583 111.292 122.5 108.375 118C105.458 113.5 101.125 109.958 95.375 107.375C89.7083 104.792 82.6667 103.5 74.25 103.5C69.75 103.5 64.9583 103.625 59.875 103.875C54.7917 104.125 50 104.5 45.5 105V166.25ZM182.895 270V88.25H286.395V106.25H206.645V252H290.145V270H182.895ZM216.145 183.5C217.311 180.333 218.811 177.417 220.645 174.75C222.478 172.083 224.77 169.958 227.52 168.375C230.27 166.792 233.645 166 237.645 166H277.895V183.5H216.145ZM313.682 270L379.182 88.25H402.432L467.932 270H442.432L391.682 123.5L389.932 116.25L388.182 123.5L360.182 203.75L357.432 209L360.432 208.5H394.182C398.182 208.5 401.515 209.333 404.182 211C406.932 212.667 409.182 214.875 410.932 217.625C412.765 220.375 414.265 223.333 415.432 226.5H352.432L337.432 270H313.682ZM563.313 273.5C549.146 273.5 537.021 270.583 526.938 264.75C516.938 258.833 509.271 250.583 503.938 240C498.688 229.417 496.063 217.083 496.063 203V88.25H519.563V207C519.563 221.75 523.521 233.542 531.438 242.375C539.438 251.125 550.063 255.5 563.313 255.5C576.563 255.5 587.146 251.125 595.063 242.375C603.063 233.542 607.063 221.75 607.063 207V88.25H630.563V203C630.563 217.083 627.729 229.417 622.063 240C616.396 250.583 608.479 258.833 598.313 264.75C588.229 270.583 576.563 273.5 563.313 273.5ZM705.646 270V106.25H652.646V88.25H782.896V106.25H729.646V270H705.646ZM855.383 270V192.75L793.133 88.25H820.133L878.633 185.75V270H855.383ZM885.633 176C883.633 173.417 881.883 170.417 880.383 167C878.966 163.583 878.216 159.958 878.133 156.125C878.049 152.292 879.133 148.417 881.383 144.5L912.883 88.25H939.133L885.633 176Z" fill="#2D2D2D"/>
<path opacity="0.7" d="M942.036 269.601L965.112 81.5112H987.862L964.786 269.601H942.036ZM1004.26 269.601L1020 141.313H1044L1028.26 269.601H1004.26ZM1034.74 118.98C1030.49 118.98 1027.08 117.574 1024.51 114.762C1022.03 111.867 1021.05 108.31 1021.57 104.092C1022.11 99.708 1023.96 96.11 1027.14 93.2978C1030.41 90.4028 1034.18 88.9553 1038.43 88.9553C1042.84 88.9553 1046.25 90.4028 1048.64 93.2978C1051.13 96.11 1052.11 99.708 1051.57 104.092C1051.05 108.31 1049.2 111.867 1046.01 114.762C1042.91 117.574 1039.16 118.98 1034.74 118.98ZM1070.98 269.601L1084.62 158.434H1063.12L1064.58 146.524L1086.72 141.313L1087.57 134.365C1088.91 123.447 1091.95 113.935 1096.7 105.829C1101.44 97.7229 1107.67 91.4367 1115.38 86.9702C1123.1 82.5037 1132.04 80.2705 1142.21 80.2705C1146.37 80.2705 1150.94 80.7254 1155.91 81.6352C1160.97 82.5451 1166.22 84.2407 1171.66 86.7221L1164.56 101.859C1159.55 99.8735 1155.33 98.5914 1151.9 98.0124C1148.56 97.4334 1145.55 97.1439 1142.89 97.1439C1138.22 97.1439 1133.49 98.3433 1128.69 100.742C1123.99 103.058 1119.87 106.78 1116.32 111.908C1112.87 116.954 1110.64 123.612 1109.62 131.883L1092.73 269.601H1070.98ZM1115.37 158.434C1116.92 155.291 1118.73 152.438 1120.79 149.874C1122.95 147.227 1125.45 145.159 1128.3 143.67C1131.25 142.099 1134.72 141.313 1138.72 141.313H1153.72L1151.62 158.434H1115.37ZM1219.83 272.082C1210.67 272.082 1202.54 270.387 1195.46 266.995C1188.46 263.604 1182.66 258.889 1178.07 252.851C1173.57 246.731 1170.41 239.576 1168.58 231.387C1166.76 223.116 1166.45 214.1 1167.65 204.34C1169.29 190.941 1173.17 179.361 1179.28 169.601C1185.49 159.758 1193.5 152.19 1203.32 146.896C1213.15 141.52 1224.35 138.831 1236.93 138.831C1245.52 138.831 1252.87 140.734 1258.98 144.539C1265.11 148.261 1269.77 153.389 1272.97 159.923C1276.26 166.375 1277.86 173.736 1277.76 182.008C1277.76 190.196 1275.84 198.716 1272 207.566H1199.5C1201.83 202.851 1204.77 198.922 1208.32 195.779C1211.97 192.554 1216.79 190.941 1222.79 190.941H1254.54C1256.07 184.572 1256.03 178.823 1254.41 173.695C1252.88 168.484 1250.14 164.348 1246.18 161.288C1242.3 158.228 1237.66 156.697 1232.24 156.697C1225.24 156.697 1218.85 158.558 1213.06 162.281C1207.27 166.003 1202.43 171.462 1198.55 178.658C1194.67 185.771 1192.11 194.415 1190.87 204.588C1189.66 214.431 1190.31 223.075 1192.81 230.519C1195.4 237.963 1199.43 243.794 1204.91 248.013C1210.41 252.148 1216.94 254.216 1224.53 254.216C1230.28 254.216 1235.81 253.637 1241.11 252.479C1246.43 251.238 1252.85 248.84 1260.37 245.283L1264.61 261.66C1256.12 265.713 1248.03 268.443 1240.36 269.849C1232.68 271.338 1225.83 272.082 1219.83 272.082Z" fill="#EEA148"/>
</svg>
