<svg width="2161" height="443" viewBox="0 0 2161 443" fill="none" xmlns="http://www.w3.org/2000/svg">
<path d="M114.25 226.25C111.75 226.25 109.417 225.917 107.25 225.25C105.083 224.583 102.917 223.417 100.75 221.75C99.75 220.75 98 218.917 95.5 216.25C93.1667 213.583 90.4167 210.583 87.25 207.25C84.25 203.75 81.1667 200.25 78 196.75C74.8333 193.083 72 189.833 69.5 187C67 184.167 65.1667 182.083 64 180.75C62.1667 178.75 60.5833 177.333 59.25 176.5C57.9167 175.667 55.8333 174.917 53 174.25L39.75 173.75V225H20.75V117C20.75 115.333 20.8333 114 21 113C21.3333 112 21.9167 111.25 22.75 110.75C23.75 110.25 25.25 110 27.25 110C29.4167 110 31.5 110 33.5 110C35.6667 110 37.75 110 39.75 110C39.75 112.333 39.75 115.75 39.75 120.25C39.75 124.583 39.75 129.25 39.75 134.25C39.75 139.083 39.75 143.75 39.75 148.25C39.75 152.583 39.75 155.917 39.75 158.25L53 157.5C55.3333 157.333 57.0833 156.833 58.25 156C59.4167 155.167 60.75 153.917 62.25 152.25C65.9167 148.25 69.75 144.083 73.75 139.75C77.9167 135.417 82.1667 131 86.5 126.5C90.8333 122 94.9167 117.667 98.75 113.5C100.75 112 102.833 110.917 105 110.25C107.167 109.583 109.667 109.25 112.5 109.25C114.833 109.25 116.75 109.417 118.25 109.75C119.75 110.083 121.25 110.5 122.75 111C122.417 111.167 121.25 112.333 119.25 114.5C117.417 116.5 115.25 118.833 112.75 121.5C110.25 124 108.083 126.25 106.25 128.25C101.917 132.25 97.3333 136.417 92.5 140.75C87.6667 145.083 83 149.417 78.5 153.75C74.1667 157.917 70.0833 161.833 66.25 165.5L67 161.5C69.3333 163.333 72.5833 166.417 76.75 170.75C81.0833 174.917 86 179.917 91.5 185.75C97 191.417 102.75 197.417 108.75 203.75C114.75 210.083 120.583 216 126.25 221.5C125.917 222 125.167 222.667 124 223.5C122.833 224.167 121.5 224.75 120 225.25C118.5 225.917 116.583 226.25 114.25 226.25ZM201.686 226.75C191.686 226.75 182.852 226 175.186 224.5C167.519 223 160.936 220.25 155.436 216.25C150.102 212.083 146.019 206.083 143.186 198.25C140.352 190.417 138.936 180.083 138.936 167.25C138.936 154.25 140.436 143.833 143.436 136C146.602 128 151.019 122 156.686 118C162.352 114 169.102 111.333 176.936 110C184.936 108.667 193.852 108 203.686 108C213.519 108 222.269 108.75 229.936 110.25C237.602 111.583 244.102 114.333 249.436 118.5C254.936 122.5 259.102 128.417 261.936 136.25C264.769 144.083 266.186 154.417 266.186 167.25C266.186 180.417 264.602 190.917 261.436 198.75C258.436 206.583 254.102 212.583 248.436 216.75C242.936 220.75 236.186 223.417 228.186 224.75C220.352 226.083 211.519 226.75 201.686 226.75ZM202.436 216C209.436 216 215.686 215.417 221.186 214.25C226.686 212.917 231.269 210.583 234.936 207.25C238.769 203.917 241.602 199.083 243.436 192.75C245.436 186.25 246.436 177.75 246.436 167.25C246.436 156.917 245.436 148.583 243.436 142.25C241.602 135.75 238.769 130.833 234.936 127.5C231.269 124 226.686 121.667 221.186 120.5C215.686 119.333 209.436 118.75 202.436 118.75C195.269 118.75 188.936 119.333 183.436 120.5C178.102 121.667 173.602 124 169.936 127.5C166.269 130.833 163.436 135.75 161.436 142.25C159.602 148.583 158.686 156.917 158.686 167.25C158.686 177.75 159.602 186.25 161.436 192.75C163.436 199.083 166.269 203.917 169.936 207.25C173.602 210.583 178.102 212.917 183.436 214.25C188.936 215.417 195.269 216 202.436 216ZM290.344 207.5C293.844 209.833 298.344 211.583 303.844 212.75C309.51 213.75 315.344 214.417 321.344 214.75C327.51 214.917 332.844 215 337.344 215C339.01 215 340.927 215 343.094 215C345.26 215 347.177 214.917 348.844 214.75C355.51 214.583 361.344 213.833 366.344 212.5C371.344 211 375.26 208.583 378.094 205.25C380.927 201.75 382.344 196.833 382.344 190.5C382.344 182.833 380.344 177.833 376.344 175.5C372.344 173.167 366.51 172 358.844 172C356.344 172 353.677 172 350.844 172C348.01 172 345.01 172 341.844 172C338.677 172 335.01 172 330.844 172C326.177 172 321.427 171.833 316.594 171.5C311.76 171 307.344 169.917 303.344 168.25C299.344 166.417 296.177 163.667 293.844 160C291.51 156.167 290.344 150.75 290.344 143.75C290.344 135.583 291.76 129.167 294.594 124.5C297.594 119.833 301.76 116.417 307.094 114.25C312.427 112.083 318.51 110.667 325.344 110C332.344 109.333 339.76 109 347.594 109C352.26 109 357.51 109.083 363.344 109.25C369.344 109.417 374.927 109.833 380.094 110.5C385.427 111.167 389.594 112.333 392.594 114C395.26 114.333 397.26 115.167 398.594 116.5C400.094 117.833 400.844 119.5 400.844 121.5C400.844 122.167 400.844 123 400.844 124C400.844 124.833 400.844 125.667 400.844 126.5C400.844 127.333 400.844 127.917 400.844 128.25C399.344 126.583 396.844 125.25 393.344 124.25C389.844 123.25 385.844 122.5 381.344 122C377.01 121.333 372.76 120.917 368.594 120.75C364.427 120.417 361.01 120.25 358.344 120.25H343.594C337.594 120.25 332.01 120.75 326.844 121.75C321.677 122.75 317.51 124.833 314.344 128C311.344 131 309.844 135.833 309.844 142.5C309.844 147.667 310.844 151.5 312.844 154C315.01 156.5 318.01 158.167 321.844 159C325.677 159.667 330.26 160 335.594 160C342.094 160 347.844 160 352.844 160C357.844 160 361.927 160 365.094 160C372.427 160 378.927 160.667 384.594 162C390.26 163.167 394.677 165.917 397.844 170.25C401.01 174.417 402.594 181 402.594 190C402.594 198.833 400.594 205.833 396.594 211C392.76 216.167 387.427 219.833 380.594 222C373.927 224.167 366.26 225.5 357.594 226C353.427 226.167 349.427 226.25 345.594 226.25C341.76 226.417 337.76 226.417 333.594 226.25C329.76 226.25 325.344 226.083 320.344 225.75C315.344 225.417 310.51 224.917 305.844 224.25C301.344 223.417 297.594 222.25 294.594 220.75C291.76 219.083 290.344 216.917 290.344 214.25V207.5ZM435.057 225V119.75C435.057 115.25 435.473 112.5 436.307 111.5C437.307 110.5 439.64 110 443.307 110H457.057L498.307 201.75L498.807 203.5L499.307 202.75L499.807 201L541.057 110H555.557C559.057 110 561.307 110.417 562.307 111.25C563.473 111.917 564.057 114 564.057 117.5V217.25C564.057 219.583 563.807 221.25 563.307 222.25C562.973 223.25 562.223 224 561.057 224.5C560.057 224.833 558.473 225 556.307 225H544.557V131L543.557 134.5L502.807 225H489.807L449.807 136.25L449.057 132.75V225H435.057ZM605.467 225V118C605.467 115 605.883 112.917 606.717 111.75C607.55 110.583 609.383 110 612.217 110H711.467V121H624.717V159.25H704.217V170.25H624.717V214H711.467V225H605.467ZM726.447 110H840.197V121.25H792.947V216.75C792.947 219.917 792.531 222.083 791.697 223.25C791.031 224.417 789.197 225 786.197 225H773.947V121.25H726.447V110ZM866.453 225C866.453 207.167 866.453 189.333 866.453 171.5C866.453 153.667 866.453 135.833 866.453 118C866.453 116.167 866.536 114.75 866.703 113.75C867.036 112.583 867.62 111.667 868.453 111C869.453 110.333 871.036 110 873.203 110H885.703V225H866.453ZM917.744 167.5C917.744 155.667 918.911 145.917 921.244 138.25C923.744 130.583 927.661 124.583 932.994 120.25C938.327 115.917 945.161 112.917 953.494 111.25C961.994 109.583 972.244 108.75 984.244 108.75C990.411 108.75 996.327 109 1001.99 109.5C1007.83 109.833 1013.74 110.5 1019.74 111.5C1024.74 112.333 1027.91 113.5 1029.24 115C1030.74 116.333 1031.49 118.25 1031.49 120.75V127C1028.33 125.5 1023.91 124.25 1018.24 123.25C1012.58 122.083 1006.74 121.25 1000.74 120.75C994.744 120.25 989.411 120 984.744 120C973.077 120 963.744 121.417 956.744 124.25C949.911 126.917 944.994 131.667 941.994 138.5C938.994 145.333 937.494 155 937.494 167.5C937.494 180 938.911 189.75 941.744 196.75C944.577 203.583 949.494 208.417 956.494 211.25C963.661 214.083 973.494 215.5 985.994 215.5C990.494 215.5 995.577 215.25 1001.24 214.75C1006.91 214.25 1012.41 213.5 1017.74 212.5C1023.08 211.333 1027.66 210.167 1031.49 209V214.75C1031.49 216.917 1030.74 218.833 1029.24 220.5C1027.74 222 1024.41 223.083 1019.24 223.75C1013.41 224.917 1007.58 225.667 1001.74 226C995.911 226.5 989.911 226.75 983.744 226.75C971.411 226.75 960.994 225.917 952.494 224.25C943.994 222.417 937.161 219.417 931.994 215.25C926.994 210.917 923.327 204.917 920.994 197.25C918.827 189.583 917.744 179.667 917.744 167.5ZM1153.56 226.25C1151.06 226.25 1148.72 225.917 1146.56 225.25C1144.39 224.583 1142.22 223.417 1140.06 221.75C1139.06 220.75 1137.31 218.917 1134.81 216.25C1132.47 213.583 1129.72 210.583 1126.56 207.25C1123.56 203.75 1120.47 200.25 1117.31 196.75C1114.14 193.083 1111.31 189.833 1108.81 187C1106.31 184.167 1104.47 182.083 1103.31 180.75C1101.47 178.75 1099.89 177.333 1098.56 176.5C1097.22 175.667 1095.14 174.917 1092.31 174.25L1079.06 173.75V225H1060.06V117C1060.06 115.333 1060.14 114 1060.31 113C1060.64 112 1061.22 111.25 1062.06 110.75C1063.06 110.25 1064.56 110 1066.56 110C1068.72 110 1070.81 110 1072.81 110C1074.97 110 1077.06 110 1079.06 110C1079.06 112.333 1079.06 115.75 1079.06 120.25C1079.06 124.583 1079.06 129.25 1079.06 134.25C1079.06 139.083 1079.06 143.75 1079.06 148.25C1079.06 152.583 1079.06 155.917 1079.06 158.25L1092.31 157.5C1094.64 157.333 1096.39 156.833 1097.56 156C1098.72 155.167 1100.06 153.917 1101.56 152.25C1105.22 148.25 1109.06 144.083 1113.06 139.75C1117.22 135.417 1121.47 131 1125.81 126.5C1130.14 122 1134.22 117.667 1138.06 113.5C1140.06 112 1142.14 110.917 1144.31 110.25C1146.47 109.583 1148.97 109.25 1151.81 109.25C1154.14 109.25 1156.06 109.417 1157.56 109.75C1159.06 110.083 1160.56 110.5 1162.06 111C1161.72 111.167 1160.56 112.333 1158.56 114.5C1156.72 116.5 1154.56 118.833 1152.06 121.5C1149.56 124 1147.39 126.25 1145.56 128.25C1141.22 132.25 1136.64 136.417 1131.81 140.75C1126.97 145.083 1122.31 149.417 1117.81 153.75C1113.47 157.917 1109.39 161.833 1105.56 165.5L1106.31 161.5C1108.64 163.333 1111.89 166.417 1116.06 170.75C1120.39 174.917 1125.31 179.917 1130.81 185.75C1136.31 191.417 1142.06 197.417 1148.06 203.75C1154.06 210.083 1159.89 216 1165.56 221.5C1165.22 222 1164.47 222.667 1163.31 223.5C1162.14 224.167 1160.81 224.75 1159.31 225.25C1157.81 225.917 1155.89 226.25 1153.56 226.25ZM1190.92 225V118C1190.92 115 1191.33 112.917 1192.17 111.75C1193 110.583 1194.83 110 1197.67 110H1296.92V121H1210.17V159.25H1289.67V170.25H1210.17V214H1296.92V225H1190.92ZM1234.67 94.75L1260.17 71L1269.17 77.75L1242.92 94.75H1234.67ZM1383.61 207.5C1387.11 209.833 1391.61 211.583 1397.11 212.75C1402.77 213.75 1408.61 214.417 1414.61 214.75C1420.77 214.917 1426.11 215 1430.61 215C1432.27 215 1434.19 215 1436.36 215C1438.52 215 1440.44 214.917 1442.11 214.75C1448.77 214.583 1454.61 213.833 1459.61 212.5C1464.61 211 1468.52 208.583 1471.36 205.25C1474.19 201.75 1475.61 196.833 1475.61 190.5C1475.61 182.833 1473.61 177.833 1469.61 175.5C1465.61 173.167 1459.77 172 1452.11 172C1449.61 172 1446.94 172 1444.11 172C1441.27 172 1438.27 172 1435.11 172C1431.94 172 1428.27 172 1424.11 172C1419.44 172 1414.69 171.833 1409.86 171.5C1405.02 171 1400.61 169.917 1396.61 168.25C1392.61 166.417 1389.44 163.667 1387.11 160C1384.77 156.167 1383.61 150.75 1383.61 143.75C1383.61 135.583 1385.02 129.167 1387.86 124.5C1390.86 119.833 1395.02 116.417 1400.36 114.25C1405.69 112.083 1411.77 110.667 1418.61 110C1425.61 109.333 1433.02 109 1440.86 109C1445.52 109 1450.77 109.083 1456.61 109.25C1462.61 109.417 1468.19 109.833 1473.36 110.5C1478.69 111.167 1482.86 112.333 1485.86 114C1488.52 114.333 1490.52 115.167 1491.86 116.5C1493.36 117.833 1494.11 119.5 1494.11 121.5C1494.11 122.167 1494.11 123 1494.11 124C1494.11 124.833 1494.11 125.667 1494.11 126.5C1494.11 127.333 1494.11 127.917 1494.11 128.25C1492.61 126.583 1490.11 125.25 1486.61 124.25C1483.11 123.25 1479.11 122.5 1474.61 122C1470.27 121.333 1466.02 120.917 1461.86 120.75C1457.69 120.417 1454.27 120.25 1451.61 120.25H1436.86C1430.86 120.25 1425.27 120.75 1420.11 121.75C1414.94 122.75 1410.77 124.833 1407.61 128C1404.61 131 1403.11 135.833 1403.11 142.5C1403.11 147.667 1404.11 151.5 1406.11 154C1408.27 156.5 1411.27 158.167 1415.11 159C1418.94 159.667 1423.52 160 1428.86 160C1435.36 160 1441.11 160 1446.11 160C1451.11 160 1455.19 160 1458.36 160C1465.69 160 1472.19 160.667 1477.86 162C1483.52 163.167 1487.94 165.917 1491.11 170.25C1494.27 174.417 1495.86 181 1495.86 190C1495.86 198.833 1493.86 205.833 1489.86 211C1486.02 216.167 1480.69 219.833 1473.86 222C1467.19 224.167 1459.52 225.5 1450.86 226C1446.69 226.167 1442.69 226.25 1438.86 226.25C1435.02 226.417 1431.02 226.417 1426.86 226.25C1423.02 226.25 1418.61 226.083 1413.61 225.75C1408.61 225.417 1403.77 224.917 1399.11 224.25C1394.61 223.417 1390.86 222.25 1387.86 220.75C1385.02 219.083 1383.61 216.917 1383.61 214.25V207.5ZM1547.32 110V214H1624.07V225H1528.32V118.25C1528.32 116.417 1528.4 114.917 1528.57 113.75C1528.74 112.583 1529.32 111.667 1530.32 111C1531.32 110.333 1532.9 110 1535.07 110H1547.32ZM1755.46 175.75C1755.46 182.917 1755.13 189.583 1754.46 195.75C1753.79 201.75 1751.71 207 1748.21 211.5C1744.88 216 1739.38 219.5 1731.71 222C1724.21 224.5 1713.54 225.75 1699.71 225.75C1688.71 225.75 1679.71 225 1672.71 223.5C1665.88 221.833 1660.54 219.5 1656.71 216.5C1653.04 213.5 1650.38 210 1648.71 206C1647.04 202 1645.96 197.583 1645.46 192.75C1645.13 187.75 1644.96 182.583 1644.96 177.25V120C1644.96 117.333 1645.04 115.25 1645.21 113.75C1645.38 112.25 1646.04 111.25 1647.21 110.75C1648.38 110.25 1650.13 110 1652.46 110H1664.21V185.75C1664.21 193.25 1665.38 199.083 1667.71 203.25C1670.21 207.25 1674.04 210.083 1679.21 211.75C1684.54 213.417 1691.38 214.25 1699.71 214.25C1712.71 214.25 1722.04 212.083 1727.71 207.75C1733.54 203.25 1736.46 195.917 1736.46 185.75V110H1747.71C1750.21 110 1752.04 110.25 1753.21 110.75C1754.38 111.25 1755.04 112.25 1755.21 113.75C1755.38 115.25 1755.46 117.333 1755.46 120V175.75ZM1808.18 71H1816.43L1833.18 86.25L1849.68 71H1858.68L1836.68 94.75H1829.93L1808.18 71ZM1804.43 213.75H1888.18C1888.18 216.417 1888.1 218.5 1887.93 220C1887.76 221.5 1887.35 222.667 1886.68 223.5C1886.01 224.167 1884.93 224.583 1883.43 224.75C1882.1 224.917 1880.1 225 1877.43 225H1778.68V213C1778.85 213 1780.26 211.5 1782.93 208.5C1785.6 205.5 1789.18 201.5 1793.68 196.5C1798.18 191.333 1803.1 185.75 1808.43 179.75C1813.93 173.583 1819.51 167.333 1825.18 161C1830.85 154.667 1836.1 148.75 1840.93 143.25C1845.93 137.583 1850.18 132.833 1853.68 129C1855.51 127.167 1857.1 125.583 1858.43 124.25C1859.76 122.75 1860.68 121.75 1861.18 121.25H1783.18C1783.18 118.417 1783.26 116.25 1783.43 114.75C1783.6 113.083 1784.18 111.917 1785.18 111.25C1786.35 110.417 1788.18 110 1790.68 110H1886.68C1886.68 110.167 1886.6 110.917 1886.43 112.25C1886.43 113.583 1886.18 115.333 1885.68 117.5C1885.35 119.5 1884.6 121.667 1883.43 124C1882.26 126.167 1880.6 128.25 1878.43 130.25L1806.93 212L1804.43 213.75ZM1977.31 225.5C1965.81 225.5 1955.81 225.5 1947.31 225.5C1938.98 225.5 1931.98 225.417 1926.31 225.25C1920.81 225.25 1916.31 225.167 1912.81 225V121.5C1912.81 116.667 1913.81 113.583 1915.81 112.25C1917.98 110.917 1920.89 110.167 1924.56 110C1928.56 110 1932.31 110 1935.81 110C1939.31 109.833 1942.56 109.75 1945.56 109.75C1948.56 109.583 1951.56 109.5 1954.56 109.5C1957.56 109.5 1960.73 109.5 1964.06 109.5C1967.89 109.5 1971.81 109.583 1975.81 109.75C1979.81 109.75 1983.64 109.833 1987.31 110C1990.98 110 1993.89 110.083 1996.06 110.25C2005.39 110.917 2012.14 113.583 2016.31 118.25C2020.64 122.75 2022.81 129.333 2022.81 138C2022.81 144.5 2021.73 149.75 2019.56 153.75C2017.56 157.583 2014.98 160.333 2011.81 162C2008.64 163.667 2005.56 164.667 2002.56 165C2005.56 165 2008.48 165.333 2011.31 166C2014.31 166.5 2016.98 167.75 2019.31 169.75C2021.81 171.583 2023.81 174.417 2025.31 178.25C2026.81 181.917 2027.56 186.917 2027.56 193.25C2027.56 200.917 2026.14 207 2023.31 211.5C2020.48 215.833 2016.73 219 2012.06 221C2007.39 223 2002.06 224.25 1996.06 224.75C1990.06 225.25 1983.81 225.5 1977.31 225.5ZM1972.31 215.5C1976.81 215.5 1981.14 215.333 1985.31 215C1989.64 214.667 1993.48 213.833 1996.81 212.5C2000.31 211.167 2003.06 208.917 2005.06 205.75C2007.06 202.583 2008.06 198.167 2008.06 192.5C2008.06 184.333 2006.23 178.75 2002.56 175.75C1999.06 172.583 1992.06 171 1981.56 171H1942.56C1940.39 171 1938.98 170.167 1938.31 168.5C1937.64 166.833 1937.31 164.333 1937.31 161H1980.81C1984.81 161 1988.48 160.5 1991.81 159.5C1995.31 158.5 1998.14 156.417 2000.31 153.25C2002.48 149.917 2003.56 145.083 2003.56 138.75C2003.56 132.917 2002.23 128.417 1999.56 125.25C1996.89 121.917 1992.56 120 1986.56 119.5C1983.23 119.167 1979.56 119 1975.56 119C1971.56 118.833 1967.64 118.75 1963.81 118.75C1958.81 118.75 1954.06 118.75 1949.56 118.75C1945.23 118.75 1941.56 118.833 1938.56 119C1936.73 119 1935.14 119.583 1933.81 120.75C1932.64 121.75 1932.06 123.5 1932.06 126V215C1933.23 215 1934.73 215.083 1936.56 215.25C1938.56 215.25 1940.98 215.333 1943.81 215.5C1946.81 215.5 1950.56 215.5 1955.06 215.5C1959.73 215.5 1965.48 215.5 1972.31 215.5ZM2091.25 225V178.25L2049 116.25L2044.5 110H2070L2105 164.75L2140.5 110H2158L2152.5 117L2110.25 178.25V216.25C2110.42 218.417 2110.25 220.167 2109.75 221.5C2109.25 222.667 2108.42 223.583 2107.25 224.25C2106.09 224.75 2104.25 225 2101.75 225H2091.25Z" fill="white"/>
<path d="M1084.8 383V286.2C1084.8 284.467 1085.07 283.333 1085.6 282.8C1086.13 282.133 1087.2 281.8 1088.8 281.8H1094.4V349.2L1134.2 306.2C1135.27 305.133 1136.33 304.333 1137.4 303.8C1138.6 303.267 1140.07 303 1141.8 303C1143.13 303 1144.4 303 1145.6 303C1146.8 303 1147.87 303.067 1148.8 303.2C1148.4 303.467 1147.73 304 1146.8 304.8C1145.87 305.6 1144.87 306.467 1143.8 307.4C1142.87 308.333 1141.93 309.2 1141 310L1114.6 337.6L1148.6 376.4C1149.67 377.733 1150.67 378.933 1151.6 380C1152.67 380.933 1153.73 381.933 1154.8 383C1153.2 383.133 1151.6 383.2 1150 383.2C1148.53 383.2 1147.07 383.2 1145.6 383.2C1143.87 383.2 1142.53 382.933 1141.6 382.4C1140.67 381.867 1139.6 380.933 1138.4 379.6L1107.8 344.6L1094.4 358V383H1084.8ZM1198.5 384C1192.9 384 1187.77 383.6 1183.1 382.8C1178.57 381.867 1174.57 380.067 1171.1 377.4C1167.77 374.6 1165.17 370.467 1163.3 365C1161.43 359.533 1160.5 352.267 1160.5 343.2C1160.5 334.133 1161.43 326.867 1163.3 321.4C1165.17 315.933 1167.77 311.867 1171.1 309.2C1174.57 306.4 1178.57 304.6 1183.1 303.8C1187.77 302.867 1192.9 302.4 1198.5 302.4C1204.1 302.4 1209.23 302.867 1213.9 303.8C1218.57 304.6 1222.57 306.4 1225.9 309.2C1229.23 311.867 1231.83 315.933 1233.7 321.4C1235.57 326.867 1236.5 334.133 1236.5 343.2C1236.5 352.4 1235.57 359.733 1233.7 365.2C1231.83 370.667 1229.23 374.733 1225.9 377.4C1222.57 380.067 1218.57 381.867 1213.9 382.8C1209.23 383.6 1204.1 384 1198.5 384ZM1198.5 378.2C1204.37 378.2 1209.37 377.4 1213.5 375.8C1217.77 374.2 1220.97 370.933 1223.1 366C1225.37 360.933 1226.5 353.333 1226.5 343.2C1226.5 333.067 1225.37 325.533 1223.1 320.6C1220.97 315.533 1217.77 312.2 1213.5 310.6C1209.37 309 1204.37 308.2 1198.5 308.2C1192.77 308.2 1187.77 309 1183.5 310.6C1179.37 312.2 1176.17 315.533 1173.9 320.6C1171.63 325.533 1170.5 333.067 1170.5 343.2C1170.5 353.333 1171.63 360.933 1173.9 366C1176.17 370.933 1179.37 374.2 1183.5 375.8C1187.77 377.4 1192.77 378.2 1198.5 378.2ZM1284.23 384C1282.23 384 1279.49 383.933 1276.03 383.8C1272.69 383.667 1269.23 383.333 1265.63 382.8C1262.16 382.267 1259.09 381.467 1256.43 380.4C1255.36 380 1254.49 379.6 1253.83 379.2C1253.29 378.667 1252.89 377.867 1252.63 376.8C1252.49 375.733 1252.43 374.267 1252.43 372.4C1254.96 374 1258.16 375.2 1262.03 376C1266.03 376.8 1269.96 377.333 1273.83 377.6C1277.83 377.733 1281.03 377.8 1283.43 377.8C1287.83 377.8 1292.03 377.667 1296.03 377.4C1300.16 377 1303.76 376.2 1306.83 375C1309.89 373.667 1312.29 371.733 1314.03 369.2C1315.89 366.667 1316.83 363.333 1316.83 359.2C1316.83 353.067 1315.23 349.2 1312.03 347.6C1308.96 345.867 1304.69 345 1299.23 345H1279.83C1275.29 345 1270.89 344.733 1266.63 344.2C1262.49 343.533 1259.03 341.867 1256.23 339.2C1253.56 336.533 1252.23 332.067 1252.23 325.8C1252.23 318.867 1253.89 313.733 1257.23 310.4C1260.56 306.933 1265.23 304.733 1271.23 303.8C1277.23 302.733 1284.16 302.2 1292.03 302.2C1294.96 302.2 1298.43 302.333 1302.43 302.6C1306.56 302.733 1310.56 303.133 1314.43 303.8C1316.83 304.067 1318.83 304.533 1320.43 305.2C1322.03 305.733 1323.23 306.4 1324.03 307.2C1324.83 308 1325.23 309.2 1325.23 310.8V314.4C1323.89 312.933 1321.89 311.8 1319.23 311C1316.56 310.2 1313.49 309.6 1310.03 309.2C1306.69 308.8 1303.23 308.533 1299.63 308.4C1296.16 308.267 1292.89 308.2 1289.83 308.2C1285.16 308.2 1280.63 308.533 1276.23 309.2C1271.83 309.733 1268.23 311.2 1265.43 313.6C1262.76 315.867 1261.43 319.733 1261.43 325.2C1261.43 329.333 1262.29 332.4 1264.03 334.4C1265.76 336.267 1268.16 337.467 1271.23 338C1274.29 338.533 1277.76 338.8 1281.63 338.8H1300.83C1305.76 338.8 1310.16 339.267 1314.03 340.2C1317.89 341 1320.89 342.867 1323.03 345.8C1325.29 348.6 1326.43 353.133 1326.43 359.4C1326.43 366.333 1324.56 371.6 1320.83 375.2C1317.09 378.667 1312.03 381 1305.63 382.2C1299.36 383.4 1292.23 384 1284.23 384ZM1349.56 383C1347.69 383 1346.42 382.733 1345.76 382.2C1345.22 381.533 1344.96 380.333 1344.96 378.6V309.4C1345.76 309 1346.96 308.467 1348.56 307.8C1350.29 307 1352.42 306.2 1354.96 305.4C1357.49 304.6 1360.49 303.933 1363.96 303.4C1367.56 302.867 1371.69 302.6 1376.36 302.6C1380.62 302.6 1384.36 303 1387.56 303.8C1390.89 304.467 1393.69 305.667 1395.96 307.4C1398.22 309.133 1400.09 311.333 1401.56 314H1399.16C1400.22 312 1401.69 310.267 1403.56 308.8C1405.56 307.333 1407.82 306.133 1410.36 305.2C1412.89 304.267 1415.56 303.6 1418.36 303.2C1421.29 302.667 1424.09 302.4 1426.76 302.4C1433.82 302.4 1439.29 303.2 1443.16 304.8C1447.16 306.267 1449.96 308.667 1451.56 312C1453.29 315.2 1454.16 319.467 1454.16 324.8V378.8C1454.16 380.4 1453.82 381.533 1453.16 382.2C1452.62 382.733 1451.56 383 1449.96 383H1444.56C1444.56 373.267 1444.56 363.533 1444.56 353.8C1444.56 344.067 1444.56 334.333 1444.56 324.6C1444.56 318.467 1443.02 314.2 1439.96 311.8C1436.89 309.4 1432.22 308.2 1425.96 308.2C1423.02 308.2 1419.89 308.6 1416.56 309.4C1413.36 310.067 1410.56 311.133 1408.16 312.6C1405.76 314.067 1404.56 315.733 1404.56 317.6V383H1394.96V318.4C1394.96 315.867 1393.09 313.6 1389.36 311.6C1385.76 309.467 1381.29 308.4 1375.96 308.4C1372.49 308.4 1369.16 308.667 1365.96 309.2C1362.89 309.733 1360.29 310.467 1358.16 311.4C1356.16 312.333 1354.96 313.533 1354.56 315V383H1349.56ZM1514.75 384.4C1507.55 384.4 1501.41 383.867 1496.35 382.8C1491.28 381.6 1487.21 379.533 1484.15 376.6C1481.08 373.533 1478.81 369.333 1477.35 364C1476.01 358.667 1475.35 351.8 1475.35 343.4C1475.35 333.933 1476.48 326.2 1478.75 320.2C1481.01 314.067 1485.01 309.533 1490.75 306.6C1496.61 303.667 1504.81 302.2 1515.35 302.2C1523.48 302.2 1530.01 303.333 1534.95 305.6C1539.88 307.733 1543.41 311.2 1545.55 316C1547.81 320.8 1548.95 326.933 1548.95 334.4V344.8H1492.35C1492.35 343.467 1492.68 342.333 1493.35 341.4C1494.01 340.467 1495.21 340 1496.95 340H1540.35L1540.15 334C1539.88 324.933 1537.88 318.4 1534.15 314.4C1530.41 310.267 1524.08 308.2 1515.15 308.2C1507.55 308.2 1501.55 309.4 1497.15 311.8C1492.75 314.067 1489.61 317.733 1487.75 322.8C1486.01 327.867 1485.15 334.733 1485.15 343.4C1485.15 352.867 1486.08 360.067 1487.95 365C1489.95 369.933 1493.21 373.333 1497.75 375.2C1502.28 376.933 1508.41 377.8 1516.15 377.8C1518.68 377.8 1521.48 377.733 1524.55 377.6C1527.75 377.467 1530.88 377.2 1533.95 376.8C1537.01 376.4 1539.81 376 1542.35 375.6C1544.88 375.067 1546.68 374.533 1547.75 374V376C1547.75 377.067 1547.35 378.133 1546.55 379.2C1545.88 380.133 1544.35 380.933 1541.95 381.6C1538.75 382.533 1534.81 383.2 1530.15 383.6C1525.61 384.133 1520.48 384.4 1514.75 384.4ZM1585.98 383.6C1582.24 383.6 1579.24 383.067 1576.98 382C1574.84 380.933 1573.24 379.133 1572.18 376.6C1571.24 374.067 1570.78 370.533 1570.78 366V309H1563.38V303.2H1570.78V287.6C1570.78 286 1570.91 284.8 1571.18 284C1571.44 283.2 1571.84 282.667 1572.38 282.4C1573.04 282.133 1573.91 282 1574.98 282H1580.58C1580.58 282.133 1580.51 282.667 1580.38 283.6C1580.38 284.4 1580.38 285.733 1580.38 287.6V303.2H1598.78V309H1580.38V364.6C1580.38 369.8 1580.91 373.467 1581.98 375.6C1583.04 377.6 1585.38 378.6 1588.98 378.6C1590.58 378.6 1592.04 378.467 1593.38 378.2C1594.84 377.933 1595.91 377.667 1596.58 377.4V382.4C1595.78 382.533 1594.44 382.733 1592.58 383C1590.71 383.4 1588.51 383.6 1585.98 383.6ZM1648.31 384C1642.71 384 1637.57 383.6 1632.91 382.8C1628.37 381.867 1624.37 380.067 1620.91 377.4C1617.57 374.6 1614.97 370.467 1613.11 365C1611.24 359.533 1610.31 352.267 1610.31 343.2C1610.31 334.133 1611.24 326.867 1613.11 321.4C1614.97 315.933 1617.57 311.867 1620.91 309.2C1624.37 306.4 1628.37 304.6 1632.91 303.8C1637.57 302.867 1642.71 302.4 1648.31 302.4C1653.91 302.4 1659.04 302.867 1663.71 303.8C1668.37 304.6 1672.37 306.4 1675.71 309.2C1679.04 311.867 1681.64 315.933 1683.51 321.4C1685.37 326.867 1686.31 334.133 1686.31 343.2C1686.31 352.4 1685.37 359.733 1683.51 365.2C1681.64 370.667 1679.04 374.733 1675.71 377.4C1672.37 380.067 1668.37 381.867 1663.71 382.8C1659.04 383.6 1653.91 384 1648.31 384ZM1648.31 378.2C1654.17 378.2 1659.17 377.4 1663.31 375.8C1667.57 374.2 1670.77 370.933 1672.91 366C1675.17 360.933 1676.31 353.333 1676.31 343.2C1676.31 333.067 1675.17 325.533 1672.91 320.6C1670.77 315.533 1667.57 312.2 1663.31 310.6C1659.17 309 1654.17 308.2 1648.31 308.2C1642.57 308.2 1637.57 309 1633.31 310.6C1629.17 312.2 1625.97 315.533 1623.71 320.6C1621.44 325.533 1620.31 333.067 1620.31 343.2C1620.31 353.333 1621.44 360.933 1623.71 366C1625.97 370.933 1629.17 374.2 1633.31 375.8C1637.57 377.4 1642.57 378.2 1648.31 378.2ZM1722.63 383.6C1717.43 383.6 1713.7 382.333 1711.43 379.8C1709.17 377.133 1708.03 372.467 1708.03 365.8V287.6C1708.03 286.267 1708.1 285.2 1708.23 284.4C1708.5 283.6 1708.9 283 1709.43 282.6C1710.1 282.2 1711.1 282 1712.43 282H1717.83C1717.83 282.133 1717.77 282.867 1717.63 284.2C1717.5 285.4 1717.43 287.133 1717.43 289.4V364C1717.43 369.067 1717.97 372.8 1719.03 375.2C1720.23 377.467 1722.5 378.6 1725.83 378.6C1726.63 378.6 1727.9 378.467 1729.63 378.2C1731.37 377.933 1732.5 377.733 1733.03 377.6V382.4C1732.23 382.533 1731.03 382.733 1729.43 383C1727.83 383.4 1725.57 383.6 1722.63 383.6ZM1782.29 384C1776.69 384 1771.56 383.6 1766.89 382.8C1762.36 381.867 1758.36 380.067 1754.89 377.4C1751.56 374.6 1748.96 370.467 1747.09 365C1745.22 359.533 1744.29 352.267 1744.29 343.2C1744.29 334.133 1745.22 326.867 1747.09 321.4C1748.96 315.933 1751.56 311.867 1754.89 309.2C1758.36 306.4 1762.36 304.6 1766.89 303.8C1771.56 302.867 1776.69 302.4 1782.29 302.4C1787.89 302.4 1793.02 302.867 1797.69 303.8C1802.36 304.6 1806.36 306.4 1809.69 309.2C1813.02 311.867 1815.62 315.933 1817.49 321.4C1819.36 326.867 1820.29 334.133 1820.29 343.2C1820.29 352.4 1819.36 359.733 1817.49 365.2C1815.62 370.667 1813.02 374.733 1809.69 377.4C1806.36 380.067 1802.36 381.867 1797.69 382.8C1793.02 383.6 1787.89 384 1782.29 384ZM1782.29 378.2C1788.16 378.2 1793.16 377.4 1797.29 375.8C1801.56 374.2 1804.76 370.933 1806.89 366C1809.16 360.933 1810.29 353.333 1810.29 343.2C1810.29 333.067 1809.16 325.533 1806.89 320.6C1804.76 315.533 1801.56 312.2 1797.29 310.6C1793.16 309 1788.16 308.2 1782.29 308.2C1776.56 308.2 1771.56 309 1767.29 310.6C1763.16 312.2 1759.96 315.533 1757.69 320.6C1755.42 325.533 1754.29 333.067 1754.29 343.2C1754.29 353.333 1755.42 360.933 1757.69 366C1759.96 370.933 1763.16 374.2 1767.29 375.8C1771.56 377.4 1776.56 378.2 1782.29 378.2ZM1875.02 405.6C1872.88 405.6 1870.08 405.467 1866.62 405.2C1863.15 405.067 1859.68 404.667 1856.22 404C1852.88 403.467 1850.02 402.667 1847.62 401.6C1845.35 400.667 1844.22 399.467 1844.22 398C1844.22 397.6 1844.22 397.067 1844.22 396.4C1844.22 395.733 1844.22 395.267 1844.22 395C1846.22 396.067 1848.95 397 1852.42 397.8C1856.02 398.6 1859.75 399.2 1863.62 399.6C1867.48 400 1870.82 400.2 1873.62 400.2C1881.48 400.2 1887.55 399 1891.82 396.6C1896.22 394.333 1899.22 390.467 1900.82 385C1902.55 379.533 1903.22 372.333 1902.82 363.4L1905.82 363.2C1904.35 367.867 1901.88 371.4 1898.42 373.8C1895.08 376.2 1891.15 377.933 1886.62 379C1882.08 379.933 1877.48 380.4 1872.82 380.4C1865.22 380.4 1858.88 379.533 1853.82 377.8C1848.88 375.933 1845.15 372.267 1842.62 366.8C1840.22 361.333 1839.02 353.267 1839.02 342.6C1839.02 333.8 1839.75 326.8 1841.22 321.6C1842.82 316.267 1845.22 312.267 1848.42 309.6C1851.62 306.8 1855.75 304.933 1860.82 304C1865.88 303.067 1872.02 302.6 1879.22 302.6C1882.15 302.6 1885.35 302.733 1888.82 303C1892.28 303.133 1895.68 303.333 1899.02 303.6C1902.35 303.867 1905.28 304.133 1907.82 304.4C1910.35 304.667 1912.15 304.867 1913.22 305C1913.08 305.533 1912.95 306.8 1912.82 308.8C1912.68 310.667 1912.62 312.8 1912.62 315.2C1912.62 317.6 1912.62 319.867 1912.62 322L1912.42 369.2C1912.42 378.133 1911.15 385.267 1908.62 390.6C1906.08 395.933 1902.08 399.733 1896.62 402C1891.28 404.4 1884.08 405.6 1875.02 405.6ZM1874.02 374C1879.48 374 1884.35 373.467 1888.62 372.4C1892.88 371.2 1896.28 369.267 1898.82 366.6C1901.35 363.933 1902.68 360.4 1902.82 356V310.8C1901.48 310.4 1898.55 310 1894.02 309.6C1889.48 309.067 1884.15 308.8 1878.02 308.8C1870.82 308.8 1865.08 309.667 1860.82 311.4C1856.68 313.133 1853.68 316.333 1851.82 321C1849.95 325.667 1849.02 332.4 1849.02 341.2C1849.02 350 1849.82 356.8 1851.42 361.6C1853.15 366.4 1855.82 369.667 1859.42 371.4C1863.02 373.133 1867.88 374 1874.02 374ZM1995.33 303.2V358C1995.33 365.2 1997.4 370.333 2001.53 373.4C2005.8 376.333 2012.2 377.8 2020.73 377.8C2030.07 377.8 2036.73 376.267 2040.73 373.2C2044.87 370 2046.93 364.933 2046.93 358V303.2C2047.07 303.2 2047.33 303.2 2047.73 303.2C2048.27 303.2 2048.8 303.2 2049.33 303.2C2049.87 303.2 2050.4 303.2 2050.93 303.2C2051.47 303.2 2051.8 303.2 2051.93 303.2C2053.27 303.2 2054.2 303.333 2054.73 303.6C2055.4 303.733 2055.87 304.133 2056.13 304.8C2056.4 305.467 2056.53 306.533 2056.53 308V355.6C2056.53 361.867 2055.53 367.133 2053.53 371.4C2051.67 375.533 2048.13 378.667 2042.93 380.8C2037.73 382.8 2030.27 383.8 2020.53 383.8C2011.87 383.8 2004.93 382.933 1999.73 381.2C1994.67 379.467 1991.07 376.6 1988.93 372.6C1986.8 368.467 1985.73 363 1985.73 356.2V308C1985.73 306.133 1986 304.867 1986.53 304.2C1987.07 303.533 1988.13 303.2 1989.73 303.2C1990.67 303.2 1991.53 303.2 1992.33 303.2C1993.27 303.2 1994.27 303.2 1995.33 303.2ZM2084.51 383C2082.51 383 2081.25 382.667 2080.71 382C2080.31 381.333 2080.11 379.867 2080.11 377.6V282.2H2089.71V306.2C2091.31 305.533 2093.58 305 2096.51 304.6C2099.45 304.2 2102.58 303.867 2105.91 303.6C2109.25 303.333 2112.31 303.2 2115.11 303.2C2122.85 303.2 2128.98 304 2133.51 305.6C2138.18 307.067 2141.58 309.267 2143.71 312.2C2145.85 315.133 2147.25 318.667 2147.91 322.8C2148.58 326.8 2148.91 331.333 2148.91 336.4V376.4C2148.91 378.4 2148.78 379.867 2148.51 380.8C2148.38 381.733 2147.91 382.333 2147.11 382.6C2146.45 382.867 2145.38 383 2143.91 383H2139.51V333.4C2139.51 326.6 2138.51 321.467 2136.51 318C2134.51 314.4 2131.58 312 2127.71 310.8C2123.98 309.467 2119.38 308.8 2113.91 308.8C2111.78 308.8 2109.11 308.933 2105.91 309.2C2102.71 309.333 2099.65 309.667 2096.71 310.2C2093.78 310.6 2091.45 311.133 2089.71 311.8V383H2084.51Z" fill="white"/>
</svg>
