<svg width="1600" height="452" viewBox="0 0 1600 452" fill="none" xmlns="http://www.w3.org/2000/svg">
<path fill-rule="evenodd" clip-rule="evenodd" d="M600 52H4H0V56V448V452H4H1596H1600V448V56V52H1596H1000V56H1596V448H4V56H600V52Z" fill="#D9D9D9"/>
<path d="M781.824 5.336C781.44 6.104 781.056 6.87199 780.544 7.63999C777.984 11.992 775.424 16.344 772.736 20.568C769.152 25.944 765.952 31.576 763.136 37.336C756.352 50.776 750.208 64.6 744.704 78.552C741.888 85.464 739.968 92.632 737.92 99.8C735.104 109.784 732.544 119.768 730.624 130.008C729.856 133.976 729.344 137.944 728.704 141.912C728.576 142.296 728.576 142.552 728.576 142.936C728.576 143.704 728.576 144.472 729.216 144.984C729.344 144.984 729.472 145.24 729.472 145.496C728.704 145.752 728.192 145.624 727.808 144.984C727.68 144.856 727.552 144.728 727.424 144.6C725.376 143.448 724.992 141.528 724.608 139.48C724.224 136.024 724.608 132.696 725.12 129.368C726.784 117.208 729.6 105.304 732.416 93.4C734.08 86.488 735.872 79.704 737.536 72.792C737.536 72.664 737.664 72.408 737.408 72.024C737.152 72.408 736.896 72.664 736.64 73.048C731.776 79.32 727.04 85.592 722.176 91.736C716.928 98.392 711.168 104.536 704.896 110.168C702.592 112.344 700.032 114.392 697.216 116.056C696.32 116.568 695.168 117.08 694.144 117.464C693.248 117.72 692.096 117.848 691.2 117.848C689.28 117.72 687.872 116.824 687.104 115.032C686.976 114.648 686.72 114.264 686.592 113.88C685.696 112.088 684.16 111.192 682.368 110.936C679.424 110.296 677.888 108.504 677.376 105.688C676.992 103.256 676.992 100.824 677.248 98.392C677.888 91.096 679.808 84.056 681.984 77.144C684.928 67.672 688.512 58.456 692.096 49.368C695.04 41.432 698.112 33.624 700.544 25.56C701.44 22.36 702.336 19.032 702.592 15.704C702.72 14.424 702.72 13.016 702.72 11.608C702.72 11.352 702.72 11.096 702.592 10.712C702.08 10.84 701.696 10.84 701.184 10.968C698.368 11.48 695.68 12.632 693.12 14.04C689.536 16.088 686.08 18.392 683.008 21.08C667.392 34.904 656 51.672 648.96 71.256C647.296 75.608 646.272 80.088 645.76 84.696C645.504 87.512 645.376 90.328 645.888 93.144C645.888 93.528 646.016 93.912 646.144 94.168C647.168 97.88 649.6 99.544 653.44 99.032C654.464 98.776 655.616 98.648 656.64 98.392C657.152 98.392 657.664 98.264 658.048 98.264C658.56 98.136 659.2 97.88 659.456 98.648C659.712 99.16 659.2 99.544 658.688 99.8C656 101.848 652.928 102.744 649.6 101.848C648.576 101.592 647.68 100.824 646.912 100.184C646.144 99.672 645.504 99.032 644.864 98.52C643.072 97.368 642.048 95.576 641.408 93.656C640.384 90.968 640.128 88.152 640 85.208C640 79.192 641.152 73.432 642.816 67.8C645.76 58.328 650.24 49.496 655.616 41.176C662.784 30.296 670.976 20.312 680.96 11.864C683.648 9.432 686.592 7.384 689.792 5.592C693.76 3.28799 698.112 2.13599 702.848 2.008C705.536 2.008 707.968 2.64799 710.272 3.92799C712.192 4.952 713.472 6.488 714.24 8.408C716.16 12.888 716.544 17.624 716.032 22.488C715.264 30.04 713.216 37.208 710.784 44.248C707.2 54.36 703.488 64.472 699.904 74.456C697.472 81.368 694.912 88.024 693.12 95.064C692.352 98.008 691.84 101.08 691.2 104.152C691.072 104.664 691.072 105.304 691.072 106.2C691.712 105.688 692.096 105.432 692.608 105.176C697.856 101.72 702.464 97.496 706.816 93.016C715.392 84.568 723.072 75.224 730.496 65.752C737.152 57.176 743.552 48.344 749.696 39.512C750.464 38.488 751.104 37.336 751.616 36.184C756.224 27.096 761.088 18.264 766.976 9.94399C768.768 7.384 770.688 4.952 772.608 2.392C773.888 0.855995 775.552 0.215996 777.6 0.215996C778.752 0.215996 779.776 0.215996 780.8 0.983994C780.928 0.983994 781.056 0.983994 781.184 1.11199C781.568 2.52 782.592 3.8 781.824 5.336ZM960.864 67.8C961.888 66.52 962.912 65.112 964.064 63.576C964.192 63.96 964.32 64.216 964.32 64.472C964.192 64.856 963.936 65.112 963.808 65.496C959.968 73.816 955.232 81.624 949.6 88.664C938.976 102.232 927.328 114.52 914.528 125.784C912.864 127.32 911.072 128.6 909.024 129.624C907.488 130.392 905.824 130.904 904.16 130.776C901.984 130.648 900.192 129.752 899.04 127.704C898.656 127.064 898.144 126.552 897.376 126.296C895.584 125.656 894.432 124.248 893.408 122.584C892.256 120.536 891.616 118.36 891.104 116.056C890.464 112.344 890.336 108.632 890.336 104.792C890.464 95.192 892.128 85.848 894.56 76.504C894.816 75.864 894.944 75.224 895.2 74.456C894.56 74.456 894.176 74.584 893.792 74.712C885.344 76.76 877.024 79.064 868.704 81.624C865.76 82.648 862.688 83.544 859.744 84.568C859.104 84.696 858.72 84.952 858.464 85.592C852.576 98.904 846.56 112.088 841.44 125.784C841.056 126.552 840.8 127.448 840.544 128.344C840.288 129.368 839.648 130.136 839.008 130.904C838.752 131.16 838.496 131.416 838.112 131.288C837.856 131.16 837.6 131.16 837.216 131.16C837.216 130.136 836.448 129.496 836.064 128.472C835.936 128.088 835.552 127.704 835.296 127.576C834.4 127.064 833.504 126.808 832.608 126.424C832.096 126.296 831.584 126.168 830.944 125.912C831.072 125.144 831.2 124.376 831.328 123.736C832.864 119.384 834.272 115.032 835.808 110.552C835.936 110.168 836.064 109.784 836.32 109.272C838.624 104.152 838.496 98.648 837.984 93.144C837.984 92.888 837.856 92.504 837.856 92.12C837.344 92.248 836.96 92.376 836.576 92.632C830.304 95.192 824.032 97.752 817.76 100.312C813.92 101.848 810.08 103.256 806.24 104.536C804.704 105.176 802.912 105.304 801.248 105.688C800.096 105.816 798.816 105.688 797.664 105.304C796.768 104.92 796 104.28 795.616 103.256C795.104 101.976 794.208 101.208 792.928 100.952C790.496 100.184 789.6 98.52 790.112 95.832C790.368 94.424 791.008 93.016 791.776 91.864C792.928 90.2 794.08 88.664 795.36 87.256C802.144 80.344 809.952 75.864 819.296 74.328C823.904 73.688 828.512 73.688 832.864 75.48C836.96 77.016 840.16 79.576 842.336 83.544C842.464 83.8 842.592 84.056 842.72 84.312C843.872 83.928 844.768 83.544 845.792 83.288C846.56 83.16 847.072 82.648 847.456 81.88C849.376 77.528 851.168 73.048 853.216 68.696C861.28 50.904 870.112 33.496 879.968 16.6C880.864 15.064 881.888 13.528 882.912 11.992C883.936 10.456 885.344 10.072 887.008 10.072C887.264 10.072 887.648 10.2 888.032 10.072C888.8 10.072 889.44 10.072 889.952 10.712C890.08 10.84 890.336 10.84 890.464 10.84C890.72 11.48 891.104 12.12 891.232 12.76C891.36 13.528 891.36 14.296 891.232 15.064C890.848 16.472 890.336 17.752 889.696 19.032C887.392 24.152 884.832 29.272 882.4 34.392C875.744 48.6 869.088 62.808 862.304 77.016C862.176 77.4 862.048 77.784 861.792 78.296C862.304 78.168 862.688 78.168 863.072 78.04C870.24 75.992 877.408 73.944 884.576 72.408C888.16 71.64 891.744 71 895.328 70.488C896.224 70.36 896.48 69.976 896.864 69.208C903.776 47.576 913.76 27.736 926.048 9.048C927.456 6.87199 928.992 4.952 930.528 2.90399C930.912 2.392 931.424 1.88 931.936 1.49599C932.32 1.24 932.576 0.983994 932.96 0.855995C934.368 0.599998 935.648 0.215996 937.056 0.343994C938.08 0.343994 939.104 0.215996 939.872 1.11199C940 1.24 940.384 1.24 940.512 1.24C940.896 2.13599 941.28 2.90399 941.536 3.672C941.664 4.43999 941.792 5.07999 941.664 5.84799C941.536 6.616 941.28 7.51199 940.896 8.28C939.744 10.584 938.72 12.76 937.568 14.936C932.704 23.896 927.712 32.856 923.232 42.072C918.88 50.904 915.04 59.992 911.456 69.208C911.328 69.592 911.2 70.104 911.072 70.488C912.864 71.128 914.656 71.896 915.936 73.176C915.936 73.304 915.936 73.432 915.808 73.56C915.04 73.176 914.144 72.792 913.376 72.536C912.48 72.28 911.584 72.152 910.688 71.896C910.432 72.28 910.304 72.408 910.304 72.664C907.104 81.24 904.288 89.816 902.24 98.648C900.96 104.536 899.808 110.552 899.936 116.568C900.064 118.232 900.192 119.768 900.448 121.304C900.704 122.456 901.088 123.48 901.856 124.248C902.624 125.016 903.392 125.4 904.416 124.888C906.464 124.12 908.384 123.096 910.048 121.688C914.784 118.104 919.008 113.88 923.36 109.784C932.192 101.208 940.384 91.992 948.448 82.648C952.672 77.656 956.768 72.792 960.864 67.8ZM827.872 89.176C830.56 88.28 833.376 87.384 836.32 86.488C835.936 85.592 835.552 85.08 835.296 84.44C834.528 82.904 833.376 82.136 831.968 81.624C828.768 80.856 825.696 80.728 822.624 81.368C814.176 83.16 807.136 87.512 800.992 93.912C800.096 94.936 799.456 96.216 798.688 97.496C798.432 97.88 798.304 98.392 798.048 99.16C798.944 99.032 799.584 99.032 800.224 98.904C802.144 98.264 804.192 97.752 806.112 96.984C813.408 94.424 820.576 91.864 827.872 89.176Z" fill="white"/>
<path fill-rule="evenodd" clip-rule="evenodd" d="M214.608 243.288L252.368 205.4H257.488L225.744 237.144L260.176 295H245.456L216.912 246.104L214.608 248.408V295H201.808V205.4H214.608V243.288ZM399.283 250.2C399.283 256.003 398.301 261.72 396.339 267.352C394.461 272.899 391.603 277.891 387.763 282.328C384.008 286.68 379.315 290.221 373.683 292.952C368.136 295.597 361.693 296.92 354.355 296.92C347.016 296.92 340.531 295.597 334.899 292.952C329.267 290.221 324.573 286.68 320.819 282.328C317.064 277.891 314.205 272.899 312.243 267.352C310.365 261.72 309.427 256.003 309.427 250.2C309.427 244.397 310.365 238.765 312.243 233.304C314.205 227.757 317.064 222.851 320.819 218.584C324.573 214.232 329.267 210.733 334.899 208.088C340.531 205.443 347.016 204.12 354.355 204.12C361.693 204.12 368.136 205.443 373.683 208.088C379.315 210.733 384.008 214.232 387.763 218.584C391.603 222.851 394.461 227.757 396.339 233.304C398.301 238.765 399.283 244.397 399.283 250.2ZM322.739 250.2C322.739 255.576 323.379 260.781 324.659 265.816C325.939 270.851 327.901 275.373 330.547 279.384C333.192 283.309 336.477 286.467 340.403 288.856C344.413 291.245 349.064 292.44 354.355 292.44C359.645 292.44 364.253 291.245 368.179 288.856C372.189 286.467 375.475 283.309 378.035 279.384C380.68 275.373 382.643 270.851 383.923 265.816C385.288 260.781 385.971 255.576 385.971 250.2C385.971 244.824 385.288 239.619 383.923 234.584C382.643 229.549 380.68 225.069 378.035 221.144C375.475 217.133 372.189 213.933 368.179 211.544C364.253 209.155 359.645 207.96 354.355 207.96C349.064 207.96 344.413 209.155 340.403 211.544C336.477 213.933 333.192 217.133 330.547 221.144C327.901 225.069 325.939 229.549 324.659 234.584C323.379 239.619 322.739 244.824 322.739 250.2ZM503.415 219.864C502.135 216.963 500.044 214.403 497.143 212.184C494.241 209.88 490.743 208.728 486.647 208.728C484.172 208.728 481.953 209.155 479.991 210.008C478.028 210.861 476.321 212.013 474.871 213.464C473.505 214.829 472.439 216.451 471.671 218.328C470.903 220.205 470.519 222.168 470.519 224.216C470.519 228.141 471.841 231.299 474.487 233.688C477.217 235.992 481.74 238.168 488.055 240.216C491.639 241.411 494.924 242.989 497.911 244.952C500.983 246.829 503.585 249.048 505.719 251.608C507.852 254.083 509.516 256.856 510.711 259.928C511.905 263 512.503 266.243 512.503 269.656C512.503 273.155 511.905 276.483 510.711 279.64C509.516 282.797 507.767 285.571 505.463 287.96C503.159 290.349 500.343 292.269 497.015 293.72C493.687 295.085 489.889 295.768 485.623 295.768C481.441 295.768 477.857 295.256 474.871 294.232C471.884 293.123 469.367 291.672 467.319 289.88C465.271 288.088 463.607 286.083 462.327 283.864C461.047 281.56 460.065 279.213 459.383 276.824L463.735 275.672C464.247 277.976 465.1 280.109 466.295 282.072C467.575 284.035 469.068 285.741 470.775 287.192C472.481 288.643 474.401 289.795 476.535 290.648C478.668 291.501 480.929 291.928 483.319 291.928C489.463 291.928 493.9 290.307 496.631 287.064C499.447 283.736 500.855 279.469 500.855 274.264C500.855 269.741 499.447 265.731 496.631 262.232C493.9 258.648 489.42 255.832 483.191 253.784C478.839 252.419 475.169 250.797 472.183 248.92C469.281 246.957 466.935 244.867 465.143 242.648C463.351 240.344 462.028 237.912 461.175 235.352C460.407 232.792 460.023 230.147 460.023 227.416C460.023 224.088 460.663 221.059 461.943 218.328C463.308 215.512 465.143 213.123 467.447 211.16C469.751 209.197 472.439 207.661 475.511 206.552C478.668 205.443 482.039 204.888 485.623 204.888C488.865 204.888 491.681 205.315 494.071 206.168C496.545 206.936 498.636 207.96 500.343 209.24C502.049 210.435 503.5 211.843 504.695 213.464C505.889 215 506.871 216.536 507.639 218.072L503.415 219.864ZM573.78 205.4H587.348L619.348 274.392L650.196 205.4H661.46V295H648.66V218.456L614.228 296.792L577.748 218.456V295H573.78V205.4ZM728.108 208H771.116V205.4H728.108V208ZM728.108 247H771.116V250H728.108V247ZM728.108 292V295H771.116V292H728.108ZM875.747 205.4V209.24H860.387V295H847.587V209.24H832.227V205.4H875.747ZM1017.53 250.2C1017.53 256.003 1016.55 261.72 1014.59 267.352C1012.71 272.899 1009.85 277.891 1006.01 282.328C1002.26 286.68 997.565 290.221 991.933 292.952C986.386 295.597 979.943 296.92 972.605 296.92C965.266 296.92 958.781 295.597 953.149 292.952C947.517 290.221 942.823 286.68 939.069 282.328C935.314 277.891 932.455 272.899 930.493 267.352C928.615 261.72 927.677 256.003 927.677 250.2C927.677 244.397 928.615 238.765 930.493 233.304C932.455 227.757 935.314 222.851 939.069 218.584C942.823 214.232 947.517 210.733 953.149 208.088C958.781 205.443 965.266 204.12 972.605 204.12C979.943 204.12 986.386 205.443 991.933 208.088C997.565 210.733 1002.26 214.232 1006.01 218.584C1009.85 222.851 1012.71 227.757 1014.59 233.304C1016.55 238.765 1017.53 244.397 1017.53 250.2ZM940.989 250.2C940.989 255.576 941.629 260.781 942.909 265.816C944.189 270.851 946.151 275.373 948.797 279.384C951.442 283.309 954.727 286.467 958.653 288.856C962.663 291.245 967.314 292.44 972.605 292.44C977.895 292.44 982.503 291.245 986.429 288.856C990.439 286.467 993.725 283.309 996.285 279.384C998.93 275.373 1000.89 270.851 1002.17 265.816C1003.54 260.781 1004.22 255.576 1004.22 250.2C1004.22 244.824 1003.54 239.619 1002.17 234.584C1000.89 229.549 998.93 225.069 996.285 221.144C993.725 217.133 990.439 213.933 986.429 211.544C982.503 209.155 977.895 207.96 972.605 207.96C967.314 207.96 962.663 209.155 958.653 211.544C954.727 213.933 951.442 217.133 948.797 221.144C946.151 225.069 944.189 229.549 942.909 234.584C941.629 239.619 940.989 244.824 940.989 250.2ZM1093.5 291.16H1125.63V295H1080.7V205.4H1093.5V291.16ZM1261.06 250.2C1261.06 256.003 1260.08 261.72 1258.11 267.352C1256.24 272.899 1253.38 277.891 1249.54 282.328C1245.78 286.68 1241.09 290.221 1235.46 292.952C1229.91 295.597 1223.47 296.92 1216.13 296.92C1208.79 296.92 1202.31 295.597 1196.67 292.952C1191.04 290.221 1186.35 286.68 1182.59 282.328C1178.84 277.891 1175.98 272.899 1174.02 267.352C1172.14 261.72 1171.2 256.003 1171.2 250.2C1171.2 244.397 1172.14 238.765 1174.02 233.304C1175.98 227.757 1178.84 222.851 1182.59 218.584C1186.35 214.232 1191.04 210.733 1196.67 208.088C1202.31 205.443 1208.79 204.12 1216.13 204.12C1223.47 204.12 1229.91 205.443 1235.46 208.088C1241.09 210.733 1245.78 214.232 1249.54 218.584C1253.38 222.851 1256.24 227.757 1258.11 233.304C1260.08 238.765 1261.06 244.397 1261.06 250.2ZM1184.51 250.2C1184.51 255.576 1185.15 260.781 1186.43 265.816C1187.71 270.851 1189.68 275.373 1192.32 279.384C1194.97 283.309 1198.25 286.467 1202.18 288.856C1206.19 291.245 1210.84 292.44 1216.13 292.44C1221.42 292.44 1226.03 291.245 1229.95 288.856C1233.96 286.467 1237.25 283.309 1239.81 279.384C1242.45 275.373 1244.42 270.851 1245.7 265.816C1247.06 260.781 1247.75 255.576 1247.75 250.2C1247.75 244.824 1247.06 239.619 1245.7 234.584C1244.42 229.549 1242.45 225.069 1239.81 221.144C1237.25 217.133 1233.96 213.933 1229.95 211.544C1226.03 209.155 1221.42 207.96 1216.13 207.96C1210.84 207.96 1206.19 209.155 1202.18 211.544C1198.25 213.933 1194.97 217.133 1192.32 221.144C1189.68 225.069 1187.71 229.549 1186.43 234.584C1185.15 239.619 1184.51 244.824 1184.51 250.2ZM1334.85 250.712C1334.85 255.747 1335.54 260.696 1336.9 265.56C1338.35 270.339 1340.44 274.605 1343.17 278.36C1345.99 282.115 1349.45 285.144 1353.54 287.448C1357.72 289.752 1362.59 290.904 1368.13 290.904C1373 290.904 1376.88 290.349 1379.78 289.24C1382.77 288.131 1384.94 287.064 1386.31 286.04V256.6H1361.35V252.76H1399.11V284.248C1397.57 285.443 1395.78 286.765 1393.73 288.216C1391.69 289.581 1389.3 290.861 1386.57 292.056C1383.92 293.165 1380.85 294.104 1377.35 294.872C1373.94 295.64 1370.01 296.024 1365.57 296.024C1358.15 296.024 1351.62 294.701 1345.99 292.056C1340.44 289.411 1335.79 285.955 1332.04 281.688C1328.37 277.336 1325.59 272.472 1323.72 267.096C1321.93 261.72 1321.03 256.259 1321.03 250.712C1321.03 244.568 1322.05 238.723 1324.1 233.176C1326.23 227.629 1329.26 222.765 1333.19 218.584C1337.11 214.317 1341.85 210.947 1347.4 208.472C1353.03 205.912 1359.39 204.632 1366.47 204.632C1373.81 204.632 1380.17 205.741 1385.54 207.96C1391 210.093 1395.53 212.653 1399.11 215.64L1396.55 218.84C1393.14 216.28 1389.04 214.189 1384.26 212.568C1379.48 210.947 1374.11 210.136 1368.13 210.136C1362.59 210.136 1357.72 211.245 1353.54 213.464C1349.36 215.597 1345.86 218.541 1343.05 222.296C1340.31 225.965 1338.27 230.275 1336.9 235.224C1335.54 240.088 1334.85 245.251 1334.85 250.712Z" fill="white"/>
</svg>
