<svg width="1198" height="431" viewBox="0 0 1198 431" fill="none" xmlns="http://www.w3.org/2000/svg">
<g filter="url(#filter0_f_90_68)">
<ellipse cx="479" cy="215.5" rx="329" ry="65.5" fill="#C53379"/>
</g>
<path d="M195.535 153.719C195.535 157.299 194.721 161.043 193.094 164.949C188.699 175.366 180.643 182.771 168.924 187.166C175.923 188.468 182.107 190.665 187.479 193.758C199.035 200.919 204.812 211.01 204.812 224.031C204.812 232.332 202.29 239.982 197.244 246.98C187.479 260.327 172.098 267 151.102 267H81.7656V260.652H101.297V126.863H81.7656V120.516H150.369C161.111 120.516 170.307 122.387 177.957 126.131C189.676 132.153 195.535 141.349 195.535 153.719ZM144.51 126.863H122.293V184.236H144.021C150.532 184.236 156.229 182.69 161.111 179.598C169.412 174.227 173.562 166.251 173.562 155.672C173.562 153.393 173.4 151.196 173.074 149.08C170.796 134.269 161.274 126.863 144.51 126.863ZM148.66 190.828H122.293V260.652H149.881C157.368 260.652 163.797 258.374 169.168 253.816C177.306 246.818 181.375 237.052 181.375 224.52C181.375 219.148 180.398 214.184 178.445 209.627C173.4 197.094 163.471 190.828 148.66 190.828ZM339.334 164.461H334.451L331.033 152.986C330.87 152.335 330.626 151.521 330.301 150.545C325.255 134.757 316.873 126.863 305.154 126.863H266.092V187.898H316.385V194.979H266.092V260.652H305.154C307.921 260.652 310.525 260.245 312.967 259.432C320.942 256.665 326.964 248.364 331.033 234.529L334.451 223.055H339.334L338.113 267H225.564V260.652H245.096V126.863H225.564V120.516H338.113L339.334 164.461ZM501.199 267H448.465V260.652H464.334L446.023 213.289H394.998L376.688 260.652H388.65C389.464 260.652 390.278 260.734 391.092 260.896C393.696 261.385 394.998 263.419 394.998 267H351.541V260.652H366.922L421.609 120.516H430.643L486.551 260.652H494.852C495.665 260.652 496.479 260.734 497.293 260.896C499.897 261.385 501.199 263.419 501.199 267ZM443.338 206.209L420.389 147.127L397.684 206.209H443.338ZM503.641 126.863V120.516H563.455V126.863H544.168V210.604C544.168 221.183 545.307 230.135 547.586 237.459C552.794 254.223 565.327 262.605 585.184 262.605C587.137 262.605 589.09 262.524 591.043 262.361C614.48 259.92 626.199 242.911 626.199 211.336V126.863H606.668V120.516H654.275V126.863H634.744V209.871C634.744 218.986 633.849 227.124 632.059 234.285C626.036 257.723 608.702 269.441 580.057 269.441C542.459 269.279 523.497 250.154 523.172 212.068V126.863H503.641ZM758.523 267H691.385V260.652H714.578V126.863H701.395C688.862 127.84 679.992 136.303 674.783 152.254L670.877 168.611H664.041L665.262 120.516H785.867L787.088 168.611H780.252L776.346 152.254C776.183 151.928 776.102 151.44 776.102 150.789C771.707 134.839 762.918 126.863 749.734 126.863H735.574V260.652H752.176C752.99 260.652 753.803 260.734 754.617 260.896C757.221 261.385 758.523 263.419 758.523 267ZM894.021 267H834.207V260.652H853.738V208.65L807.84 126.863H794.412V120.516H849.588V126.863H831.033L869.852 197.908L906.961 126.863H887.43V120.516H930.887C930.887 121.329 930.805 122.143 930.643 122.957C930.154 125.561 928.12 126.863 924.539 126.863C919.493 127.026 915.099 129.305 911.355 133.699L874.49 206.209V260.652H887.674C888.488 260.652 889.301 260.734 890.115 260.896C892.719 261.385 894.021 263.419 894.021 267Z" fill="white" fill-opacity="0.7"/>
<path opacity="0.7" d="M916.26 267.717C910.66 267.717 908.213 264.839 908.919 259.082C909.236 256.501 909.977 253.722 911.142 250.745C912.507 247.767 913.736 245.087 914.828 242.705C921.933 228.809 930.311 214.318 939.962 199.231C949.638 183.945 959.764 169.057 970.342 154.566C980.945 139.876 991.201 126.377 1001.11 114.069C1000.91 112.481 1000.88 111.092 1001.02 109.901C1001.14 108.908 1001.34 108.114 1001.61 107.519C1002.31 106.724 1003.62 105.037 1005.54 102.456C1007.45 99.8758 1009.36 97.3944 1011.25 95.0123C1013.37 92.4317 1014.65 90.9428 1015.1 90.5458C1016.24 89.3547 1018.25 88.4614 1021.13 87.8659C1024.2 87.2704 1026.54 86.9726 1028.14 86.9726C1029.14 86.9726 1030.61 87.1711 1032.56 87.5681C1034.74 87.7666 1035.74 88.5607 1035.57 89.9503C1035.5 90.5458 1035.36 90.8436 1035.16 90.8436C1031.4 95.4093 1027.53 100.074 1023.54 104.839C1019.78 109.404 1016.02 113.97 1012.26 118.536C998.544 135.806 985.476 153.474 973.06 171.538C960.868 189.405 949.039 207.568 937.574 226.03C935.36 229.405 932.837 233.673 930.003 238.834C927.37 243.995 925.822 248.462 925.359 252.233C924.897 256.005 926.165 257.891 929.165 257.891C931.765 257.891 934.775 256.998 938.194 255.211C941.613 253.424 944.857 251.439 947.925 249.256C951.217 246.874 953.973 244.789 956.192 243.003C958.611 241.216 960.121 240.323 960.721 240.323C961.121 240.323 961.272 240.72 961.175 241.514C961.077 242.308 960.543 243.4 959.573 244.789C958.827 245.98 958.105 246.973 957.407 247.767C953.296 251.936 947.709 255.906 940.646 259.678C933.583 263.449 927.379 265.931 922.033 267.122C921.208 267.32 920.296 267.42 919.296 267.42C918.272 267.618 917.26 267.717 916.26 267.717ZM1008.8 170.645C1008.2 170.645 1007.88 169.95 1007.85 168.561C1008.05 166.973 1008.17 165.98 1008.22 165.583C1008.29 164.988 1008.55 163.697 1008.99 161.712C1009.44 159.727 1010.17 158.635 1011.19 158.437C1014.04 158.04 1016.9 157.543 1019.78 156.948C1022.65 156.352 1025.54 155.658 1028.43 154.864C1028.86 154.665 1029.47 154.566 1030.27 154.566C1031.27 154.566 1031.71 155.062 1031.59 156.055C1031.32 158.238 1029.64 160.521 1026.55 162.903C1023.68 165.087 1020.45 166.973 1016.85 168.561C1013.48 169.95 1010.8 170.645 1008.8 170.645ZM972.66 267.122C962.86 267.122 958.569 262.159 959.787 252.233C960.298 248.065 961.422 243.797 963.158 239.429C965.093 235.062 967.093 230.993 969.155 227.221C971.491 222.854 974.015 218.586 976.726 214.417C979.438 210.248 982.149 206.079 984.861 201.911C986.08 200.124 987.199 198.338 988.218 196.551C989.462 194.566 990.693 192.68 991.913 190.893C993.083 189.504 995.129 188.313 998.051 187.32C1000.97 186.328 1003.23 185.831 1004.83 185.831C1005.03 185.831 1005.02 185.931 1004.8 186.129C1004.6 186.129 1004.5 186.129 1004.5 186.129C1004.7 186.129 1004.78 186.228 1004.76 186.427C1005.21 186.03 1005.73 185.831 1006.33 185.831C1007.13 185.831 1007.58 186.228 1007.69 187.022C1007.81 187.618 1007.84 188.213 1007.77 188.809C1007.6 190.199 1006.74 192.283 1005.2 195.062C1003.86 197.841 1002.23 200.521 1000.31 203.102C998.622 205.484 997.04 206.973 995.567 207.568C993.255 211.737 990.295 216.303 986.686 221.266C983.277 226.228 980.056 231.29 977.023 236.452C974.014 241.415 972.217 246.278 971.633 251.042C970.951 256.601 973.61 259.38 979.61 259.38C982.41 259.38 985.519 258.487 988.939 256.7C992.558 254.913 996.114 252.829 999.606 250.447C1003.12 247.866 1006.09 245.683 1008.51 243.896C1011.13 242.109 1012.74 241.216 1013.34 241.216C1013.54 241.216 1013.63 241.315 1013.6 241.514C1013.5 242.308 1013.09 243.201 1012.37 244.194C1011.68 244.988 1011.1 245.583 1010.65 245.98C1007.86 249.156 1004.26 252.432 999.848 255.807C995.459 258.983 990.83 261.663 985.962 263.846C981.294 266.03 976.86 267.122 972.66 267.122ZM985.831 364.194C978.031 364.194 972.835 361.713 970.244 356.75C967.429 351.985 966.459 346.03 967.336 338.884C968.188 331.936 970.736 323.4 974.978 313.276C978.996 303.35 983.862 293.028 989.577 282.308C995.092 271.588 1000.65 261.365 1006.24 251.638C1011.83 241.911 1016.52 233.871 1020.3 227.519L1014.42 229.008C1013.87 228.611 1013.68 227.717 1013.85 226.328C1014.06 224.541 1014.91 222.556 1016.38 220.372C1017.87 217.99 1019.39 216.204 1020.93 215.013C1020.78 214.615 1020.46 214.02 1019.95 213.226C1019.65 212.432 1019.52 211.836 1019.57 211.439C1019.65 210.844 1019.99 210.447 1020.62 210.248C1021.27 209.851 1021.79 209.653 1022.19 209.653C1023.39 209.653 1024.33 210.149 1025.01 211.142C1025.71 211.936 1026.3 212.829 1026.78 213.821L1028.92 213.524C1039.61 196.452 1050.68 179.578 1062.13 162.903C1073.6 146.03 1085.69 129.752 1098.42 114.069C1098.21 112.481 1098.18 111.092 1098.33 109.901C1098.45 108.908 1098.65 108.114 1098.92 107.519C1099.62 106.724 1100.93 105.037 1102.84 102.456C1104.76 99.8758 1106.66 97.3944 1108.56 95.0123C1110.47 92.4317 1111.66 90.9428 1112.1 90.5458C1113.45 89.3547 1115.56 88.4614 1118.43 87.8659C1121.51 87.2704 1123.84 86.9726 1125.44 86.9726C1126.44 86.9726 1127.92 87.1711 1129.87 87.5681C1132.05 87.7666 1133.05 88.5607 1132.88 89.9503C1132.8 90.5458 1132.67 90.8436 1132.47 90.8436C1128.46 95.8064 1124.36 100.67 1120.18 105.434C1116.22 110 1112.23 114.764 1108.22 119.727C1096.4 134.615 1084.83 149.801 1073.53 165.285C1062.24 180.769 1051.5 196.551 1041.33 212.63C1043.15 212.432 1044.96 212.333 1046.76 212.333C1048.56 212.333 1050.36 212.333 1052.16 212.333C1057.16 212.333 1062.83 212.63 1069.15 213.226C1075.7 213.623 1081.16 214.814 1085.51 216.799C1085.69 216.998 1086.15 217.295 1086.9 217.692C1087.66 218.089 1088.01 218.486 1087.96 218.883C1087.89 219.479 1087.14 219.876 1085.71 220.075C1084.51 220.075 1083.71 220.075 1083.31 220.075C1081.91 220.075 1080.52 219.975 1079.15 219.777C1077.77 219.578 1076.29 219.479 1074.69 219.479C1067.89 219.479 1061.02 219.975 1054.1 220.968C1047.18 221.96 1040.34 223.151 1033.56 224.541L1033.16 225.434C1036.83 232.978 1039.99 241.415 1042.65 250.745C1045.33 259.876 1047.28 269.206 1048.52 278.735C1049.75 288.263 1049.81 297.494 1048.72 306.427C1048.3 309.802 1047.69 313.176 1046.88 316.551C1046.04 320.124 1044.91 323.598 1043.5 326.973C1040.72 333.325 1035.99 339.281 1029.31 344.839C1022.8 350.596 1015.53 355.261 1007.49 358.834C999.65 362.407 992.431 364.194 985.831 364.194ZM992.898 357.941C997.298 357.941 1002.02 356.154 1007.06 352.581C1012.09 349.008 1016.81 344.839 1021.19 340.075C1025.55 335.509 1028.75 331.44 1030.79 327.866C1032.8 324.492 1034.35 320.819 1035.44 316.849C1036.73 312.879 1037.6 309.008 1038.06 305.236C1039.48 293.722 1038.97 281.514 1036.56 268.611C1034.34 255.707 1031.57 244.094 1028.23 233.772C1022.26 243.3 1016.05 254.02 1009.59 265.931C1003.33 277.841 997.74 289.951 992.83 302.258C987.92 314.566 984.795 326.179 983.455 337.097C983.163 339.479 983.122 342.258 983.332 345.435C983.318 348.809 984.065 351.688 985.573 354.07C987.056 356.65 989.498 357.941 992.898 357.941ZM1086.01 269.206C1081.61 269.206 1078.79 268.511 1077.56 267.122C1076.33 265.732 1075.99 262.854 1076.52 258.487C1077.11 253.722 1078.88 248.263 1081.83 242.109C1084.99 235.955 1087.82 230.794 1090.33 226.625C1090.35 226.427 1090.27 226.328 1090.07 226.328C1090.09 226.129 1090.12 225.931 1090.14 225.732C1090.26 224.74 1090.66 223.946 1091.33 223.35C1092.21 222.754 1092.88 222.159 1093.35 221.563C1094.55 219.975 1095.64 218.387 1096.64 216.799C1097.63 215.211 1098.61 213.722 1099.58 212.333C1103.64 206.973 1108.37 201.811 1113.78 196.849C1119.39 191.886 1125.41 188.511 1131.83 186.725C1134.1 186.129 1136.24 185.831 1138.24 185.831C1138.64 185.831 1139.02 185.931 1139.4 186.129C1140 186.129 1140.27 186.328 1140.23 186.725C1140.15 187.32 1139.47 188.015 1138.17 188.809C1137.07 189.603 1136.3 190.199 1135.85 190.596C1132.33 193.176 1128.35 197.146 1123.89 202.506C1119.63 207.866 1116.2 212.233 1113.58 215.608C1118.28 214.814 1122.85 214.218 1127.3 213.821C1131.95 213.424 1136.45 213.424 1140.8 213.821C1143.39 210.645 1145.87 206.774 1148.23 202.209C1150.81 197.444 1152.35 193.077 1152.83 189.107C1153.1 186.923 1152.96 185.633 1152.41 185.236C1152.06 184.839 1150.98 184.64 1149.18 184.64C1148.78 184.64 1148.19 184.541 1147.42 184.342C1146.64 184.144 1146.29 183.747 1146.36 183.151C1146.46 182.357 1147.45 181.663 1149.32 181.067C1151.19 180.472 1153.14 180.074 1155.17 179.876C1157.21 179.479 1158.54 179.28 1159.14 179.28C1164.54 179.28 1166.93 181.762 1166.33 186.725C1165.98 189.504 1164.67 192.878 1162.38 196.849C1160.32 200.62 1157.78 204.194 1154.77 207.568C1151.98 210.745 1149.3 213.027 1146.73 214.417C1147.33 214.417 1148.49 214.715 1150.22 215.31C1152.17 215.707 1153.91 216.204 1155.44 216.799C1157.16 217.395 1157.98 218.089 1157.88 218.883C1157.81 219.479 1157.16 219.876 1155.93 220.075C1154.73 220.075 1153.93 220.075 1153.53 220.075C1151.73 220.075 1149.95 219.975 1148.17 219.777C1146.42 219.38 1144.64 219.181 1142.84 219.181C1137.24 219.181 1131.49 219.578 1125.6 220.372C1119.9 221.166 1114.18 222.159 1108.43 223.35C1105.99 226.923 1103.13 231.489 1099.85 237.047C1096.77 242.606 1094.96 247.568 1094.42 251.936C1093.57 258.884 1096.75 262.358 1103.95 262.358C1109.15 262.358 1114.32 260.968 1119.46 258.189C1124.8 255.41 1129.8 252.134 1134.46 248.362C1139.13 244.591 1142.93 241.315 1145.87 238.536C1148.81 235.757 1150.48 234.367 1150.88 234.367C1151.48 234.367 1151.73 234.764 1151.63 235.558C1151.34 237.941 1149.59 240.819 1146.37 244.194C1143.18 247.37 1140.6 249.653 1138.63 251.042C1130.98 256.402 1122.54 260.769 1113.33 264.144C1104.31 267.519 1095.21 269.206 1086.01 269.206Z" fill="#D37E19"/>
<defs>
<filter id="filter0_f_90_68" x="0" y="0" width="958" height="431" filterUnits="userSpaceOnUse" color-interpolation-filters="sRGB">
<feFlood flood-opacity="0" result="BackgroundImageFix"/>
<feBlend mode="normal" in="SourceGraphic" in2="BackgroundImageFix" result="shape"/>
<feGaussianBlur stdDeviation="75" result="effect1_foregroundBlur_90_68"/>
</filter>
</defs>
</svg>
