<svg width="150" height="42" viewBox="0 0 150 42" fill="none" xmlns="http://www.w3.org/2000/svg">
<path d="M149.219 23.2702C149.682 22.9288 149.938 22.8191 149.987 22.941C150.036 23.0629 149.95 23.2945 149.731 23.6359C149.511 24.0016 149.194 24.4283 148.78 24.9159C148.39 25.4035 147.951 25.8667 147.463 26.3056C146.976 26.7444 146.464 27.1345 145.927 27.4759C145.391 27.8172 144.891 28.0244 144.428 28.0976C144.111 28.1463 143.697 28.0732 143.185 27.8781C142.673 27.6587 142.173 27.354 141.685 26.9639C141.222 26.5738 140.832 26.1227 140.515 25.6107C140.198 25.0987 140.088 24.5745 140.186 24.0382C140.259 23.5993 140.442 23.1848 140.734 22.7947C141.027 22.3803 141.356 22.0267 141.722 21.7342C142.087 21.4172 142.453 21.1734 142.819 21.0027C143.209 20.8077 143.538 20.7102 143.806 20.7102C144.026 20.7102 144.269 20.7711 144.538 20.893C144.83 21.0149 145.086 21.1734 145.306 21.3685C145.549 21.5635 145.732 21.7951 145.854 22.0633C146 22.3071 146.061 22.5631 146.037 22.8313C145.988 23.0995 145.805 23.4164 145.488 23.7822C145.172 24.1235 144.818 24.4648 144.428 24.8062C143.989 25.1962 143.477 25.5985 142.892 26.013C143.428 26.1593 144.282 25.9886 145.452 25.501C146.647 25.0134 147.902 24.2698 149.219 23.2702ZM144.903 22.5753C144.806 22.5022 144.574 22.5631 144.209 22.7582C143.867 22.9288 143.526 23.1604 143.185 23.453C142.843 23.7456 142.551 24.0747 142.307 24.4404C142.087 24.7818 142.039 25.0743 142.161 25.3182C142.307 25.245 142.538 25.0743 142.855 24.8062C143.197 24.538 143.526 24.2454 143.843 23.9284C144.184 23.6115 144.465 23.3311 144.684 23.0873C144.903 22.8191 144.976 22.6485 144.903 22.5753Z" fill="white"/>
<path d="M144.292 9.37314C144.317 9.69009 144.158 10.1046 143.817 10.6166C143.5 11.1286 142.927 11.8356 142.098 12.7377C141.269 13.6398 140.135 14.7979 138.697 16.212C137.283 17.626 135.503 19.3937 133.357 21.5148C132.114 22.7826 131.066 24.0748 130.212 25.3913C130.383 25.4157 130.688 25.3426 131.127 25.1719C131.59 25.0012 132.065 24.794 132.553 24.5502C133.065 24.282 133.552 24.0138 134.016 23.7456C134.503 23.4531 134.857 23.2093 135.076 23.0142C135.32 22.7948 135.503 22.6851 135.625 22.6851C135.771 22.6851 135.844 22.746 135.844 22.8679C135.869 22.9654 135.844 23.1117 135.771 23.3068C135.698 23.4774 135.576 23.6481 135.405 23.8188C134.016 25.0866 132.931 26.0131 132.151 26.5982C131.395 27.1833 130.871 27.5125 130.578 27.5856C130.31 27.6344 130.066 27.5978 129.847 27.4759C129.627 27.3296 129.432 27.1589 129.261 26.9639C128.432 28.3536 127.811 29.5605 127.396 30.5845C126.982 31.5841 126.689 32.1692 126.519 32.3399C126.397 32.4374 126.202 32.4252 125.933 32.3033C125.665 32.2058 125.397 32.0473 125.129 31.8279C124.836 31.6085 124.58 31.3646 124.361 31.0965C124.117 30.8039 123.971 30.5357 123.922 30.2919C123.922 30.1944 124.117 29.8043 124.507 29.1216C124.897 28.4146 125.434 27.5369 126.116 26.4885C126.799 25.4157 127.579 24.2089 128.457 22.8679C129.359 21.527 130.298 20.1738 131.273 18.8085C132.248 17.4188 133.223 16.0657 134.199 14.7491C135.198 13.4082 136.137 12.2135 137.015 11.1651C137.892 10.0924 138.672 9.22685 139.355 8.56857C140.062 7.8859 140.611 7.508 141.001 7.43486C141.488 7.33733 141.927 7.34953 142.317 7.47143C142.732 7.59333 143.073 7.764 143.341 7.98343C143.634 8.20285 143.853 8.44666 144 8.71485C144.17 8.98304 144.268 9.20247 144.292 9.37314ZM142.537 9.44628C142.439 9.37314 142.208 9.49504 141.842 9.81199C141.476 10.1046 141.025 10.5434 140.489 11.1286C139.952 11.6893 139.355 12.3598 138.697 13.14C138.038 13.8958 137.356 14.7125 136.649 15.5902C135.966 16.4436 135.283 17.3213 134.601 18.2234C133.918 19.1255 133.284 19.9788 132.699 20.7834C133.796 19.7106 134.954 18.5403 136.173 17.2725C137.392 16.0047 138.502 14.8223 139.501 13.7251C140.501 12.6036 141.293 11.6527 141.878 10.8726C142.488 10.068 142.707 9.59256 142.537 9.44628Z" fill="white"/>
<path d="M121.472 19.869C121.326 19.869 121.143 19.8325 120.924 19.7593C120.704 19.6862 120.497 19.5886 120.302 19.4667C120.131 19.3448 119.985 19.2107 119.863 19.0645C119.765 18.8938 119.729 18.7231 119.753 18.5525C119.778 18.4062 119.839 18.2111 119.936 17.9673C120.058 17.7235 120.192 17.4919 120.338 17.2725C120.485 17.0287 120.643 16.8214 120.814 16.6508C121.009 16.4801 121.192 16.3704 121.362 16.3216C121.533 16.2972 121.74 16.3338 121.984 16.4313C122.228 16.5045 122.46 16.6264 122.679 16.797C122.898 16.9433 123.069 17.114 123.191 17.309C123.337 17.4797 123.398 17.626 123.374 17.7479C123.374 17.8942 123.52 18.1258 123.374 18.3696C123.228 18.589 123.259 18.8085 123.064 19.0279C122.869 19.2473 122.552 19.5886 122.332 19.7593C122.113 19.93 121.618 19.8446 121.472 19.869ZM122.862 23.453C123.349 23.0142 123.715 22.8801 123.959 23.0507C124.203 23.2214 124.105 23.5749 123.666 24.1113C123.374 24.477 123.02 24.8671 122.606 25.2816C122.191 25.6717 121.765 26.0496 121.326 26.4153C120.911 26.7566 120.521 27.0614 120.156 27.3296C119.79 27.5734 119.509 27.7197 119.314 27.7684C119.046 27.7928 118.729 27.744 118.364 27.6221C118.022 27.5002 117.681 27.3174 117.34 27.0736C117.023 26.8298 116.767 26.5372 116.572 26.1959C116.352 25.8301 116.267 25.4279 116.316 24.989C116.364 24.5745 116.486 24.1235 116.681 23.6359C116.852 23.1239 117.059 22.6606 117.303 22.2462C117.547 21.8317 117.791 21.4904 118.034 21.2222C118.278 20.954 118.498 20.8321 118.693 20.8565C118.863 20.9052 119.046 20.9784 119.241 21.0759C119.436 21.149 119.607 21.2465 119.753 21.3684C119.924 21.466 120.058 21.5879 120.156 21.7342C120.253 21.8804 120.29 22.0511 120.265 22.2462C120.241 22.4412 120.131 22.7338 119.936 23.1239C119.741 23.4896 119.546 23.8675 119.351 24.2576C119.156 24.6477 118.985 25.0012 118.839 25.3181C118.693 25.6351 118.668 25.8301 118.766 25.9033C118.839 25.952 119.01 25.9277 119.278 25.8301C119.57 25.7082 119.9 25.5376 120.265 25.3181C120.655 25.0987 121.07 24.8305 121.509 24.5136C121.972 24.1966 122.423 23.8431 122.862 23.453Z" fill="white"/>
<path d="M111.334 23.1604C111.895 22.8191 112.236 22.7216 112.358 22.8679C112.48 23.0141 112.346 23.2823 111.956 23.6724C111.541 24.0625 111.102 24.4648 110.639 24.8793C110.176 25.2694 109.712 25.6473 109.249 26.013C108.81 26.3543 108.372 26.6469 107.933 26.8907C107.494 27.1345 107.092 27.293 106.726 27.3661C106.409 27.4149 106.043 27.4271 105.629 27.4027C105.214 27.3539 104.824 27.2442 104.458 27.0735C104.093 26.9029 103.788 26.6713 103.544 26.3787C103.3 26.0617 103.178 25.6595 103.178 25.1718C103.178 24.8793 103.41 24.2697 103.873 23.3433C104.312 22.4168 104.897 21.3441 105.629 20.125C106.384 18.906 107.226 17.6138 108.152 16.2485C109.103 14.8587 110.078 13.5544 111.078 12.3353C112.102 11.1163 113.101 10.0557 114.077 9.15364C115.052 8.25155 115.942 7.66641 116.746 7.39822C116.99 7.30069 117.331 7.26412 117.77 7.2885C118.209 7.31288 118.636 7.39822 119.05 7.5445C119.465 7.66641 119.818 7.86145 120.111 8.12964C120.428 8.37345 120.586 8.66602 120.586 9.00735C120.586 9.39745 120.367 9.93382 119.928 10.6165C119.489 11.2991 118.904 12.0671 118.173 12.9205C117.441 13.7494 116.6 14.6515 115.649 15.6267C114.698 16.5776 113.699 17.5285 112.65 18.4793C111.602 19.4302 110.554 20.3444 109.505 21.2221C108.457 22.0755 107.482 22.8313 106.58 23.4896C106.311 23.8553 106.092 24.1966 105.921 24.5136C105.775 24.7817 105.653 25.0499 105.556 25.3181C105.482 25.5619 105.507 25.7326 105.629 25.8301C105.702 25.9033 105.994 25.8301 106.506 25.6107C107.018 25.3913 107.579 25.1231 108.189 24.8061C108.823 24.4892 109.432 24.1722 110.017 23.8553C110.627 23.5139 111.066 23.2823 111.334 23.1604ZM118.721 9.19021C118.624 9.06831 118.392 9.14145 118.026 9.40964C117.685 9.67782 117.258 10.0801 116.746 10.6165C116.234 11.1529 115.674 11.7868 115.064 12.5182C114.455 13.2252 113.833 13.9567 113.199 14.7125C111.712 16.5166 110.054 18.6012 108.225 20.9661C108.542 20.7223 109.042 20.2957 109.725 19.6862C110.407 19.0766 111.151 18.3696 111.956 17.565C112.784 16.7361 113.626 15.8827 114.479 15.005C115.357 14.1029 116.125 13.2618 116.783 12.4816C117.466 11.6771 117.99 10.9822 118.355 10.3971C118.746 9.78754 118.867 9.38525 118.721 9.19021Z" fill="white"/>
<path d="M97.5762 22.6484C97.9176 22.3559 98.6352 21.6977 98.9278 22.0633C99.2935 22.2829 98.5759 22.9532 98.2345 23.3433C98.137 23.4652 97.8688 23.7212 97.43 24.1113C96.9911 24.477 96.4303 24.9768 95.7477 25.6107C95.0894 26.2202 94.3214 26.9395 93.4437 27.7684C92.5904 28.5974 91.7005 29.4994 90.774 30.4747C89.8581 31.8645 89.0291 33.0104 88.3221 34.1319C87.6151 35.2778 87.2616 36.2531 86.6398 37.0576C86.1766 37.9841 85.5427 39.0325 85.0307 39.6908C84.7381 40.3247 83.935 41.0561 83.7156 41.1536C83.4962 41.2511 83.2158 41.2999 82.8744 41.2999C82.5331 41.3243 82.178 41.2511 81.8854 41.1536C81.5929 41.0805 81.4238 40.983 81.3019 40.7879C81.18 40.6172 81.0946 40.5075 81.3385 40.1662C81.5091 39.898 82.7633 38.2523 83.3484 37.2771C84.0798 36.1799 84.2505 35.8874 85.0307 34.5708C85.8109 33.2542 86.9828 31.2671 87.8849 29.7798C88.8113 28.2682 89.7012 26.8541 90.5546 25.5376C90.0669 26.0008 89.5915 26.4153 89.1283 26.781C88.665 27.1467 88.2871 27.3296 87.9946 27.3296C87.8483 27.3296 87.6532 27.293 87.4094 27.2198C87.1656 27.1223 86.9218 27.0126 86.678 26.8907C86.4342 26.7444 86.2148 26.5859 86.0197 26.4153C85.8003 26.2202 85.6662 26.013 85.6175 25.7936C85.5931 25.5985 85.6906 25.2694 85.91 24.8061C86.1051 24.3185 86.3733 23.8065 86.7146 23.2701C87.0315 22.7094 87.3729 22.173 87.7386 21.661C88.1287 21.1246 88.4822 20.7223 88.7991 20.4542C88.9454 20.3323 89.1405 20.2957 89.3843 20.3444C89.6525 20.3932 89.9085 20.5029 90.1523 20.6736C90.4205 20.8199 90.6521 21.0027 90.8471 21.2222C91.0666 21.4416 91.1885 21.6366 91.2128 21.8073C91.286 21.978 91.1641 22.2827 90.8471 22.7216C90.5302 23.1604 90.1889 23.5993 89.8231 24.0381C89.4818 24.4526 89.2014 24.8183 88.982 25.1353C88.7626 25.4279 88.787 25.5254 89.0551 25.4278C89.2502 25.3547 89.494 25.1962 89.7866 24.9524C90.1035 24.7086 90.4327 24.4282 90.774 24.1113C91.1397 23.77 91.5054 23.4164 91.8711 23.0507C92.2368 22.685 92.5782 22.3559 92.8951 22.0633C93.0902 21.8926 93.2365 21.7463 93.334 21.6244C93.4559 21.4782 93.5534 21.3928 93.6266 21.3684C93.7972 21.3441 93.9923 21.3684 94.2117 21.4416C94.4311 21.5147 94.6384 21.6123 94.8334 21.7342C95.0284 21.8561 95.1869 22.0145 95.3088 22.2096C95.4307 22.3802 95.4917 22.5509 95.4917 22.7216C95.4917 22.9166 95.3454 23.197 95.0528 23.5627C94.7603 23.9284 94.3824 24.3917 93.9191 24.9524C93.4803 25.4888 92.9561 26.1349 92.3466 26.8907C91.7614 27.6221 91.1641 28.4633 90.5546 29.4141C90.6277 29.341 90.8959 29.0484 91.3591 28.5364C91.8468 28.0244 92.4319 27.4271 93.1146 26.7444C93.8216 26.0374 94.5652 25.3181 95.3454 24.5867C96.15 23.8553 96.8936 23.2092 97.5762 22.6484Z" fill="white"/>
<path d="M75.0818 18.9549C75.2037 18.833 77.3796 18.8938 78.7936 18.8451C79.1837 18.5037 79.5494 18.2233 79.8908 18.0039C80.2321 17.7845 80.5613 17.6748 80.8782 17.6748C81.1708 17.6748 81.4877 17.7967 81.8291 18.0405C82.1704 18.2599 82.4386 18.5159 82.6336 18.8085C83.877 18.8085 85.2058 18.7963 86.6199 18.7719C88.034 18.7475 89.4724 18.711 90.9353 18.6622C92.7882 18.6134 94.6046 18.5403 96.3844 18.4428C98.1642 18.3452 99.7733 18.2477 101.212 18.1502C102.65 18.0527 103.845 17.9673 104.796 17.8942C105.747 17.8211 106.332 17.7845 106.551 17.7845C106.966 17.7845 107.417 17.8576 107.904 18.0039C108.416 18.1258 108.88 18.2843 109.294 18.4793C109.709 18.65 110.025 18.8451 110.245 19.0645C110.489 19.2595 110.537 19.4424 110.391 19.613C110.294 19.7106 109.818 19.7715 108.965 19.7959C108.112 19.7959 106.978 19.7959 105.564 19.7959C104.174 19.7715 102.553 19.7471 100.7 19.7228C98.8713 19.6984 96.9208 19.6862 94.8484 19.6862C92.8004 19.6618 90.7037 19.6618 88.5582 19.6862C86.4126 19.6862 84.3281 19.735 82.3045 19.8325C82.0363 20.0275 81.695 20.3201 81.2805 20.7102C80.866 21.1003 80.4393 21.5269 80.0005 21.9902C79.5616 22.4534 79.1228 22.941 78.6839 23.453C78.2695 23.965 77.9159 24.4405 77.6234 24.8793C77.3308 25.3182 77.1236 25.7083 77.0017 26.0496C76.9041 26.3665 76.9407 26.586 77.1114 26.7079C77.2577 26.8054 77.599 26.6957 78.1354 26.3787C78.6717 26.0618 79.2447 25.6839 79.8542 25.245C80.4881 24.8062 81.0854 24.3795 81.6462 23.965C82.2313 23.5262 82.6336 23.2458 82.8531 23.1239C83.2919 22.8313 83.6089 22.7704 83.8039 22.941C83.9989 23.1117 83.9868 23.3433 83.7673 23.6359C83.6454 23.7822 83.3529 24.0991 82.8896 24.5867C82.4264 25.05 81.8778 25.5376 81.2439 26.0496C80.6344 26.5372 79.9883 26.9761 79.3056 27.3662C78.6474 27.7562 78.0744 27.9513 77.5868 27.9513C76.5872 27.9513 75.9411 27.6831 75.6485 27.1467C75.3316 26.586 75.234 25.9033 75.3559 25.0987C75.4779 24.2698 75.7704 23.3921 76.2337 22.4656C76.6969 21.5148 77.2211 20.6614 77.8062 19.9056C76.6603 19.6618 74.4497 19.587 75.0818 18.9549Z" fill="white"/>
<path d="M60.2082 20.8199C60.3788 20.6979 60.6105 20.6736 60.903 20.7467C61.1956 20.7955 61.476 20.9052 61.7442 21.0759C62.0124 21.2221 62.2562 21.405 62.4756 21.6244C62.695 21.8195 62.8169 22.0023 62.8413 22.173C62.8901 22.2949 62.8413 22.4899 62.695 22.7581C62.5487 23.0019 62.3537 23.2701 62.1099 23.5627C61.8905 23.8553 61.6466 24.16 61.3785 24.477C61.1346 24.7939 60.9152 25.0743 60.7202 25.3181C60.5495 25.5375 60.4398 25.7082 60.391 25.8301C60.3423 25.952 60.4154 25.9764 60.6105 25.9033C60.7811 25.8301 61.0127 25.6838 61.3053 25.4644C61.6223 25.2206 61.9636 24.9402 62.3293 24.6233C62.695 24.3063 63.0729 23.9772 63.463 23.6358C63.8531 23.2701 64.2188 22.9288 64.5602 22.6118C64.9015 22.2949 65.1941 22.0267 65.4379 21.8073C65.6817 21.5878 65.8523 21.4538 65.9499 21.405C66.0718 21.3806 66.2302 21.3928 66.4253 21.4416C66.6203 21.4903 66.8154 21.5757 67.0104 21.6976C67.2299 21.8195 67.4127 21.9779 67.559 22.173C67.7297 22.3437 67.8516 22.5265 67.9247 22.7216C67.9979 22.9166 67.9003 23.197 67.6321 23.5627C67.3883 23.904 67.108 24.2575 66.791 24.6233C66.4984 24.989 66.2424 25.3181 66.023 25.6107C65.8036 25.9033 65.7548 26.0983 65.8767 26.1958C65.9742 26.269 66.2302 26.1836 66.6447 25.9398C67.0836 25.6716 67.5712 25.3547 68.1076 24.989C68.6439 24.5989 69.1559 24.2088 69.6436 23.8187C70.1556 23.4286 70.5213 23.136 70.7407 22.941C71.1796 22.5509 71.4843 22.4656 71.655 22.685C71.8256 22.88 71.7891 23.1726 71.5453 23.5627C71.399 23.7334 71.1064 24.0503 70.6676 24.5135C70.2531 24.9524 69.7898 25.4156 69.2778 25.9033C68.7658 26.3909 68.2539 26.8297 67.7419 27.2198C67.2299 27.6099 66.8276 27.8293 66.535 27.8781C66.2181 27.9512 65.8767 27.9512 65.511 27.8781C65.1697 27.7806 64.8405 27.6343 64.5236 27.4392C64.2066 27.2442 63.9263 27.0126 63.6824 26.7444C63.463 26.4762 63.3289 26.1958 63.2802 25.9033C63.2314 25.7082 63.2314 25.5375 63.2802 25.3913C63.3289 25.2206 63.3777 25.0987 63.4264 25.0255C63.1095 25.2937 62.756 25.5985 62.3659 25.9398C62.0002 26.2568 61.6345 26.5615 61.2687 26.8541C60.903 27.1467 60.5617 27.3905 60.2447 27.5855C59.9278 27.7806 59.6596 27.8781 59.4402 27.8781C59.2939 27.8781 59.0867 27.8415 58.8185 27.7684C58.5503 27.6709 58.2943 27.549 58.0505 27.4027C57.7823 27.2564 57.5507 27.0979 57.3556 26.9273C57.1362 26.7322 57.0021 26.525 56.9533 26.3055C56.929 26.0861 57.0387 25.7326 57.2825 25.245C57.5019 24.7574 57.7823 24.2332 58.1236 23.6724C58.4406 23.1117 58.7941 22.5753 59.1842 22.0633C59.5743 21.5269 59.9156 21.1124 60.2082 20.8199Z" fill="white"/>
<path d="M53.1459 23.1604C53.4872 22.8435 53.7554 22.7703 53.9504 22.941C54.1699 23.0873 54.1089 23.3677 53.7676 23.7821C53.5725 24.0016 53.3044 24.3307 52.963 24.7696C52.6217 25.184 52.2682 25.6107 51.9025 26.0496C51.5367 26.4884 51.171 26.8785 50.8053 27.2198C50.4396 27.5612 50.1348 27.7562 49.891 27.805C49.5741 27.8781 49.123 27.8294 48.5379 27.6587C47.9771 27.488 47.4895 27.232 47.075 26.8907C46.7581 27.1101 46.4533 27.3296 46.1608 27.549C45.8682 27.744 45.5756 27.8903 45.2831 27.9878C45.0149 28.0366 44.6857 28.0244 44.2956 27.9513C43.9055 27.8781 43.5154 27.744 43.1254 27.549C42.7596 27.3296 42.4305 27.0736 42.1379 26.781C41.8454 26.4884 41.6503 26.1471 41.5528 25.757C41.4553 25.3425 41.565 24.8549 41.8819 24.2941C42.1745 23.709 42.5402 23.1604 42.9791 22.6484C43.4179 22.1364 43.869 21.6976 44.3322 21.3319C44.8198 20.9418 45.1977 20.7345 45.4659 20.7102C45.6366 20.6858 45.8438 20.698 46.0876 20.7467C46.3558 20.7955 46.6118 20.8808 46.8556 21.0027C47.1238 21.1246 47.3554 21.2709 47.5505 21.4416C47.7699 21.6122 47.9162 21.8073 47.9893 22.0267C48.3307 21.7342 48.6232 21.6001 48.867 21.6244C49.0621 21.6732 49.2693 21.7342 49.4888 21.8073C49.7082 21.8804 49.9032 21.9658 50.0739 22.0633C50.2689 22.1608 50.4274 22.2827 50.5493 22.429C50.6712 22.5753 50.72 22.7338 50.6956 22.9044C50.6956 23.0995 50.5981 23.3677 50.403 23.709C50.208 24.026 50.0007 24.3551 49.7813 24.6964C49.5619 25.0378 49.379 25.3425 49.2328 25.6107C49.0865 25.8789 49.0621 26.0496 49.1596 26.1227C49.2328 26.1715 49.3912 26.1227 49.635 25.9764C49.9032 25.8058 50.2202 25.5863 50.5859 25.3181C50.9516 25.0256 51.3539 24.6964 51.7927 24.3307C52.256 23.965 52.707 23.5749 53.1459 23.1604ZM43.9665 26.6713C44.2347 26.8176 44.5638 26.7444 44.9539 26.4518C45.3684 26.1349 45.7585 25.7448 46.1242 25.2816C46.4899 24.8183 46.7947 24.3429 47.0385 23.8553C47.3067 23.3677 47.4408 23.002 47.4408 22.7581C47.3432 22.5387 47.1726 22.4778 46.9288 22.5753C46.685 22.6728 46.4168 22.8557 46.1242 23.1239C45.8316 23.392 45.5269 23.7212 45.2099 24.1113C44.9173 24.5014 44.6613 24.8793 44.4419 25.245C44.2225 25.5863 44.0518 25.9033 43.9299 26.1958C43.8324 26.464 43.8446 26.6225 43.9665 26.6713Z" fill="white"/>
<path d="M37.0835 23.2702C37.5467 22.9288 37.8027 22.8191 37.8515 22.941C37.9003 23.0629 37.8149 23.2945 37.5955 23.6359C37.3761 24.0016 37.0591 24.4283 36.6447 24.9159C36.2546 25.4035 35.8157 25.8667 35.3281 26.3056C34.8405 26.7444 34.3285 27.1345 33.7921 27.4759C33.2557 27.8172 32.7559 28.0244 32.2927 28.0976C31.9757 28.1463 31.5613 28.0732 31.0493 27.8781C30.5373 27.6587 30.0374 27.354 29.5498 26.9639C29.0866 26.5738 28.6965 26.1227 28.3796 25.6107C28.0626 25.0987 27.9529 24.5745 28.0504 24.0382C28.1236 23.5993 28.3064 23.1848 28.599 22.7947C28.8915 22.3803 29.2207 22.0267 29.5864 21.7342C29.9521 21.4172 30.3178 21.1734 30.6835 21.0027C31.0736 20.8077 31.4028 20.7102 31.671 20.7102C31.8904 20.7102 32.1342 20.7711 32.4024 20.893C32.695 21.0149 32.951 21.1734 33.1704 21.3685C33.4142 21.5635 33.597 21.7951 33.719 22.0633C33.8652 22.3071 33.9262 22.5631 33.9018 22.8313C33.853 23.0995 33.6702 23.4164 33.3532 23.7822C33.0363 24.1235 32.6828 24.4648 32.2927 24.8062C31.8538 25.1962 31.3418 25.5985 30.7567 26.013C31.2931 26.1593 32.1464 25.9886 33.3167 25.501C34.5113 25.0134 35.7669 24.2698 37.0835 23.2702ZM32.7681 22.5753C32.6706 22.5022 32.439 22.5631 32.0732 22.7582C31.7319 22.9288 31.3906 23.1604 31.0493 23.453C30.7079 23.7456 30.4154 24.0747 30.1715 24.4404C29.9521 24.7818 29.9034 25.0743 30.0253 25.3182C30.1715 25.245 30.4032 25.0743 30.7201 24.8062C31.0614 24.538 31.3906 24.2454 31.7075 23.9284C32.0489 23.6115 32.3292 23.3311 32.5487 23.0873C32.7681 22.8191 32.8412 22.6485 32.7681 22.5753Z" fill="white"/>
<path d="M32.2939 1.80282C32.8791 2.3392 33.0985 2.91215 32.9522 3.52167C32.8059 4.13119 32.428 4.7529 31.8185 5.38681C31.209 6.02071 30.4532 6.64242 29.5511 7.25194C28.649 7.86146 27.7225 8.43441 26.7717 8.97079C25.8452 9.50717 24.9675 9.98259 24.1386 10.3971C23.334 10.8115 22.7245 11.1285 22.31 11.3479C23.0658 11.4454 23.7485 11.7136 24.358 12.1525C24.9675 12.567 25.4064 13.0668 25.6745 13.6519C25.9671 14.359 26.2963 15.0172 26.15 15.773C26.0037 16.5045 25.8574 16.9799 25.4186 17.7113C25.0041 18.4427 24.8856 18.7353 24.1386 19.5399C23.3915 20.3444 22.9073 20.9296 22.2003 21.5147C21.5176 22.0755 21.3591 22.2262 20.774 22.7582C20.3717 23.1239 19.494 23.7497 18.47 24.2941C16.5439 25.3181 15.3249 26.2469 12.9112 27.0736C11.1314 27.6831 8.83958 28.3657 7.35235 28.5364C5.8895 28.7071 4.08532 28.4145 2.9638 28.1707C1.86666 27.7684 1.39124 27.4027 0.806099 26.7444C0.24534 26.0861 -0.0228495 25.2328 0.00153124 24.1844C0.025912 23.136 0.20877 22.5387 0.988955 21.0759C1.08648 20.9052 1.53752 20.3444 1.79353 20.1616C2.09702 19.9448 2.59809 19.9544 2.9638 19.9787C3.32951 19.9787 3.63427 20.0397 3.87808 20.1616C4.12189 20.2835 4.18284 20.4542 4.06094 20.6736C3.91465 20.9418 3.68304 21.3197 3.36609 21.8073C3.04914 22.2949 2.61028 22.9044 2.34209 23.4896C2.09828 24.0503 2.22019 24.0991 2.12266 24.6599C2.12266 25.1718 2.19581 25.8058 2.56152 26.1958C2.8358 26.4884 3.15886 26.8785 3.98781 26.8541C4.84114 26.8297 6.0236 26.8541 7.16949 26.4884C8.31539 26.1471 9.54663 25.6717 10.8632 25.0621C12.2041 24.477 13.5329 23.8065 14.8495 23.0507C16.1904 22.2705 17.4582 21.466 18.6529 20.637C19.8475 19.7837 20.8837 18.9425 21.7614 18.1136C22.6391 17.2603 23.2974 16.4435 23.7363 15.6633C24.1995 14.8831 24.3336 14.2005 24.1386 13.6153C23.9679 13.079 23.6022 12.7498 23.0414 12.6279C22.4807 12.4816 21.8102 12.4694 21.03 12.5913C20.2742 12.7132 19.4696 12.9205 18.6163 13.2131C17.763 13.5056 16.934 13.8104 16.1295 14.1273C15.3493 14.4199 14.6544 14.7003 14.0449 14.9685C13.4354 15.2367 13.0087 15.4073 12.7649 15.4805C12.2773 16.1875 11.5215 18.5159 11.1923 19.5399C10.7779 20.4176 10.595 21.0271 10.2049 21.8073C10.1561 21.9292 9.98548 22.1242 9.8392 22.0999C9.61977 22.173 9.29063 22.173 9.14434 22.0999C8.99806 22.0023 8.90053 21.9048 8.77863 21.8073C8.59578 21.5879 8.63234 21.5879 8.59578 21.3684C8.59578 21.2222 8.59578 21.0027 8.59578 20.7833C8.59578 20.5639 8.5592 20.2713 8.8152 18.5159C8.86396 18.2477 8.92491 17.9795 8.99806 17.7113C9.0712 17.4187 9.14434 17.1627 9.21749 16.9433C9.02244 17.0408 7.6693 17.5528 7.35235 17.6016C7.05978 17.6504 6.79159 17.6504 6.54778 17.6016C6.30397 17.5285 6.21864 17.3212 6.1455 17.1262C6.07236 16.9068 6.09674 16.6508 6.36493 16.2119C6.43807 16.09 6.62093 15.9437 6.91349 15.773C7.20606 15.578 8.10817 15.1026 8.4495 14.9319C8.79083 14.7612 9.43691 14.3468 9.80262 14.2005C10.1683 14.0542 10.3146 13.981 10.4243 13.981C10.7169 13.5178 10.9729 13.0546 11.1923 12.5913C11.4361 12.1281 11.6556 11.7014 11.8506 11.3113C12.07 10.8969 12.2529 10.5555 12.3992 10.2874C12.5698 9.99478 13.155 8.99517 13.2769 8.89765C13.3744 8.8245 13.5207 8.78793 13.7157 8.78793C13.9352 8.78793 14.1302 8.73917 14.374 8.78793C14.6179 8.83669 14.8373 8.90984 15.0323 9.00736C15.2274 9.08051 15.398 9.23898 15.4712 9.3365C15.6418 9.60469 15.203 10.7384 15.0323 11.1285C14.8616 11.4942 14.7154 11.8477 14.5935 12.1891C14.9348 12.1159 15.6175 11.8599 16.6414 11.4211C17.6898 10.9822 18.8723 10.4458 20.1889 9.81193C21.5054 9.17802 22.8586 8.48317 24.2483 7.72737C25.638 6.97156 26.8814 6.24014 27.9785 5.53309C29.0757 4.80167 29.9168 4.13119 30.502 3.52167C31.0871 2.91215 31.2334 2.44891 30.9408 2.13196C30.5995 1.79063 29.9656 1.63216 29.0391 1.65654C28.1126 1.68092 26.9789 1.85158 25.638 2.16853C24.3214 2.4611 22.8586 2.87558 21.2494 3.41196C19.6647 3.94834 18.0433 4.57005 16.3855 5.27709C14.7519 5.95976 13.1428 6.70337 11.558 7.50794C9.97329 8.28813 8.52263 9.09269 7.20607 9.92164C5.91388 10.7262 4.80455 11.5186 3.87808 12.2988C2.95161 13.079 2.04952 14.493 1.93982 14.7856C1.83012 15.0782 1.35468 14.7856 1.35468 14.7856C1.35468 14.7856 1.11086 13.847 0.988955 13.3593C0.867051 12.8717 0.867051 12.2988 0.988955 11.6405C1.13524 10.9822 1.30591 10.0801 2.01296 9.44622C2.96381 8.56851 4.23161 7.65423 5.81636 6.70338C7.4255 5.72814 9.18092 4.81386 11.0826 3.96053C13.0087 3.08282 14.9957 2.31483 17.0437 1.65654C19.1161 0.99826 21.1397 0.595965 23.0414 0.303394C24.9675 0.0108246 26.9667 -0.0866901 28.5271 0.083975C30.1119 0.254642 31.3431 0.973873 32.2939 1.80282Z" fill="white"/>
<line x1="91.0984" y1="40.8429" x2="139.172" y2="40.8429" stroke="white"/>
<path d="M134.737 39.2097C134.424 39.2097 134.128 39.1576 133.847 39.0534C133.571 38.9453 133.356 38.8071 133.204 38.6388L133.342 38.4104C133.487 38.5587 133.683 38.6849 133.931 38.789C134.184 38.8892 134.45 38.9393 134.731 38.9393C135.011 38.9393 135.239 38.9032 135.416 38.8311C135.596 38.755 135.728 38.6548 135.812 38.5306C135.9 38.4064 135.944 38.2682 135.944 38.116C135.944 37.9357 135.896 37.7915 135.8 37.6833C135.704 37.5752 135.578 37.489 135.422 37.4249C135.265 37.3609 135.095 37.3068 134.911 37.2627C134.727 37.2186 134.54 37.1726 134.352 37.1245C134.164 37.0724 133.991 37.0063 133.835 36.9262C133.679 36.8461 133.553 36.7379 133.457 36.6017C133.364 36.4615 133.318 36.2812 133.318 36.0609C133.318 35.8606 133.371 35.6763 133.475 35.508C133.579 35.3398 133.741 35.2036 133.961 35.0994C134.182 34.9953 134.464 34.9432 134.809 34.9432C135.041 34.9432 135.269 34.9772 135.494 35.0453C135.722 35.1134 135.916 35.2056 136.077 35.3218L135.962 35.5681C135.786 35.4479 135.596 35.3598 135.392 35.3037C135.191 35.2436 134.997 35.2136 134.809 35.2136C134.54 35.2136 134.318 35.2516 134.142 35.3278C133.965 35.4039 133.835 35.506 133.751 35.6342C133.667 35.7584 133.625 35.8986 133.625 36.0549C133.625 36.2351 133.671 36.3794 133.763 36.4875C133.859 36.5957 133.985 36.6818 134.142 36.7459C134.298 36.81 134.47 36.8641 134.658 36.9082C134.847 36.9522 135.033 37.0003 135.217 37.0524C135.402 37.1005 135.572 37.1646 135.728 37.2447C135.884 37.3248 136.011 37.433 136.107 37.5692C136.203 37.7054 136.251 37.8816 136.251 38.098C136.251 38.2943 136.197 38.4786 136.089 38.6508C135.98 38.8191 135.814 38.9553 135.59 39.0594C135.37 39.1596 135.085 39.2097 134.737 39.2097Z" fill="white"/>
<path d="M130.224 39.2097C129.912 39.2097 129.621 39.1576 129.353 39.0534C129.089 38.9453 128.858 38.795 128.662 38.6027C128.466 38.4104 128.314 38.1861 128.205 37.9297C128.097 37.6693 128.043 37.3849 128.043 37.0764C128.043 36.768 128.097 36.4855 128.205 36.2291C128.314 35.9687 128.466 35.7424 128.662 35.5501C128.862 35.3578 129.095 35.2096 129.359 35.1054C129.623 34.9973 129.912 34.9432 130.224 34.9432C130.521 34.9432 130.797 34.9912 131.054 35.0874C131.314 35.1835 131.536 35.3298 131.721 35.5261L131.528 35.7244C131.348 35.5481 131.148 35.4219 130.927 35.3458C130.711 35.2657 130.481 35.2256 130.236 35.2256C129.968 35.2256 129.718 35.2717 129.485 35.3638C129.257 35.456 129.057 35.5862 128.884 35.7544C128.716 35.9227 128.584 36.119 128.488 36.3433C128.396 36.5676 128.35 36.812 128.35 37.0764C128.35 37.3408 128.396 37.5852 128.488 37.8095C128.584 38.0339 128.716 38.2302 128.884 38.3984C129.057 38.5667 129.257 38.6969 129.485 38.789C129.718 38.8812 129.968 38.9272 130.236 38.9272C130.481 38.9272 130.711 38.8892 130.927 38.8131C131.148 38.7329 131.348 38.6027 131.528 38.4225L131.721 38.6208C131.536 38.8171 131.314 38.9653 131.054 39.0654C130.797 39.1616 130.521 39.2097 130.224 39.2097Z" fill="white"/>
<path d="M125.772 39.1796V34.9732H126.079V39.1796H125.772Z" fill="white"/>
<path d="M122.29 39.1796V35.2496H120.776V34.9732H124.111V35.2496H122.596V39.1796H122.29Z" fill="white"/>
<path d="M116.834 36.9081H119.111V37.1786H116.834V36.9081ZM116.87 38.9032H119.466V39.1796H116.564V34.9732H119.376V35.2496H116.87V38.9032Z" fill="white"/>
<path d="M109.917 39.1796V34.9732H110.176L112.128 38.3443H111.99L113.937 34.9732H114.19L114.196 39.1796H113.895L113.889 35.4359H113.973L112.128 38.6208H111.978L110.127 35.4359H110.218V39.1796H109.917Z" fill="white"/>
<path d="M106.46 39.2097C106.147 39.2097 105.851 39.1576 105.57 39.0534C105.294 38.9453 105.08 38.8071 104.927 38.6388L105.066 38.4104C105.21 38.5587 105.406 38.6849 105.654 38.789C105.907 38.8892 106.173 38.9393 106.454 38.9393C106.734 38.9393 106.962 38.9032 107.139 38.8311C107.319 38.755 107.451 38.6548 107.535 38.5306C107.623 38.4064 107.668 38.2682 107.668 38.116C107.668 37.9357 107.619 37.7915 107.523 37.6833C107.427 37.5752 107.301 37.489 107.145 37.4249C106.989 37.3609 106.818 37.3068 106.634 37.2627C106.45 37.2186 106.263 37.1726 106.075 37.1245C105.887 37.0724 105.715 37.0063 105.558 36.9262C105.402 36.8461 105.276 36.7379 105.18 36.6017C105.088 36.4615 105.042 36.2812 105.042 36.0609C105.042 35.8606 105.094 35.6763 105.198 35.508C105.302 35.3398 105.464 35.2036 105.685 35.0994C105.905 34.9953 106.187 34.9432 106.532 34.9432C106.764 34.9432 106.993 34.9772 107.217 35.0453C107.445 35.1134 107.639 35.2056 107.8 35.3218L107.686 35.5681C107.509 35.4479 107.319 35.3598 107.115 35.3037C106.914 35.2436 106.72 35.2136 106.532 35.2136C106.263 35.2136 106.041 35.2516 105.865 35.3278C105.689 35.4039 105.558 35.506 105.474 35.6342C105.39 35.7584 105.348 35.8986 105.348 36.0549C105.348 36.2351 105.394 36.3794 105.486 36.4875C105.582 36.5957 105.709 36.6818 105.865 36.7459C106.021 36.81 106.193 36.8641 106.382 36.9082C106.57 36.9522 106.756 37.0003 106.94 37.0524C107.125 37.1005 107.295 37.1646 107.451 37.2447C107.607 37.3248 107.734 37.433 107.83 37.5692C107.926 37.7054 107.974 37.8816 107.974 38.098C107.974 38.2943 107.92 38.4786 107.812 38.6508C107.704 38.8191 107.537 38.9553 107.313 39.0594C107.093 39.1596 106.808 39.2097 106.46 39.2097Z" fill="white"/>
<path d="M101.202 39.2097C100.89 39.2097 100.599 39.1576 100.331 39.0534C100.067 38.9453 99.8343 38.795 99.634 38.6027C99.4377 38.4064 99.2854 38.1801 99.1773 37.9237C99.0691 37.6633 99.015 37.3809 99.015 37.0764C99.015 36.772 99.0691 36.4915 99.1773 36.2351C99.2854 35.9747 99.4377 35.7484 99.634 35.5561C99.8343 35.3598 100.067 35.2096 100.331 35.1054C100.599 34.9973 100.89 34.9432 101.202 34.9432C101.515 34.9432 101.803 34.9973 102.068 35.1054C102.336 35.2096 102.568 35.3578 102.765 35.5501C102.961 35.7424 103.113 35.9687 103.221 36.2291C103.334 36.4855 103.39 36.768 103.39 37.0764C103.39 37.3849 103.334 37.6693 103.221 37.9297C103.113 38.1861 102.961 38.4104 102.765 38.6027C102.568 38.795 102.336 38.9453 102.068 39.0534C101.803 39.1576 101.515 39.2097 101.202 39.2097ZM101.202 38.9272C101.471 38.9272 101.719 38.8812 101.947 38.789C102.176 38.6969 102.374 38.5667 102.542 38.3984C102.711 38.2302 102.841 38.0339 102.933 37.8095C103.029 37.5852 103.077 37.3408 103.077 37.0764C103.077 36.808 103.029 36.5636 102.933 36.3433C102.841 36.119 102.711 35.9227 102.542 35.7544C102.374 35.5862 102.176 35.456 101.947 35.3638C101.719 35.2717 101.471 35.2256 101.202 35.2256C100.934 35.2256 100.686 35.2717 100.457 35.3638C100.229 35.456 100.029 35.5862 99.8563 35.7544C99.688 35.9227 99.5558 36.119 99.4597 36.3433C99.3676 36.5636 99.3215 36.808 99.3215 37.0764C99.3215 37.3408 99.3676 37.5852 99.4597 37.8095C99.5558 38.0339 99.688 38.2302 99.8563 38.3984C100.029 38.5667 100.229 38.6969 100.457 38.789C100.686 38.8812 100.934 38.9272 101.202 38.9272Z" fill="white"/>
<path d="M94.708 38.1163L94.696 37.7317L97.3761 34.9735H97.7486L95.8738 36.9144L95.6995 37.1007L94.708 38.1163ZM94.4436 39.1799V34.9735H94.7501V39.1799H94.4436ZM97.5023 39.1799L95.6094 37.0166L95.8197 36.7942L97.8748 39.1799H97.5023Z" fill="white"/>
</svg>
