<svg width="200" height="56" viewBox="0 0 200 56" fill="none" xmlns="http://www.w3.org/2000/svg">
<path d="M198.958 31.0269C199.576 30.5718 199.917 30.4255 199.982 30.588C200.047 30.7506 199.934 31.0594 199.641 31.5145C199.348 32.0021 198.926 32.571 198.373 33.2211C197.853 33.8713 197.268 34.489 196.618 35.0741C195.968 35.6592 195.285 36.1794 194.57 36.6345C193.855 37.0896 193.188 37.3659 192.571 37.4634C192.148 37.5284 191.595 37.4309 190.913 37.1708C190.23 36.8783 189.564 36.4719 188.913 35.9518C188.296 35.4317 187.776 34.8303 187.353 34.1476C186.93 33.465 186.784 32.766 186.914 32.0509C187.012 31.4657 187.256 30.9131 187.646 30.393C188.036 29.8403 188.475 29.369 188.962 28.9789C189.45 28.5563 189.937 28.2312 190.425 28.0036C190.945 27.7436 191.384 27.6136 191.742 27.6136C192.034 27.6136 192.359 27.6948 192.717 27.8574C193.107 28.0199 193.448 28.2312 193.741 28.4913C194.066 28.7513 194.31 29.0602 194.472 29.4177C194.667 29.7428 194.749 30.0841 194.716 30.4417C194.651 30.7993 194.407 31.2219 193.985 31.7095C193.562 32.1646 193.091 32.6198 192.571 33.0749C191.985 33.595 191.303 34.1314 190.523 34.684C191.238 34.879 192.376 34.6515 193.936 34.0013C195.529 33.3512 197.203 32.3597 198.958 31.0269ZM193.204 30.1004C193.074 30.0029 192.766 30.0841 192.278 30.3442C191.823 30.5718 191.368 30.8806 190.913 31.2707C190.458 31.6608 190.067 32.0996 189.742 32.5872C189.45 33.0424 189.385 33.4324 189.547 33.7575C189.742 33.66 190.051 33.4324 190.474 33.0749C190.929 32.7173 191.368 32.3272 191.79 31.9046C192.246 31.482 192.619 31.1081 192.912 30.7831C193.204 30.4255 193.302 30.1979 193.204 30.1004Z" fill="white"/>
<path d="M192.39 12.4975C192.422 12.9201 192.211 13.4727 191.756 14.1554C191.333 14.8381 190.569 15.7808 189.464 16.9836C188.359 18.1864 186.847 19.7305 184.929 21.6159C183.044 23.5014 180.671 25.8582 177.81 28.6864C176.152 30.3768 174.754 32.0997 173.616 33.8551C173.844 33.8876 174.25 33.7901 174.835 33.5625C175.453 33.335 176.087 33.0587 176.737 32.7336C177.42 32.376 178.07 32.0184 178.688 31.6608C179.338 31.2707 179.809 30.9457 180.102 30.6856C180.427 30.393 180.671 30.2467 180.833 30.2467C181.028 30.2467 181.126 30.328 181.126 30.4906C181.158 30.6206 181.126 30.8156 181.028 31.0757C180.931 31.3032 180.768 31.5308 180.541 31.7584C178.688 33.4488 177.241 34.6841 176.201 35.4642C175.193 36.2444 174.494 36.6833 174.104 36.7808C173.746 36.8458 173.421 36.7971 173.129 36.6345C172.836 36.4395 172.576 36.2119 172.349 35.9519C171.243 37.8048 170.414 39.4139 169.862 40.7793C169.309 42.1121 168.919 42.8923 168.691 43.1198C168.529 43.2499 168.269 43.2336 167.911 43.0711C167.554 42.941 167.196 42.7297 166.838 42.4372C166.448 42.1446 166.107 41.8195 165.814 41.4619C165.489 41.0718 165.294 40.7143 165.229 40.3892C165.229 40.2591 165.489 39.739 166.01 38.8288C166.53 37.8861 167.245 36.7158 168.155 35.318C169.065 33.8876 170.106 32.2785 171.276 30.4906C172.479 28.7026 173.73 26.8984 175.03 25.078C176.331 23.2251 177.631 21.4209 178.931 19.6655C180.264 17.8775 181.516 16.2847 182.686 14.8868C183.856 13.4565 184.897 12.3025 185.807 11.4247C186.749 10.5145 187.481 10.0107 188.001 9.91313C188.651 9.7831 189.236 9.79936 189.756 9.9619C190.309 10.1244 190.764 10.352 191.122 10.6446C191.512 10.9371 191.804 11.2622 191.999 11.6198C192.227 11.9774 192.357 12.2699 192.39 12.4975ZM190.049 12.595C189.919 12.4975 189.61 12.66 189.123 13.0826C188.635 13.4727 188.034 14.0579 187.318 14.8381C186.603 15.5857 185.807 16.4797 184.929 17.52C184.051 18.5277 183.141 19.6167 182.198 20.787C181.288 21.9248 180.378 23.095 179.468 24.2978C178.558 25.5006 177.712 26.6384 176.932 27.7111C178.395 26.2808 179.939 24.7204 181.564 23.03C183.19 21.3396 184.669 19.763 186.002 18.3001C187.335 16.8048 188.391 15.537 189.171 14.4967C189.984 13.424 190.277 12.7901 190.049 12.595Z" fill="white"/>
<path d="M161.963 26.492C161.768 26.492 161.524 26.4433 161.231 26.3458C160.939 26.2482 160.662 26.1182 160.402 25.9557C160.175 25.7931 159.98 25.6143 159.817 25.4193C159.687 25.1917 159.638 24.9642 159.671 24.7366C159.703 24.5416 159.785 24.2815 159.915 23.9564C160.077 23.6314 160.256 23.3225 160.451 23.03C160.646 22.7049 160.858 22.4286 161.085 22.201C161.345 21.9735 161.589 21.8272 161.816 21.7622C162.044 21.7297 162.32 21.7784 162.645 21.9085C162.971 22.006 163.279 22.1685 163.572 22.3961C163.864 22.5911 164.092 22.8187 164.255 23.0787C164.45 23.3063 164.531 23.5013 164.498 23.6639C164.498 23.8589 164.693 24.1677 164.498 24.4928C164.303 24.7854 164.345 25.078 164.085 25.3705C163.825 25.6631 163.402 26.1182 163.11 26.3458C162.817 26.5733 162.158 26.4595 161.963 26.492ZM163.816 31.2707C164.466 30.6855 164.953 30.5068 165.279 30.7343C165.604 30.9619 165.474 31.4332 164.888 32.1484C164.498 32.636 164.027 33.1561 163.474 33.7088C162.922 34.2289 162.353 34.7328 161.768 35.2204C161.215 35.6755 160.695 36.0818 160.207 36.4394C159.72 36.7645 159.346 36.9595 159.086 37.0246C158.728 37.0571 158.306 36.9921 157.818 36.8295C157.363 36.667 156.908 36.4232 156.453 36.0981C156.03 35.773 155.689 35.3829 155.429 34.9278C155.136 34.4402 155.022 33.9038 155.087 33.3187C155.152 32.766 155.315 32.1647 155.575 31.5145C155.803 30.8318 156.079 30.2142 156.404 29.6616C156.729 29.1089 157.054 28.6538 157.379 28.2962C157.704 27.9386 157.997 27.7761 158.257 27.8086C158.484 27.8736 158.728 27.9712 158.988 28.1012C159.248 28.1987 159.476 28.3287 159.671 28.4913C159.899 28.6213 160.077 28.7838 160.207 28.9789C160.337 29.1739 160.386 29.4015 160.354 29.6616C160.321 29.9216 160.175 30.3117 159.915 30.8318C159.655 31.3195 159.395 31.8233 159.135 32.3434C158.875 32.8636 158.647 33.3349 158.452 33.7575C158.257 34.1801 158.224 34.4402 158.354 34.5377C158.452 34.6027 158.679 34.5702 159.037 34.4402C159.427 34.2777 159.866 34.0501 160.354 33.7575C160.874 33.465 161.426 33.1074 162.012 32.6848C162.629 32.2622 163.231 31.7908 163.816 31.2707Z" fill="white"/>
<path d="M148.445 30.8806C149.193 30.4255 149.648 30.2954 149.81 30.4905C149.973 30.6855 149.794 31.0431 149.274 31.5632C148.721 32.0834 148.136 32.6197 147.519 33.1724C146.901 33.6925 146.283 34.1964 145.666 34.684C145.081 35.1391 144.495 35.5292 143.91 35.8543C143.325 36.1793 142.789 36.3906 142.301 36.4882C141.879 36.5532 141.391 36.5694 140.838 36.5369C140.286 36.4719 139.766 36.3256 139.278 36.0981C138.79 35.8705 138.384 35.5617 138.059 35.1716C137.734 34.749 137.571 34.2126 137.571 33.5625C137.571 33.1724 137.88 32.3597 138.498 31.1244C139.083 29.8891 139.863 28.4587 140.838 26.8333C141.846 25.208 142.968 23.485 144.203 21.6646C145.471 19.8117 146.771 18.0725 148.104 16.4471C149.469 14.8217 150.802 13.4076 152.102 12.2048C153.403 11.0021 154.589 10.2219 155.662 9.86429C155.987 9.73426 156.442 9.6855 157.027 9.718C157.612 9.75051 158.181 9.86429 158.734 10.0593C159.286 10.2219 159.758 10.4819 160.148 10.8395C160.57 11.1646 160.782 11.5547 160.782 12.0098C160.782 12.5299 160.489 13.2451 159.904 14.1553C159.319 15.0655 158.539 16.0895 157.564 17.2273C156.588 18.3326 155.467 19.5354 154.199 20.8357C152.931 22.1035 151.598 23.3713 150.2 24.6391C148.803 25.9069 147.405 27.1259 146.007 28.2962C144.609 29.434 143.309 30.4417 142.106 31.3194C141.748 31.807 141.456 32.2621 141.228 32.6847C141.033 33.0423 140.871 33.3999 140.741 33.7575C140.643 34.0826 140.676 34.3101 140.838 34.4402C140.936 34.5377 141.326 34.4402 142.009 34.1476C142.691 33.855 143.439 33.4974 144.252 33.0748C145.097 32.6522 145.909 32.2296 146.69 31.807C147.502 31.3519 148.087 31.0431 148.445 30.8806ZM158.295 12.2536C158.165 12.0911 157.856 12.1886 157.368 12.5462C156.913 12.9038 156.344 13.4401 155.662 14.1553C154.979 14.8705 154.231 15.7157 153.419 16.6909C152.606 17.6336 151.777 18.6089 150.932 19.6166C148.949 22.0222 146.738 24.8016 144.3 27.9549C144.723 27.6298 145.389 27.0609 146.3 26.2482C147.21 25.4355 148.201 24.4928 149.274 23.42C150.379 22.3148 151.501 21.177 152.639 20.0067C153.809 18.8039 154.833 17.6824 155.711 16.6422C156.621 15.5694 157.32 14.6429 157.807 13.8627C158.327 13.0501 158.49 12.5137 158.295 12.2536Z" fill="white"/>
<path d="M130.102 30.1979C130.557 29.8078 131.514 28.9303 131.904 29.4177C132.391 29.7105 131.434 30.6043 130.979 31.1244C130.849 31.2869 130.492 31.6282 129.907 32.1484C129.321 32.636 128.574 33.3024 127.664 34.1476C126.786 34.9603 125.762 35.9193 124.592 37.0245C123.454 38.1298 122.267 39.3326 121.032 40.6329C119.811 42.486 118.706 44.0139 117.763 45.5092C116.82 47.0371 116.349 48.3374 115.52 49.4102C114.902 50.6455 114.057 52.0433 113.374 52.921C112.984 53.7662 111.913 54.7415 111.621 54.8715C111.328 55.0015 110.954 55.0665 110.499 55.0665C110.044 55.099 109.571 55.0015 109.181 54.8715C108.79 54.774 108.565 54.6439 108.402 54.3839C108.24 54.1563 108.126 54.01 108.451 53.5549C108.679 53.1973 110.351 51.0031 111.131 49.7027C112.106 48.2399 112.334 47.8498 113.374 46.0944C114.414 44.339 115.977 41.6894 117.18 39.7064C118.415 37.6909 119.602 35.8055 120.739 34.0501C120.089 34.6677 119.455 35.2204 118.838 35.708C118.22 36.1956 117.716 36.4394 117.326 36.4394C117.131 36.4394 116.871 36.3906 116.546 36.2931C116.221 36.1631 115.896 36.0168 115.571 35.8543C115.246 35.6592 114.953 35.4479 114.693 35.2204C114.4 34.9603 114.222 34.684 114.157 34.3914C114.124 34.1313 114.254 33.6925 114.547 33.0748C114.807 32.4247 115.164 31.742 115.619 31.0269C116.042 30.2792 116.497 29.564 116.985 28.8813C117.505 28.1662 117.976 27.6298 118.399 27.2722C118.594 27.1097 118.854 27.0609 119.179 27.1259C119.537 27.1909 119.878 27.3372 120.203 27.5648C120.561 27.7598 120.869 28.0036 121.129 28.2962C121.422 28.5888 121.585 28.8488 121.617 29.0764C121.715 29.3039 121.552 29.7103 121.129 30.2954C120.707 30.8806 120.252 31.4657 119.764 32.0508C119.309 32.6035 118.935 33.0911 118.643 33.5137C118.35 33.9038 118.383 34.0338 118.74 33.9038C119 33.8063 119.325 33.595 119.715 33.2699C120.138 32.9448 120.577 32.571 121.032 32.1484C121.52 31.6933 122.007 31.2219 122.495 30.7343C122.982 30.2467 123.438 29.8078 123.86 29.4177C124.12 29.1902 124.315 28.9951 124.445 28.8326C124.608 28.6375 124.738 28.5238 124.835 28.4912C125.063 28.4587 125.323 28.4912 125.616 28.5888C125.908 28.6863 126.184 28.8163 126.445 28.9789C126.705 29.1414 126.916 29.3527 127.078 29.6128C127.241 29.8403 127.322 30.0679 127.322 30.2954C127.322 30.5555 127.127 30.9293 126.737 31.4169C126.347 31.9046 125.843 32.5222 125.225 33.2699C124.64 33.9851 123.941 34.8465 123.129 35.8543C122.349 36.8295 121.552 37.951 120.739 39.2188C120.837 39.1213 121.195 38.7312 121.812 38.0485C122.462 37.3659 123.242 36.5694 124.153 35.6592C125.095 34.7165 126.087 33.7575 127.127 32.7823C128.2 31.807 129.191 30.9456 130.102 30.1979Z" fill="white"/>
<path d="M100.109 25.2732C100.272 25.1107 103.173 25.1918 105.058 25.1267C105.578 24.6716 106.066 24.2978 106.521 24.0052C106.976 23.7127 107.415 23.5664 107.838 23.5664C108.228 23.5664 108.65 23.7289 109.105 24.054C109.561 24.3466 109.918 24.6879 110.178 25.078C111.836 25.078 113.608 25.0617 115.493 25.0292C117.379 24.9967 119.297 24.948 121.247 24.8829C123.718 24.8179 126.14 24.7204 128.513 24.5904C130.886 24.4603 133.031 24.3303 134.949 24.2003C136.867 24.0702 138.46 23.9565 139.728 23.8589C140.996 23.7614 141.776 23.7127 142.068 23.7127C142.621 23.7127 143.222 23.8102 143.872 24.0052C144.555 24.1678 145.173 24.3791 145.725 24.6391C146.278 24.8667 146.701 25.1267 146.993 25.4193C147.318 25.6794 147.383 25.9232 147.188 26.1507C147.058 26.2808 146.424 26.362 145.287 26.3946C144.149 26.3946 142.637 26.3946 140.752 26.3946C138.899 26.362 136.737 26.3295 134.266 26.297C131.828 26.2645 129.228 26.2483 126.465 26.2483C123.734 26.2158 120.938 26.2158 118.078 26.2483C115.217 26.2483 112.437 26.3133 109.739 26.4433C109.382 26.7034 108.927 27.0935 108.374 27.6136C107.821 28.1337 107.252 28.7026 106.667 29.3203C106.082 29.9379 105.497 30.5881 104.912 31.2707C104.359 31.9534 103.888 32.5873 103.498 33.1724C103.108 33.7576 102.831 34.2777 102.669 34.7328C102.539 35.1554 102.588 35.448 102.815 35.6105C103.01 35.7405 103.465 35.5943 104.181 35.1716C104.896 34.749 105.66 34.2452 106.472 33.66C107.318 33.0749 108.114 32.506 108.862 31.9534C109.642 31.3682 110.178 30.9944 110.471 30.8319C111.056 30.4418 111.478 30.3605 111.739 30.5881C111.999 30.8156 111.982 31.1244 111.69 31.5145C111.527 31.7096 111.137 32.1322 110.52 32.7823C109.902 33.4 109.17 34.0501 108.325 34.7328C107.513 35.383 106.651 35.9681 105.741 36.4882C104.863 37.0083 104.099 37.2684 103.449 37.2684C102.116 37.2684 101.255 36.9108 100.865 36.1956C100.442 35.448 100.312 34.5377 100.475 33.465C100.637 32.3597 101.027 31.1894 101.645 29.9542C102.263 28.6863 102.961 27.5486 103.742 26.5408C102.214 26.2158 99.2663 26.116 100.109 25.2732Z" fill="white"/>
<path d="M80.2776 27.7598C80.5051 27.5973 80.8139 27.5648 81.204 27.6623C81.5941 27.7273 81.968 27.8736 82.3256 28.1011C82.6831 28.2962 83.0082 28.54 83.3008 28.8326C83.5934 29.0926 83.7559 29.3364 83.7884 29.564C83.8534 29.7265 83.7884 29.9866 83.5934 30.3442C83.3983 30.6692 83.1383 31.0268 82.8132 31.4169C82.5206 31.807 82.1955 32.2134 81.8379 32.636C81.5129 33.0586 81.2203 33.4324 80.9602 33.7575C80.7327 34.0501 80.5864 34.2776 80.5214 34.4402C80.4564 34.6027 80.5539 34.6352 80.8139 34.5377C81.0415 34.4402 81.3503 34.2451 81.7404 33.9525C82.163 33.6275 82.6181 33.2536 83.1057 32.831C83.5934 32.4084 84.0972 31.9696 84.6174 31.5145C85.1375 31.0268 85.6251 30.5717 86.0802 30.1491C86.5353 29.7265 86.9254 29.3689 87.2505 29.0764C87.5756 28.7838 87.8031 28.605 87.9332 28.54C88.0957 28.5075 88.307 28.5237 88.5671 28.5888C88.8271 28.6538 89.0872 28.7675 89.3472 28.9301C89.6398 29.0926 89.8836 29.3039 90.0787 29.564C90.3062 29.7915 90.4688 30.0353 90.5663 30.2954C90.6638 30.5555 90.5338 30.9293 90.1762 31.4169C89.8511 31.872 89.4773 32.3434 89.0547 32.831C88.6646 33.3186 88.3232 33.7575 88.0307 34.1476C87.7381 34.5377 87.6731 34.7977 87.8356 34.9278C87.9657 35.0253 88.307 34.9115 88.8596 34.5864C89.4448 34.2288 90.0949 33.8062 90.8101 33.3186C91.5253 32.7985 92.2079 32.2784 92.8581 31.7583C93.5407 31.2381 94.0284 30.848 94.3209 30.588C94.9061 30.0679 95.3124 29.9541 95.54 30.2466C95.7675 30.5067 95.7188 30.8968 95.3937 31.4169C95.1986 31.6445 94.8085 32.0671 94.2234 32.6847C93.6708 33.2699 93.0531 33.8875 92.3705 34.5377C91.6878 35.1878 91.0051 35.773 90.3225 36.2931C89.6398 36.8132 89.1034 37.1058 88.7133 37.1708C88.2907 37.2683 87.8356 37.2683 87.348 37.1708C86.8929 37.0408 86.454 36.8457 86.0314 36.5857C85.6088 36.3256 85.235 36.0168 84.9099 35.6592C84.6174 35.3016 84.4386 34.9278 84.3735 34.5377C84.3085 34.2776 84.3085 34.0501 84.3735 33.855C84.4386 33.6275 84.5036 33.4649 84.5686 33.3674C84.146 33.725 83.6746 34.1313 83.1545 34.5864C82.6669 35.009 82.1793 35.4154 81.6917 35.8055C81.204 36.1956 80.7489 36.5206 80.3263 36.7807C79.9037 37.0408 79.5461 37.1708 79.2536 37.1708C79.0585 37.1708 78.7822 37.122 78.4246 37.0245C78.067 36.8945 77.7257 36.7319 77.4006 36.5369C77.043 36.3419 76.7342 36.1306 76.4742 35.903C76.1816 35.6429 76.0028 35.3666 75.9378 35.0741C75.9053 34.7815 76.0516 34.3101 76.3766 33.66C76.6692 33.0098 77.043 32.3109 77.4982 31.5632C77.9208 30.8155 78.3921 30.1004 78.9122 29.4177C79.4324 28.7025 79.8875 28.1499 80.2776 27.7598Z" fill="white"/>
<path d="M70.8612 30.8806C71.3163 30.458 71.6739 30.3605 71.9339 30.588C72.2265 30.7831 72.1452 31.1569 71.6901 31.7095C71.4301 32.0021 71.0725 32.4409 70.6174 33.0261C70.1623 33.5787 69.6909 34.1476 69.2033 34.7327C68.7157 35.3179 68.2281 35.838 67.7404 36.2931C67.2528 36.7482 66.8465 37.0083 66.5214 37.0733C66.0988 37.1708 65.4974 37.1058 64.7172 36.8783C63.9695 36.6507 63.3194 36.3094 62.7668 35.8543C62.3442 36.1468 61.9378 36.4394 61.5477 36.732C61.1576 36.992 60.7675 37.1871 60.3774 37.3171C60.0198 37.3821 59.581 37.3659 59.0609 37.2684C58.5407 37.1708 58.0206 36.992 57.5005 36.732C57.0129 36.4394 56.574 36.0981 56.1839 35.708C55.7938 35.3179 55.5338 34.8628 55.4037 34.3427C55.2737 33.79 55.42 33.1399 55.8426 32.3922C56.2327 31.612 56.7203 30.8806 57.3054 30.1979C57.8906 29.5152 58.492 28.9301 59.1096 28.4425C59.7598 27.9224 60.2637 27.6461 60.6212 27.6135C60.8488 27.581 61.1251 27.5973 61.4502 27.6623C61.8078 27.7273 62.1491 27.8411 62.4742 28.0036C62.8318 28.1662 63.1406 28.3612 63.4007 28.5888C63.6932 28.8163 63.8883 29.0764 63.9858 29.369C64.4409 28.9789 64.831 28.8001 65.1561 28.8326C65.4161 28.8976 65.6925 28.9789 65.985 29.0764C66.2776 29.1739 66.5377 29.2877 66.7652 29.4177C67.0253 29.5478 67.2366 29.7103 67.3991 29.9053C67.5617 30.1004 67.6267 30.3117 67.5942 30.5392C67.5942 30.7993 67.4641 31.1569 67.2041 31.612C66.944 32.0346 66.6677 32.4735 66.3751 32.9286C66.0825 33.3837 65.8387 33.79 65.6437 34.1476C65.4486 34.5052 65.4161 34.7327 65.5462 34.8303C65.6437 34.8953 65.855 34.8303 66.1801 34.6352C66.5377 34.4077 66.9603 34.1151 67.4479 33.7575C67.9355 33.3674 68.4719 32.9286 69.057 32.4409C69.6747 31.9533 70.276 31.4332 70.8612 30.8806ZM58.622 35.5617C58.9796 35.7567 59.4185 35.6592 59.9386 35.2691C60.4912 34.8465 61.0113 34.3264 61.499 33.7088C61.9866 33.0911 62.3929 32.4572 62.718 31.807C63.0756 31.1569 63.2544 30.6693 63.2544 30.3442C63.1243 30.0516 62.8968 29.9704 62.5717 30.1004C62.2466 30.2304 61.889 30.4742 61.499 30.8318C61.1089 31.1894 60.7025 31.6283 60.2799 32.1484C59.8898 32.6685 59.5485 33.1724 59.2559 33.66C58.9633 34.1151 58.7358 34.5377 58.5733 34.9278C58.4432 35.2854 58.4595 35.4967 58.622 35.5617Z" fill="white"/>
<path d="M49.4447 31.0269C50.0623 30.5718 50.4037 30.4255 50.4687 30.588C50.5337 30.7506 50.4199 31.0594 50.1274 31.5145C49.8348 32.0021 49.4122 32.571 48.8596 33.2211C48.3394 33.8713 47.7543 34.489 47.1041 35.0741C46.454 35.6592 45.7713 36.1794 45.0561 36.6345C44.341 37.0896 43.6746 37.3659 43.0569 37.4634C42.6343 37.5284 42.0817 37.4309 41.399 37.1708C40.7164 36.8783 40.05 36.4719 39.3998 35.9518C38.7821 35.4317 38.262 34.8303 37.8394 34.1476C37.4168 33.465 37.2705 32.766 37.4006 32.0509C37.4981 31.4657 37.7419 30.9131 38.132 30.393C38.5221 29.8403 38.9609 29.369 39.4486 28.9789C39.9362 28.5563 40.4238 28.2312 40.9114 28.0036C41.4315 27.7436 41.8704 27.6136 42.228 27.6136C42.5205 27.6136 42.8456 27.6948 43.2032 27.8574C43.5933 28.0199 43.9346 28.2312 44.2272 28.4913C44.5523 28.7513 44.7961 29.0602 44.9586 29.4177C45.1537 29.7428 45.2349 30.0841 45.2024 30.4417C45.1374 30.7993 44.8936 31.2219 44.471 31.7095C44.0484 32.1646 43.577 32.6198 43.0569 33.0749C42.4718 33.595 41.7891 34.1314 41.0089 34.684C41.7241 34.879 42.8619 34.6515 44.4222 34.0013C46.0151 33.3512 47.6893 32.3597 49.4447 31.0269ZM43.6908 30.1004C43.5608 30.0029 43.252 30.0841 42.7644 30.3442C42.3092 30.5718 41.8541 30.8806 41.399 31.2707C40.9439 31.6608 40.5538 32.0996 40.2287 32.5872C39.9362 33.0424 39.8712 33.4324 40.0337 33.7575C40.2287 33.66 40.5376 33.4324 40.9602 33.0749C41.4153 32.7173 41.8541 32.3272 42.2767 31.9046C42.7318 31.482 43.1057 31.1081 43.3983 30.7831C43.6908 30.4255 43.7883 30.1979 43.6908 30.1004Z" fill="white"/>
<path d="M43.0586 2.40376C43.8388 3.11893 44.1313 3.88287 43.9363 4.69556C43.7413 5.50826 43.2374 6.33721 42.4247 7.18241C41.612 8.02761 40.6043 8.85656 39.4015 9.66925C38.1987 10.4819 36.9634 11.2459 35.6956 11.9611C34.4603 12.6762 33.29 13.3101 32.1847 13.8628C31.112 14.4154 30.2993 14.838 29.7467 15.1306C30.7544 15.2606 31.6646 15.6182 32.4773 16.2033C33.29 16.7559 33.8751 17.4224 34.2327 18.2025C34.6228 19.1453 35.0617 20.023 34.8666 21.0307C34.6716 22.006 34.4766 22.6399 33.8914 23.6151C33.3388 24.5903 33.1809 24.9804 32.1847 26.0532C31.1886 27.1259 30.5431 27.9061 29.6004 28.6863C28.6902 29.434 28.4789 29.635 27.6987 30.3442C27.1623 30.8318 25.992 31.6663 24.6267 32.3922C22.0586 33.7575 20.4332 34.9959 17.2149 36.0981C14.8419 36.9108 11.7861 37.821 9.80313 38.0485C7.85267 38.2761 5.44709 37.886 3.95174 37.5609C2.48889 37.0245 1.85498 36.5369 1.0748 35.6592C0.327121 34.7815 -0.0304661 33.6437 0.00204166 32.2459C0.0345494 30.8481 0.278359 30.0516 1.31861 28.1012C1.44864 27.8736 2.05003 27.1259 2.39138 26.8821C2.79603 26.5931 3.46412 26.6058 3.95174 26.6383C4.43935 26.6383 4.8457 26.7196 5.17078 26.8821C5.49585 27.0447 5.57713 27.2722 5.41459 27.5648C5.21954 27.9224 4.91071 28.4262 4.48811 29.0764C4.06551 29.7266 3.48037 30.5392 3.12279 31.3194C2.79771 32.0671 2.96025 32.1321 2.83022 32.8798C2.83022 33.5625 2.92774 34.4077 3.41536 34.9278C3.78106 35.3179 4.21182 35.838 5.31708 35.8055C6.45485 35.773 8.03146 35.8055 9.55933 35.3179C11.0872 34.8628 12.7288 34.2289 14.4843 33.4162C16.2722 32.636 18.0439 31.742 19.7993 30.7343C21.5872 29.694 23.2776 28.6213 24.8705 27.516C26.4634 26.3783 27.845 25.2567 29.0152 24.1515C30.1855 23.0137 31.0632 21.9247 31.6484 20.8844C32.266 19.8442 32.4448 18.934 32.1847 18.1538C31.9572 17.4386 31.4696 16.9998 30.7219 16.8372C29.9742 16.6422 29.0802 16.6259 28.04 16.7885C27.0323 16.951 25.9595 17.2273 24.8217 17.6174C23.684 18.0075 22.5787 18.4138 21.5059 18.8364C20.4657 19.2265 19.5392 19.6004 18.7265 19.958C17.9138 20.3155 17.3449 20.5431 17.0199 20.6406C16.3697 21.5834 15.362 24.6878 14.9231 26.0532C14.3705 27.2234 14.1267 28.0361 13.6065 29.0764C13.5415 29.2389 13.314 29.499 13.1189 29.4665C12.8264 29.564 12.3875 29.564 12.1925 29.4665C11.9974 29.3365 11.8674 29.2064 11.7048 29.0764C11.461 28.7838 11.5098 28.7838 11.461 28.4913C11.461 28.2962 11.461 28.0036 11.461 27.7111C11.461 27.4185 11.4123 27.0284 11.7536 24.6878C11.8186 24.3303 11.8999 23.9727 11.9974 23.6151C12.0949 23.225 12.1925 22.8837 12.29 22.5911C12.0299 22.7211 10.2257 23.4038 9.80313 23.4688C9.41304 23.5338 9.05545 23.5338 8.73038 23.4688C8.4053 23.3713 8.29152 23.095 8.194 22.8349C8.09648 22.5423 8.12898 22.201 8.48657 21.6159C8.58409 21.4533 8.8279 21.2583 9.21799 21.0307C9.60809 20.7707 10.8109 20.1368 11.266 19.9092C11.7211 19.6817 12.5825 19.129 13.0702 18.934C13.5578 18.7389 13.7528 18.6414 13.8991 18.6414C14.2892 18.0237 14.6305 17.4061 14.9231 16.7885C15.2482 16.1708 15.5408 15.6019 15.8008 15.0818C16.0934 14.5292 16.3372 14.0741 16.5322 13.7165C16.7598 13.3264 17.54 11.9936 17.7025 11.8635C17.8326 11.766 18.0276 11.7172 18.2877 11.7172C18.5802 11.7172 18.8403 11.6522 19.1654 11.7172C19.4905 11.7823 19.783 11.8798 20.0431 12.0098C20.3031 12.1073 20.5307 12.3186 20.6282 12.4487C20.8558 12.8063 20.2706 14.3179 20.0431 14.838C19.8155 15.3256 19.6205 15.797 19.4579 16.2521C19.9131 16.1546 20.8233 15.8132 22.1886 15.2281C23.5864 14.6429 25.1631 13.9278 26.9185 13.0826C28.6739 12.2374 30.4781 11.3109 32.331 10.3032C34.184 9.29541 35.8419 8.32018 37.3047 7.37745C38.7676 6.40222 39.8891 5.50826 40.6693 4.69556C41.4495 3.88287 41.6445 3.26522 41.2544 2.84262C40.7993 2.38751 39.9541 2.17621 38.7188 2.20871C37.4835 2.24122 35.9719 2.46878 34.184 2.89138C32.4285 3.28147 30.4781 3.83411 28.3326 4.54928C26.2196 5.26445 24.0578 6.0934 21.8473 7.03612C19.6693 7.94634 17.5237 8.93783 15.4107 10.0106C13.2977 11.0508 11.3635 12.1236 9.60809 13.2289C7.88518 14.3016 6.40607 15.3581 5.17078 16.3984C3.93548 17.4386 2.73269 19.3241 2.58643 19.7142C2.44016 20.1043 1.80624 19.7142 1.80624 19.7142C1.80624 19.7142 1.48115 18.4626 1.31861 17.8124C1.15607 17.1623 1.15607 16.3984 1.31861 15.5207C1.51365 14.6429 1.74122 13.4402 2.68394 12.595C3.95174 11.4247 5.64215 10.2056 7.75515 8.93783C9.90066 7.63752 12.2412 6.41848 14.7768 5.28071C17.3449 4.11043 19.9943 3.08643 22.725 2.20872C25.4881 1.33101 28.1863 0.794619 30.7219 0.404525C33.29 0.0144328 35.9557 -0.115587 38.0362 0.111967C40.1492 0.339522 41.7908 1.2985 43.0586 2.40376Z" fill="white"/>
<line x1="121.465" y1="54.6238" x2="185.562" y2="54.6238" stroke="white"/>
<path d="M179.649 52.2796C179.232 52.2796 178.837 52.2101 178.463 52.0712C178.094 51.927 177.809 51.7427 177.606 51.5184L177.79 51.2139C177.982 51.4116 178.244 51.5798 178.575 51.7187C178.912 51.8522 179.267 51.919 179.641 51.919C180.015 51.919 180.319 51.8709 180.554 51.7748C180.795 51.6733 180.971 51.5398 181.083 51.3742C181.2 51.2086 181.259 51.0243 181.259 50.8213C181.259 50.581 181.195 50.3887 181.067 50.2445C180.939 50.1002 180.77 49.9854 180.562 49.8999C180.354 49.8145 180.127 49.7424 179.881 49.6836C179.635 49.6249 179.387 49.5634 179.136 49.4993C178.885 49.4299 178.655 49.3418 178.447 49.2349C178.239 49.1281 178.07 48.9839 177.942 48.8023C177.819 48.6153 177.758 48.375 177.758 48.0812C177.758 47.8141 177.827 47.5684 177.966 47.3441C178.105 47.1197 178.321 46.9381 178.615 46.7992C178.909 46.6604 179.286 46.5909 179.745 46.5909C180.055 46.5909 180.359 46.6363 180.658 46.7271C180.963 46.8179 181.222 46.9408 181.436 47.0957L181.283 47.4242C181.048 47.2639 180.795 47.1464 180.522 47.0716C180.255 46.9915 179.996 46.9515 179.745 46.9515C179.387 46.9515 179.091 47.0022 178.856 47.1037C178.621 47.2052 178.447 47.3414 178.335 47.5123C178.223 47.6779 178.167 47.8648 178.167 48.0732C178.167 48.3135 178.228 48.5058 178.351 48.65C178.479 48.7943 178.647 48.9091 178.856 48.9946C179.064 49.08 179.294 49.1521 179.545 49.2109C179.796 49.2697 180.044 49.3337 180.29 49.4032C180.535 49.4673 180.762 49.5527 180.971 49.6596C181.179 49.7664 181.347 49.9106 181.476 50.0922C181.604 50.2738 181.668 50.5089 181.668 50.7973C181.668 51.059 181.596 51.3047 181.452 51.5344C181.307 51.7588 181.086 51.9404 180.787 52.0793C180.493 52.2128 180.113 52.2796 179.649 52.2796Z" fill="white"/>
<path d="M173.633 52.2796C173.216 52.2796 172.829 52.2101 172.471 52.0712C172.118 51.927 171.811 51.7267 171.549 51.4703C171.288 51.2139 171.085 50.9148 170.94 50.573C170.796 50.2258 170.724 49.8465 170.724 49.4352C170.724 49.0239 170.796 48.6474 170.94 48.3055C171.085 47.9583 171.288 47.6565 171.549 47.4001C171.816 47.1438 172.126 46.9461 172.479 46.8072C172.831 46.663 173.216 46.5909 173.633 46.5909C174.028 46.5909 174.396 46.655 174.738 46.7832C175.085 46.9114 175.382 47.1064 175.628 47.3681L175.371 47.6325C175.131 47.3975 174.864 47.2292 174.57 47.1277C174.282 47.0209 173.974 46.9675 173.649 46.9675C173.291 46.9675 172.957 47.0289 172.647 47.1518C172.343 47.2746 172.076 47.4482 171.846 47.6726C171.621 47.8969 171.445 48.1586 171.317 48.4577C171.194 48.7569 171.133 49.0827 171.133 49.4352C171.133 49.7878 171.194 50.1136 171.317 50.4127C171.445 50.7118 171.621 50.9736 171.846 51.1979C172.076 51.4223 172.343 51.5959 172.647 51.7187C172.957 51.8416 173.291 51.903 173.649 51.903C173.974 51.903 174.282 51.8522 174.57 51.7508C174.864 51.6439 175.131 51.4703 175.371 51.23L175.628 51.4944C175.382 51.7561 175.085 51.9537 174.738 52.0873C174.396 52.2155 174.028 52.2796 173.633 52.2796Z" fill="white"/>
<path d="M167.696 52.2395V46.631H168.105V52.2395H167.696Z" fill="white"/>
<path d="M163.053 52.2395V46.9995H161.034V46.631H165.481V46.9995H163.462V52.2395H163.053Z" fill="white"/>
<path d="M155.779 49.2109H158.815V49.5714H155.779V49.2109ZM155.827 51.8709H159.288V52.2395H155.418V46.631H159.168V46.9995H155.827V51.8709Z" fill="white"/>
<path d="M146.556 52.2395V46.631H146.901L149.505 51.1258H149.32L151.916 46.631H152.253L152.261 52.2395H151.86L151.852 47.2479H151.964L149.505 51.4943H149.304L146.837 47.2479H146.957V52.2395H146.556Z" fill="white"/>
<path d="M141.946 52.2796C141.53 52.2796 141.134 52.2101 140.76 52.0712C140.392 51.927 140.106 51.7427 139.903 51.5184L140.087 51.2139C140.28 51.4116 140.541 51.5798 140.873 51.7187C141.209 51.8522 141.564 51.919 141.938 51.919C142.312 51.919 142.617 51.8709 142.852 51.7748C143.092 51.6733 143.268 51.5398 143.38 51.3742C143.498 51.2086 143.557 51.0243 143.557 50.8213C143.557 50.581 143.493 50.3887 143.364 50.2445C143.236 50.1002 143.068 49.9854 142.86 49.8999C142.651 49.8145 142.424 49.7424 142.179 49.6836C141.933 49.6249 141.685 49.5634 141.433 49.4993C141.182 49.4299 140.953 49.3418 140.744 49.2349C140.536 49.1281 140.368 48.9839 140.24 48.8023C140.117 48.6153 140.055 48.375 140.055 48.0812C140.055 47.8141 140.125 47.5684 140.264 47.3441C140.403 47.1197 140.619 46.9381 140.913 46.7992C141.206 46.6604 141.583 46.5909 142.042 46.5909C142.352 46.5909 142.657 46.6363 142.956 46.7271C143.26 46.8179 143.519 46.9408 143.733 47.0957L143.581 47.4242C143.346 47.2639 143.092 47.1464 142.82 47.0716C142.552 46.9915 142.293 46.9515 142.042 46.9515C141.685 46.9515 141.388 47.0022 141.153 47.1037C140.918 47.2052 140.744 47.3414 140.632 47.5123C140.52 47.6779 140.464 47.8648 140.464 48.0732C140.464 48.3135 140.525 48.5058 140.648 48.65C140.776 48.7943 140.945 48.9091 141.153 48.9946C141.361 49.08 141.591 49.1521 141.842 49.2109C142.093 49.2697 142.342 49.3337 142.587 49.4032C142.833 49.4673 143.06 49.5527 143.268 49.6596C143.477 49.7664 143.645 49.9106 143.773 50.0922C143.901 50.2738 143.965 50.5089 143.965 50.7973C143.965 51.059 143.893 51.3047 143.749 51.5344C143.605 51.7588 143.383 51.9404 143.084 52.0793C142.79 52.2128 142.411 52.2796 141.946 52.2796Z" fill="white"/>
<path d="M134.936 52.2796C134.52 52.2796 134.133 52.2101 133.775 52.0712C133.422 51.927 133.112 51.7267 132.845 51.4703C132.584 51.2086 132.381 50.9068 132.236 50.565C132.092 50.2178 132.02 49.8412 132.02 49.4352C132.02 49.0293 132.092 48.6554 132.236 48.3135C132.381 47.9663 132.584 47.6645 132.845 47.4082C133.112 47.1464 133.422 46.9461 133.775 46.8072C134.133 46.663 134.52 46.5909 134.936 46.5909C135.353 46.5909 135.738 46.663 136.09 46.8072C136.448 46.9461 136.758 47.1438 137.02 47.4001C137.281 47.6565 137.484 47.9583 137.629 48.3055C137.778 48.6474 137.853 49.0239 137.853 49.4352C137.853 49.8465 137.778 50.2258 137.629 50.573C137.484 50.9148 137.281 51.2139 137.02 51.4703C136.758 51.7267 136.448 51.927 136.09 52.0712C135.738 52.2101 135.353 52.2796 134.936 52.2796ZM134.936 51.903C135.294 51.903 135.625 51.8416 135.93 51.7187C136.234 51.5959 136.499 51.4223 136.723 51.1979C136.947 50.9736 137.121 50.7118 137.244 50.4127C137.372 50.1136 137.436 49.7878 137.436 49.4352C137.436 49.0774 137.372 48.7515 137.244 48.4577C137.121 48.1586 136.947 47.8969 136.723 47.6726C136.499 47.4482 136.234 47.2746 135.93 47.1518C135.625 47.0289 135.294 46.9675 134.936 46.9675C134.579 46.9675 134.247 47.0289 133.943 47.1518C133.638 47.2746 133.371 47.4482 133.142 47.6726C132.917 47.8969 132.741 48.1586 132.613 48.4577C132.49 48.7515 132.429 49.0774 132.429 49.4352C132.429 49.7878 132.49 50.1136 132.613 50.4127C132.741 50.7118 132.917 50.9736 133.142 51.1979C133.371 51.4223 133.638 51.5959 133.943 51.7187C134.247 51.8416 134.579 51.903 134.936 51.903Z" fill="white"/>
<path d="M126.277 50.8217L126.261 50.3089L129.835 46.6313H130.332L127.832 49.2193L127.599 49.4676L126.277 50.8217ZM125.925 52.2398V46.6313H126.333V52.2398H125.925ZM130.003 52.2398L127.479 49.3555L127.76 49.059L130.5 52.2398H130.003Z" fill="white"/>
</svg>
