<svg width="30" height="30" viewBox="0 0 30 30" fill="none" xmlns="http://www.w3.org/2000/svg">
<g clip-path="url(#clip0_569_10)">
<path fill-rule="evenodd" clip-rule="evenodd" d="M21.8728 17.9921C21.4995 17.8053 19.6645 16.9025 19.3224 16.7778C18.9803 16.6532 18.7315 16.591 18.4827 16.9646C18.2339 17.3382 17.5186 18.1789 17.3009 18.428C17.0832 18.6771 16.8654 18.7084 16.4923 18.5214C16.119 18.3347 14.9164 17.9406 13.4908 16.6689C12.3813 15.6793 11.6322 14.4571 11.4145 14.0834C11.1968 13.7098 11.3913 13.5078 11.5781 13.3217C11.7461 13.1545 11.9514 12.8858 12.138 12.6678C12.3247 12.4499 12.3868 12.2941 12.5112 12.0452C12.6356 11.796 12.5735 11.5781 12.4801 11.3913C12.3868 11.2045 11.6404 9.36737 11.3294 8.61995C11.0264 7.89228 10.7187 7.99083 10.4896 7.97929C10.2722 7.96851 10.023 7.96622 9.77432 7.96622C9.52553 7.96622 9.12111 8.05962 8.77898 8.43315C8.43691 8.80681 7.47275 9.70985 7.47275 11.5468C7.47275 13.384 8.8101 15.1587 8.99672 15.4078C9.18334 15.6569 11.6285 19.4267 15.3727 21.0434C16.263 21.428 16.9583 21.6576 17.5003 21.8296C18.3944 22.1137 19.208 22.0737 19.8512 21.9775C20.5682 21.8705 22.0593 21.0747 22.3704 20.2029C22.6813 19.3309 22.6813 18.5837 22.5881 18.428C22.4948 18.2723 22.246 18.1789 21.8728 17.9921ZM15.0628 27.2905H15.0577C12.8299 27.2896 10.6448 26.6911 8.73867 25.5599L8.28527 25.2909L3.58641 26.5235L4.84061 21.9421L4.54547 21.4723C3.30264 19.4957 2.64621 17.211 2.64721 14.8651C2.64996 8.01989 8.21947 2.45085 15.0677 2.45085C18.3838 2.45196 21.501 3.74507 23.8451 6.09181C26.1891 8.43849 27.4792 11.5578 27.4779 14.8751C27.4751 21.7209 21.9057 27.2905 15.0628 27.2905ZM25.6291 4.30862C22.8089 1.48522 19.0585 -0.0703809 15.0626 -0.0720215C6.82934 -0.0720215 0.128496 6.62841 0.125156 14.8642C0.124102 17.4969 0.811875 20.0665 2.1191 22.3318L0 30.0722L7.91842 27.995C10.1002 29.1851 12.5566 29.8123 15.0567 29.8131H15.0628C23.2952 29.8131 29.9966 23.112 30 14.8761C30.0015 10.8849 28.4492 7.13202 25.6291 4.30862Z" fill="white"/>
</g>
<defs>
<clipPath id="clip0_569_10">
<rect width="30" height="30" fill="white"/>
</clipPath>
</defs>
</svg>
